<mxfile host="Electron" modified="2024-03-30T04:55:12.573Z" agent="Mozilla/5.0 (Windows NT 10.0; Win64; x64) AppleWebKit/537.36 (KHTML, like Gecko) draw.io/22.0.2 Chrome/114.0.5735.289 Electron/25.8.4 Safari/537.36" etag="orlXs8VzD1HjErk2tj2g" version="22.0.2" type="device">
  <diagram name="第 1 页" id="EOpb3rbyR0Z_yeH8OJFu">
    <mxGraphModel dx="2389" dy="917" grid="1" gridSize="10" guides="1" tooltips="1" connect="1" arrows="1" fold="1" page="1" pageScale="1" pageWidth="827" pageHeight="1169" math="0" shadow="0">
      <root>
        <mxCell id="0" />
        <mxCell id="1" parent="0" />
        <mxCell id="VVaLl3PcsrBrDYRy7xKN-1" value="" style="shape=image;verticalLabelPosition=bottom;labelBackgroundColor=default;verticalAlign=top;aspect=fixed;imageAspect=0;image=data:image/png,iVBORw0KGgoAAAANSUhEUgAABPUAAAGKCAYAAABka3RHAAAAAXNSR0IArs4c6QAAAARnQU1BAACxjwv8YQUAAAAJcEhZcwAAIdUAACHVAQSctJ0AAP+lSURBVHhe7J0HfFTF9sefBRXLU5+999577z67/i1Yng97Q6UI2LBhx4KCiPIQlC5depHeIaFD6L0kofdOwvnvd7KzzN7c3WySDbvZnB+fQ+6dO7fN3jLzvefM/ENUKpVKpVKVOs2bN09+++03ady4sZqamppaCVtOTk7w6atSqVQqVfJIoZ5KpVKpVKVQf/31l+y9997y4IMPykMPPaSmpqamVkLGs3br1q3Bp69KpVKpVMmjfwTEf2pqampqampB++WXX2TXrl3BV2VyCqi33377SW5ubjBFpVKpVCWhAw44oNRAvd69e5t3g9+7TU1NTU0tJe0fsnPnTjU1NTU1NbWAHXLIIfK///1PoZ5KpVKpjEoT1Pv777+Nd+HmzZt933Fqampqaqlj//rXv/KgnkqlUqlUqjz985//VKinUqlUqpBKG9T7v//7P9m+fXswRaVSqVSpKoV6KpVKpVJ5pFBPpVKpVK4U6qlUKpUqGaVQT6VSqVQqjxTqqVQqlcqVQj2VSqVSJaMU6qlUKpVK5ZFCPZVKpVK5UqinUqlUqmSUQj2VSqVSqTxSqKdSqVQqVwr1VCqVSpWMUqinSiolewNapVKVDSnUSy398ssvsvfee8uUKVNCv+nEiRNNI71Tp05y3HHHURkyI4i5ysnJkR07doQZeX7++Wf56aefItry5cuDW8jTSSedZH4nd/vly5eXffbZx6StXLnSLP/ss8/CfkuWde7c2Ryjn6Wnp4ddo6eeeqo5J3c/HPO+++4rBx10kGngs327j1NOOcWUC/t3z9HV+vXrox6Da4sXL/a9Z5566ikzojTbsmKfHNNjjz1myjlWPfHEE+aYBw4cWKT78+233zbr//jjjzHdN++8844ceOCBsmrVqmBKnvj9uGb69u1rynfChAlRj4drb8iQIaF9rlmzxpR/QdCF64L9+OUjbeHChfL999+bZ9arr74a9tv7iTJne6xXlPIry1Kop1LFXzz/ly1bJtnZ2WFG2ooVK/Klu0Ye+xxr2bJl6P1FWiSzmjFjhlx99dUyfPjw0DuI+9vvWNhupGXbtm0z66pUiZRCPVXcddFFF8lhhx0mS5YsCabEJtbjWhw2bFgwJbqo6JYrV863MdCgQQNT4fZWwl3ttddexlydcMIJcvTRR8vs2bPNOXz66afBJdFFpYkGRjTzEw2FQYMGBef8RaMtkqi8cw4HH3xw2IuqMKJB5YqX2wMPPFDg9rp06SIdO3YMzu0WjSXKPtr6NGr4/WhUIfJu2bLF17wNTD/Za6dq1apFLgeVypVCvdSSH9Tjuclzg+f3TTfdZJ6lWVlZZpnV66+/btYjn7XzzjvP5HXTvNa/f/+wa+f444832+GZfcQRR8ihhx4ayss01xvT+++/v5k/55xzTN5NmzYZYGTzeu3FF180z2veheT3g5MXXnih7/Hyfoy07Q0bNgTXFpk+fXrUY3CtXbt2vtcix8dyL2Cw6dGe88DXWPfvboffkvKk3F1zy8K7DHvwwQfDys9CNW/Djfc36ZSVzUO9J9Izw0LAjIwMk6dx48bmvAAv7v68stu2Zcfx2XLzGudm823evNnUaY466qgws1CPbXiXYaUFWiVCCvVUqvgLUGafS67xXuRdyHPZu8waz9CNGzdKtWrVzDMNsMF7077fvUbbZenSpeZZPWrUKPMc7927d6gt2aFDB3Ofe9ebOnWq9OzZM/Qcd42PfLG0VVSqkpRCPVWhxYPLfZhZ++CDD8yXX79lNCpcAXPq168fZngokPfII4/Mtwzr0aNHcO082Ye8fRBfddVVcvrpp5v5evXqmWWrV682y/xkj82KSjXzvAgQ0zzYvfJ7ubRv3z5fmte8Gj16tEk/88wz5fnnnzeVryuvvNKcg/flBrTyayicdtppZjkVedbzM75yRRIAlfU5Z9sQw3OEtIK+PNlGqPe4OJaCoN4rr7xi1v3yyy/NPMfo1+jEzjrrrKjbuuGGG8Lyv/baa1Hzq1SxSKFeaoj3FRX4b775xjy7aehaLzoaA6S1atVKvv32WzP9n//8R1q3bi1t27Y1v/13330nt956a+j5dPPNN8t///tfM89zmvfG7bffbuaZnjRpknmGRoN6fDDCa80+s5i2DRDWZf7ss882edkGDRa7fO3atXLHHXeY/a1bt84ABiCP3b8X6vHRyG7zrbfeMsfAPN5qFgzxvgxWBo2nA2bXR1xb8+fPl3nz5vna119/HXpv4Knn1ciRI01Z33LLLaFyLMimTZsWKj/KlPWpR9x2222+ZsvHbVjRUDzjjDOMN5w1IN/JJ58cmud43Hns2WefDZ0/50M5VahQIaxMkIV6vCup+9x9990yefJk32fG/fffb8r+xhtvDDtG23icNWuW73rIC/WAuGzrsssuk3vuucd4hrK+9xkA1LPrFsZcoKsKl0I9lSr+4h2HE8XHH38sH374oVx33XXmncKzvU6dOubjGnV7/vI85n320ksvmbRKlSqF2iuXXnqpeTaeeOKJ5tmOXXvttaadcM0115htduvWLQTm+vXrZ57jflCPOgOe1bRNeY66UK9hw4YydOjQ0LYU6qmSQQr1VIUWFdv33nvPPDS5dj766CN5//33TQiKbSQAYjBboaRC7Iq0wtrjjz8eXDtPPLhJtw9ivjAzT8U2GtTjwYvZ7TJNZfqPP/4w84QJpaWlyTHHHGPmx48fb+aptCMaD/aFwDHwQiA0iXlePlSkmeblwbQtJ69so44QJNs4cI31+crOtnnheUXj0ruOn+Ea7ifKzZah2xD74osvTBrAMFIjAxUV6vH72P3aRoiFejSeAb4YDRXSIkE90uxvdOyxx5rr0v4uNLKjHbtKVZAU6qWGZs6cGQJO1oBq9957r3m+uOmuAX9ciANUIt2mMU/FH9hFo4FtAbj69Olj9meh3p9//hlaFyMf70qW4ZHHNtgm7wHeLYRR+v2W9n1BXqAO27HHEg3q8W7meQucbNSokan04dH866+/mo9JfETDi5F3F89RnruxXkucA5DKlmMkGGQ/UgFT8Sx87rnnCjTX481CPeDbxRdf7GsWjvk1rHivUDfhXc5f7m0+xNEA5NgBH6SxDy8A4f1DHuoSvMsJMeZ4qlevHrqu3OuL7Xi30aRJE7NttuMFQvaY+I28yyIBuX//+98mf7SPlshCvcsvv9xsm3c+xrVNODie8DbNNVVkKdRTqUpGfGjiXcHHKvuRhrYP7wGuYQwvO+5Bnr8sI837zKILCtpz5OPZ+tVXX8n1118vmZmZZruxQj3eETxD+ejHvAv1BgwYYJ6fCxYsMMesUE+VDFKopyqyaBjZa4cGBNMYAI8HHZVV5qnMMo9ZkU5FOBbhRk1+C/UIR6Xi7Fak8bKwDYtIVrFiRbM+D3zvMh7W3jSv1ahRw6yP7DHx9QfRWGG+Vq1a5sXBNMeHhwgeGsy7IpyINCrXXllQZRs0XvEi4/zJY23cuHHBpWKmbTrw1U9s2740H3nkkWDqbvECYxlhzJFkj8F7nPwO0aBe3bp1zXqEHuH6Tn7CePlL30XueqT5QT0a0vb3Bny6y+3Lmpc5Xi0qVVHE9a1Qr/SLZzNf8i144/308ssvh54ffMSgu4UffvjBgBIq8MzPmTMn7Le3YM7CMjsfySzUA/LhIWDz443NM9p9f3mNRobdj/XK88tnzQJKP6iHaKzY/ZMvkrGcd1IsjRM+ctltsk93f66aN29uzhWz28V7DkjpZ7yXvPu3UI9yAYT6GceB+R27Da0GOs6dO9e8G2x+GnusY99nLgChzzvy4jVC/YVpAKItK2vsH296ritv+DFej7acIvVhd99995lrDwPuWuHFb70JWR+oCYy76667TF6ubdvYdc3uw0K9K664wuyD68Tui+3hWUiaa7/99puCvSiibqRQT6WKv5o1a2beP/a5OmbMGPMs5TnnjV5y7c033wx56i1atCj0/OVdwjMbbz7+4rxQGKjn3Y+G36qSXQr1VEUW1w0PWsQD1T7copkV01Ty+RLCAzSa8RAlv4V6hEbZ9fnLMdhKMxVzPAdsWCqNKeYxXKgRf/FUYDnGNCFXdh4YidmXi513+wiMBPWimStbSccD0KuCoB5fh1ifiroL8ICHeFrYecLHIsnug8aV335o/NhjBLT5yQsWo5ndBy89tkvjjRevbVzR9xHpNDj4AobRDyFpLtTjL7+p3S6g1nv8bJc+r2weQqn8zlGliiaFeqklt0891zOahgS/Md078E4h3Mb9zano01Cw7xs+KAB7LGTi2Y/XNM8qwj0JNSWvG37Lc8++o/jQYOfpfmDs2LHmOW6NBoML9QhHAkSyfY6fjzD2+U36o48+ap6bLC8I6vGuBBLeeeedvsY2YoV6eEJwnrVr14567dlnPHntdu0xRjLv/i3U43z5cEZXH16zZeJ37BbqEapqgdbTTz9t3t+kc4y2oeYCEL/GG9CND4uuh30kyAOUY/vk4WNftGcJId322Ih+sA1MvNitx54diMOG35LmZxYsulDPbqMgw3szEqBVKdRTqUpStAm5x3hX0c5CFurx4YSPbzgbYLYLCQv1eJ7zXKROxPOzqFCP/dG3OOG11mwXSSNGjDDzvN/Z1uGHH24873HgiPZ8V6n2hBTqqYokGi5cN1QW7QOWig5pPCBp9DANXLHT7nWGNwRhSTY9mtEPD/3FUClGeMyRbhtZeKPZvFR6UWH61AOS2WmMCi0GeHLn7QOb0ft4gLMMwMT5WaiHmzeu40xzfEx7w29dT0EacV4VBPWQdUnnL54QdnvW2rRpYyr03m1QjraRwXEVtA+blweFt7FkoR7hW3T8Hs3sflwgZ41Gayx96vHCjZTHz9y8vOgVeqgKI4V6qSUL9fAOBiox4l205wkjrFKmDGpg3zXW6JCbbdEw4IMEnlxsi3cUFXzyu1APyGK3AZzinWMhn5+5UA8BFcmPlxbp3vBbPkwBkJi3H3bc9S3U4zrheUp/fX7GNr1QD4DFxyevAZ4ogxYtWhiPCu9y9vnGG2+YPBwP52+3SxgwHtt+5hd+bKEe2+EY/cyWXTSoZz36+EukAcZxuV4ZLgABAvKxjHJnfX5nts+5McgIjTrWYTvu72nrKg8//LD5LelPj7InTzQjRJrjoU5hZfvis9vm46KFyPzm/G72XUzdgvlevXqZMuQdzn7pb5jj5riYp4HMeXKNAzfda0UVXQr1VKr4y75/7HPONTzkeI7yUQcHC9pmtPsAb7yDLdSjqw3ysQ7e9jznCgv1CO/lOUx/eq5ZJ49PPvkklGbfG7T7mO/atas+S1UJlUI9VZFkQ0pdowHDXx6WVMKZptJppzGvaDDgqYAxTR4gkE3DeFC7olLKPmxFlwexnbYqDNRj+/yl4m7T/Mw2NPzyWahHh+FUpJmmco7Hmxt+S4PSroPxgmKwCtdsWDNfg9x0jhPvADzPzj333LDtYAyKQXl703lZ0rigfDkHXpy85IBxBRmhYry4aAR74YZtSBQGenTv3t0cD53dsi5lxDFZqIe3Ap4y1khzPfV4qdNA4TcHGFMOkYxwO35/RjPmxa1SFUYK9VJHfOAAfNn3BEDPDiDBcwJIZ/ulA6Iwbz34eJ7jlWbXpX80BjliXeYjmQv1ADbuMjsaLd1GMLLsjBkzQsa7zYV6/K72nYPXOtv0Qj2ATc2aNc3HNXtcflDPPYZI5oV6NIb88hVklBvvP8qVfXNcdrt+9QfX3P0jC/X4gMW7lveF1+yIxN510UMPPWTeq95QXTtvjXveb33boAOO0HVGpDKhKwg8Ib1eG3hTumAukrF993ejocq9bZfbbRCJwLlSxoj3Ocvo09HdL+8/1qcPPs7Lrsf7kOuK8+L9rtAndinUU6niL7pBoJ3BM5hnFM9r+5y1gI76P44QvB/ffffdfFAP8UGJNNsPXmGh3gUXXBDTs9rPiCbjg51KlSgp1FMVWm7/c4899pgJlWSayqRNj2Re8QCnEWUrouTB0yCagDQ0FOyDlwcxIqyWiitmoR4QzKa5lV3rTWcNl2o6k2aaUFzMNo74ks28XZ+GBV9mWEZ/N3gWWKgXzaxonPz+++8mzfatF4s988wzZn173vylsUfjlMo7L0IadogGJcvcl5M9fjwNEfntskiGJ6Zbbq7sS5EGMy8yP4u0LuXGurysEY0yjifWPvVUqpKWQr3UkPVqss80PKGBLnw04RlPH2L8xlT0mSfs3+83t1DMQhdGObXGKKTsA09xm2afs4TtsIznJc9jQkXxTnafzV4jrwt3CCviuG2aF+ohF9rxgcddZqEe3S3QKOK942dcR16oR7iye67WPv/8c3MOeNwD3bzL7XsZ0biyUI+y9XtXuOYtf9dTryBzjx3RZyIjKDJYhjXKjmMnCsBNt+aWHVCEvNQRgCTAQ34LGpXWs446EfcfDU8GJnHP3RXnZSGdC1r4CMUxeeELDVDS7bnhwUcD1g4KZvNHgnp4kbI/PPJo9Fo4Gc3cAUpU+aVQT6UqOdG+4jmFEwIfWni+8lyLFeoh29UBz09g3quvvhoz1HPFBzzud/LhoWfvIzs4BunUFyI971WqPS2FeqpCy/Zxh+EBRqgH0zxE+csD0kKz888/PwyguaISTBoPbivmqYQC7VzjYeyVbRTxQLXbima28WbXswaYpBJvoZ4VjXp33pW3Tz0qeYyKZ41l7MdNs6LRYaEeLygqXq5RHiwjjMtNtwON0Nk2/TK5jSBeUqzD4BNuOoa3BKFCkQQUYN2mTZsGU/LOh8YE5xepgm+/okUzGhVeWSDKtfPyyy+b39v2qUfH3dYzkUYUaX5Qj5c+jbyCDI+QSMevUkWTQr3UEN5vfPW3IAxIxW9qoZ73mWXNht9a8Twhnec3lXue3dZ4d7BtvARsGl0dsB8aD3g98zGKdwLr8s7iuYwB/9g27yGe6za9oN+TxgTHj9cg++Hjiv3A4hX7s8dfkHmhXiTZPvU414LuERfq8a4t6N3B+9I9f95HeDRamzZtmgl3IuyXade8DSw+ynnf+QWZbbzZfgbdZUQS2PKhrLn3CMvFq5289HnoQkFXvNc4dwa6cPOwDXe/iA9dpL/11luh69Qu5zeiUWnnI0E9Pvixv08//dSUC+9DPppas+cGpGSev+5AHar8UqinUpWcLNQbPHiweXfiwUebx0I9PiJxD9IfLW0EP6jHYEZERdEW5flHO4ZnKB8sCoJ6vEOBgBwDyzEG8vM+02mPsS2W85yuUqWKeW+rVImUQj1VkYTXGNeNH9TjgQuEY/qcc84JTWOuCK8kzR2IwebzGpV1r2xFnQcxDQBCTwFAmP2SjWeCTePBjPBgI0zGbtvKQr1I5jYyXKhHOg98KsPWWMZLxE1z5UI9r6hYsyxSQ4mQG29DI5rxcorW6LLbchtDNDRJJ9TXTzRq7Hq8dL1mwWR2dnZwjTzhxWCPyxqNTQv1vMswP6hnGzm8TCMZy7kOop27ShVJCvVSS+5AGfymFurxjMD7yr4T+Ms8MMWWKX9dKIZ3dkGgiDBMnql16tQxntyEFrEOo6/GAtiAgLYhYQd+itXoosCuy1/XaOTwrgNM2DTb7yuQyqYVdN0XF+pR+cQrDi86a3iG8x7o3LlzqOx591NeH374Yei5T+OJbTBtQ1Dpd5A0QqvZh5WFehbEca+wPUAH7znWwWOPdeyHPAtB+IDJchp9wBF3u1b2XYPR1xNdaviVB2k2L8fq5rHpXvjCu5s0dzneeswz+Jc9p0hQj0FFKDNgoi1719gO+6Ah66YX9HuWZSnUU6lKTq6nnn0H8P60UI+uDHh+80zjg5YX6vEOA7bRBuFdwvObUcN5Psbiqcd7OlJbhAiop556KuL7mzaoHdxDpUqEFOqpiiyuGz+oF81cWfDG13Ar5gsKv7WyjSoXRlkVpk89Kwv1aBRgdvsM7sC822jmxcEyW9lm5ET+RjNXxYF6VLrdfuf4Gm/34abz0iPNHajCK9vHH54s7vnhDcGL7aeffgqmhItwI5YT2ua3bV58bNcL9fBEoVzxvqRDWlvZtOG3L774ogm1suFcpEWCeryII50XYl2FeqqiSqFeaikS1MO7mflI4bc2NNI+Y2nUU7kn1Naa9dLieW7T3NHSEV5S7J9nHaGreE9h9j2D0fggzId0YKD9TfEa9H44oQHBPumfz7uMjzH2vRgLQPQz3h/Rrv3iQj2vtxrC05HjdaEe3v6cJ+8S1uPY2A4emOTl/Pl4yLsDOEle9ze0UI9GH57hTNsuNdzO2Xk32cGxIkEQBgUB+FqYRhSC9dZgFET2wTZ453q3wciN7Ivf2K5vxf3LMu861vPD1jNYbvvnw5PfllEkqMe+2C7v8cJcB/wOBf2mZVUK9VSqklM0qEefdRbG8T6w/ee5UI+uLXhe8n665JJLTNcYtr1AxBLbAAYyz3a8UI97m/e3Xe4abS2607DvIdeIBPM+11WqPS2Feqoii+sGqMfDkGkeqvylwcLXc6apkNtpzMqOHmuNByViOtFQzypS+K1dzzUq34AujMYGaRyfTcNcFQfqueKlZyvrlLsrllGhp+Hity1eQLZB4/WEpC8J0nn5+cn2JxGpchsJ6rnieiEsjXy8tDmWWPvUsy/paGXEugr1VEWVQr3UUu3atc0z2Qv1gDB4xdnnPR84mOfZQWO4T58+Jh8j2EZqHONlxvPGC6lcWahn8/DsZ7vsk48o9jnueuhFE33Zsn5BAAbPwDlz5pj+S+0+aLSQZo13rj0Om4b3VjT9+OOPZv9FhXrMs1/XgGEch4V6vL/Jy/qs60I9xIcf8tl0fh9vHgv1WMZ2WOZnvIvscvs7A/Hw3LTvSWu8u4Cn3nTCxNg/wNXun7Kx54V535l2cJNLL700tI5XLtRzp638oB5/bV4+kjVs2NDsy9rPP/9srgeM39JdtmzZsgJ/07IqhXoqVcnJD+rxLGJ65MiRIaiHdzUfUmh7uc8q+x630VG0vWgrEF3Gu956dvNBBq9nG6br7VOPvBYWMmAjeVyox3uV/fIe5pjIo3UwVaKlUE9VZHHduEYH4PylQmiX83XaTmOIB5+dp9KOl4Odx2hM8bClImIf1qzjrUhRiSU/D2IgoWsALpbRSHHTkd2m3Z+VhXq2Hz8q2u48rt+IFw6g7NdffzXzyN0Hxnqs76a5/cu5UI+XEmE+1uxLCe8/m8aLwxUNrueee87kw2zffq4YLZdGx7333htM2S3Xs5AvV64oT1u2fq7kvMzYLua+TF1Fgnrt27fP9wWMhkfr1q3N9vDatOeMByhpNIY5XleULcfIqH5+Rt98bFuhnqqoUqiXOrLPcoxOtFFBfeph9uu/V7fffrt5Nvmt45oL5yzUo689C9cwoKG9xqzHH+mEAbG+C4QKY/Rdaq8JtmXT6fvH+yHMht8W1PivXr166N1gzfYdGE1+UM/dhtcs1KP/JNbjvcG89YrzM8Kt2D6jHPNutOfoht/yHuWd5D1e63Vot2XLgRBX+3vwcYnjcD0GMbw28Qx0f1PeveyDBqQFazxPqMOQbtNcoxEbqRxtfhtOywAd7m/oB/WoW7Ee/UtFgoXUZfhtFPrELoV6KlXJyQ/q8c7g3WOfu8A1ns32mU17EdH2xOGAD3M8e+nmwDog0Ge4fQ/Z/Ih++SJBvRdeeMH0nccywJ0L9YCBtOs6dOigUE+VNFKopyqyuG6AMPbLPvOYfbAxTWiMW4FFeDUwTZ9DVjSwbJ5o5j40beOCB7FboY5miEqONw0V1KceX4UiyS+/12hYWblQz3r2RTPWpbKO+7i3YYP7uBXlwAsRs8v5Su/KbSQyYjACUjLvbah6GxmUtS13GjKRFAnq0QG63ccPP/xgKsfe3yOSucfiNsCimUI9VVGlUC91VLFiRQN3+FBgf08L9Ro1amQaDTzbvBbpt8c7juduNKNB7a6PBx7PPvbFc5oPGezDK/r9oUGB9zLiGqxfv36hzXokIs6bEXH9Bi5Ctj/Bghr/eMbxTKXiyPuwWrVq5nwKkn0fuVCPjy9AU7e8aShRNhbiIRes0lBj1MOXXnopZITdfv31174DhCA+WlmoF0nsy9ZTunfvHto371u/7RLOCrhz7znKlg9oeHS66QzowQi87m+NJx+hsRh1JDxQoj1n7LHx+3Ade8+FcGvOkQaoux0arNGiFfhdWC8SvFbll0I9lSr+4mMb70hbt8fDjueo9YQjzT6f7bOU9zrvC9bhOYe3M8+zZs2amfeChYBt27Y17x26/OH+JZ1oLuCfbc/wrHSf27yD7T6tRQu/VainSgYp1FMVWfS5k5GREZzLq/BTgbWiglupUiVTab3gggvMA9GKhoGfqLTT0TQdkT/55JNy3333GfhHh9ouBET2YcwDnko9oyEVZIjjoI88tuk2cuhcnBeEbWD4WST57ctr9Llg5UI9vOEoy2jGKH9WjMxEqBDebF4xYhRhTIC/U089VVq1ahVcsltU8HhJ4mFhxUuQsF9rlHWkij4vWZZHa4REgnq28eyKhggN0ILMFS9xvq5FOwYa0Ar1VEWVQj2VSqVSuVKop1LFX9RfrMMCXtc2Soj6F20Swm1dDzsr2nJ44dG2oB9b+tAjkslur2XLlmEfnmi70C7i45n14mPwRG9UElCPe4d7iI9kfABxoR5e5Dg28MGGZQr1VMkghXoqlUqlUnmkUE+lUqlUrhTqqVQqlSoZpVBPpVKpVCqPFOqpVCqVypVCPZVKpVIloxTqqVQqlUrlkUI9lUqlUrlSqKdSqVSqZJRCPZVKpVKpPFKop1KpVCpXCvVUKpVKlYxSqKdSqVQqlUcK9VQqlUrlSqGeSqVSqZJRhYZ6K+fNk1U+tn3z5mCO/PLLj0XSxhUrfPOz70jyO66tGzYElyZGjKbjbRAyGqib5o64w4vXHaXHyrsOFQq/UYBUKpVKFR8p1FOpVCqVK4V6KpVKpUpGFRrqVS9XTqoF8nttRKNGwRz55Zcfi6TG993nm/+9QCMrkqrutVe+/L1r1w4ujb9eeuklefzxx+WRRx6Ru+++W6699lo555xzzFDXewWOhTI98MADJS0tLbhGnkjfsWOHmV6xYoVpjNlG46233io33XSTmbZiGeu4DTb2XbFixeCcSqVSqeIthXoqlUqlcqVQT6VSqVTJqEJDvZoHHyzVDjoon41v2zaYI7/88mOR1Pr5533z1zriiGCO/Hon0ACz+SzgK0moN2HCBPnyyy/lp59+kj/++EOGDBkiU6ZMCS7N048//pivoeVCPXTppZeahiMeeizLyckJLhGTBvg766yzwrz4ypcvL3PnzjXbwfSFrVKpVPGVQj2VSqVSuVKop1KpVKpkVEr2qfflWWcZqDci0CArSeGRl5mZaabHjx9vGoFWY8eOlX322SfUIGzUqJEcfvjhBtxR6M2aNTPTfnbdddeZdZ544omwdLz4tm3bFpZmbdmyZWYdlUqlUhVfCvVUKpVK5UqhnkqlUqmSUSkJ9faU+vXrZ4CaFZBv1qxZ5gVK+syZM4NL8kSji3TvCzYrK0uOPvro4NxuPfXUU9K0aVMzjRcg4bmnnnqqvPnmmybNim0uX748OKcqSUVq4JNe2MZ/Ydfxyx/LNoqyTrKJeyeW8yzuucaa328/qtSSQj2VSqVSuVKop1KpVKpkVKGhnjZew3XzzTeHwmkfeOAB85fQ3JdfftlMuxo1apQBcBdffLGZX7hwoTG8/I444ojQvA2z9UI9PPUAh97fgG0SpqsqvvCofO2114y98847snTp0uCSPFHWfvcAvw9h0lbvvfdemLlh1VYW8lqtXbvW7M81V3fccYf89ttvwbk8bdy40feacHXkkUeayp0V+UeMGBGcC1evXr3kmWeeiWr06VgYffXVVzEZ900k7b333uY+iaZJkyaFlQV/Cyobr4466ihp3bp1cM5f3GvudidOnBjWN6ZXzz77rG85urZkyZJgblWySKGeSqVSqVwp1FOpVCpVMqpQUK9KoGFdJZB357ZtwZSyq/T0dANGrFlgN3LkyLB0PPesWI5ddNFF8uqrr5pGo01zzQI6oB4efJdddpmce+65xlOPBiZ5hg4davIg5letWhWcUxVH999/v9StW1c6dOggxx57rClbypxQaox5O33nnXcG1xLJyMgwA6VYka9z587GmHZHNabxzfXCtcIyO12pUiUz75oLFI455piw6wmdcsopBj6SLxJsA0C5Df6vv/5ann/++eBcuH744Qf59ttvTSXwuOOOM16kTLONzZs3y7p16+SQQw4pFOhg3QYNGhhAbY3wc3f+lltukdrBPjA3bNhgIAWDzlhjG5ibhrkwm/4p+d2sgHOsAxC0xnlHO3bO+c8//wzO+evGG2+URx99NLQdypb9RNou1wph81u2bJGTTz7ZTHP/cixMc+7Tpk0L5lYlixTqqVQqlcqVQj2VSqVSJaMKBfWqBRqnVQN5FeqJPPbYY3LbbbcZo1HughibjgFQUJs2beT44483y/Hs69ixo0lH0cJvCbUdN26ctGvXzkA9RP95bMeG3DKNl5eq+ALq9ejRwwyCgtda9+7djfcWnnbArCZNmphpa0Cu5557Th566CEDAZjmd+E3sWLahXpMc/0wcjLLmAYSecUyCxS4xgBHjLLMNOK6AVTRmOdYmPZWNi+55BKpUKGCnHjiiWZ7kczuh8FdgGX777+/7LvvvmYaKMU04AA79NBDCwU6OG73+uQYvRCM69yFejyYAF5URiMZ27D3wKZNm8wxUg4cI31dshxAZweUYX7GjBkmvxVQ8KCDDgodS0FQj9+O7axZs8b89StLDMBqt0lZWuMYKU+OkWmbplAv+aRQT6VSqVSuFOqpVCqVKhmlUC8OIrxxzJgxpjFfp06dUHitK6AdjUPyABgI2cN7Cfviiy8MWLDz9evXN+v49aln1bBhQ/PjIbYJ1FAVXxbqnXbaaaGwakARopwpc2v8nnivtWzZ0oRQ8hu2aNHCAB/3nmLahXpWNMLdfF6xzAKF0aNHm3muG2AS6YyCjDeo1QcffBAGqBghmbwrV640834CSloB0VzvOax69eoGbnjTOedYxTEMGjTI3AMAUv5yLkxbe+ONN8KgHuHohB8vXrw4orFdC/XOPvts42U4ePBgcz8CygCstsxYfuWVV4bKxgqoBxCx6QVBPcA8x+vdjhXXgytgvrfsgHpcJ950rXgnlxTqqVQqlcqVQj2VSqVSJaMU6hVDQB8KEHiAbDnidUXoptsYtA0u8rAeMAYIg1WpUsUAGjtPH2wIqPf777+baTx5XKiHLChimxY8qYonoB7eeZTpwIEDjXfe9ddfb8y9TwAz7u9rvbaATcjNy7QL9Qi3JVQXY5mdxvOOedfsPhYsWBDyRGNfeAa6+Q488EADk5meP3++Wccek4V6zAPMrLgmSbP74LqkXzvX6DPy/fffz5c+efJks04sYh/Z2dkyb948Y9OnTzdpQEfm+etCPasbbrjBhNRigEBAn53H7HFbzz88FTlf+hmcPXu2Wca5swyPOPf3svKDerZMrdFXH/r+++/Ntiygx3uWfhTd7RJWjwemTQMoesuObXjTML2Hk0sK9VQqlUrlSqGeSqVSqZJRKQn1vjzvPHn/0ENlaIMGwZT4C08lGuc2vBbZcqQR+Mknn5jlDLzgijzWA8wqWvgt+dkOf71QzyrW309VsKynHl5dgCHgK6CHihzlDMzDmLaNfbwk+Y3o95B0+k5zfxOmXaiHNxfwb9GiRcazjr8Y4AtwBdyxZgVQArCxHgCP7WHkcaEDnmF43wHdAEyEylqox7l16dLFTCPS/UJpOQaOC6B58MEHG2Mac887VlE2hN8C0OrVq2dCfNkO0/RfyPbc8FsrgJ/1fAMsMnhJpH1TDt26dTO/gc1DqC2/FbATQMNv6B2Qwg/q0Rcf96g1u4zzYCAb+jYkzW+QEsKcLVB0RT5bhm55AvPvuuuusG2okkMK9VQqlUrlSqGeSqVSqZJRhYJ6VfcuHQNlfHbaaVItcJy9PZAgXgJQ8GKfOXNmMCVP3nKcM2eOabi7Ik+sUO+JJ54wfbgh9vX000+bacT8VVddZRpz/Iiq+MhCPaDYhRdeaMJeGagE8dtRmcPwCrONfcAYA13gbQdYAka51wLTLtRDhx9+uLkOuD5ojGNAPUJHrVhu+4ADMPTr108+/PBD+eijj0waoIhtu+b1SDvssMNCUK9v375hnmWAsldeecVMuwLq3Xfffcbj1Gvso7CQw0I9QsjZvzsqMNvj3P2gHuUPsEAc64svvmgGhFm9erUxF3qyDfYDaLOegJQZ3pZWDABCH4F2YBFU2PBb7lUL9RBQzi0P9utXPsBFv/Jk0A2FeskphXoqlUqlcqVQT6VSqVTJqEJBvc1r1hhL9kZOSUO9SAK6FKSff/45DEYgPL1++eWX4NxuUc6RypoGHN5d9Dumip8s1MPbDfBGX4ku1KNCh1m41bZtWwNk3dFvCXEFHlmRF6jnNrqBPwiox3LMC/UATqeeeqrZD3CPdQjBdcNpuXbwZsPwIgNEuNeMC/Xs4A52OXnHjx9vpl0B9QBjgDivRYJW0cQ6rAvUo3zd9VnmB/XIAzi1AByoZ8vJGv30IfJSjjb8ln4A7X1x/vnnmzTCp61Xo7v/4kI9vGcZyRdxzeBF6W7finTK31uejI589913+66jSqwU6qlUKpXKlUI9lUqlUiWjCgX1SosSBfVUpV9AJzy6AEQAWK+nHgIOWU89KneANRfqpaenG5hmxXpAPcKp6TuN9Uijn0TXkxPARDog6rzzzjPT1apVCy7N658NCGY9RL2ADSgYDeohoCDLMQvUvALq1apVywzY4jWOyd1+LHKhHuVmwaiFo35Qj7Bn1rOedgWF3zLwhHewGAvPWefTTz8Nnbur4kK9xo0by9VXX23mOQd+L+8+EJCXcGNveXJO6qmXnFKop1KpVCpXCvVUKpVKlYxSqKdSObKeelYAGwvo7H0CbDrhhBPMtJUL9S6//PKw0WFZD6iHRxb9rQHzCNsEMtEYdzV8+HDp37+/MQbUcEU/d4Avtrd+/fp8UA9AVRDUu+iii8yx/PHHHxFHcQXqcWwufLPGvgsLOSzUAzrQ36DXkBfqsc7YsWPNX7whgYzRoB7KzMw04cmEQ9MvHuvym7Rv3z7iesWFeoDDa6+91swTYmtH4/WKY/ErT2CfQr3klEI9lUqlUrniva1QT6VSqVTJJoV6KpUjF+qdFriO/v3vf5vBHPAwu/POOw18IryTv3heWVmoR4il934CkF1xxRUmnb7gGITjp59+Mh53wB5gEKO53nHHHVKxYkWpVKmSMUZVtqGZDPZAaC7T33zzjdku67JN1/D8cyGEhXp+eV3DI45wVrYNIACiMe018trpWFXQvq1ZqAcUBa5xHoAK67VICCvlSJm8/PLL8vDDD5vfC7DGPjhultGnoRXejfwurH/66aebkHXE+cZ6XJj1+rNQj2ukoPU5dgbS+e6778yx1alTJ6wssRdeeEHOOOMMs8yOsqtKDinUU6lUKpUrhXoqlUqlSkalJNQb88cf0qd2bcmeNi2YEi68qGwj3Yp+0Bg5NJLogD9Wkbdr167BuTzhGVWQli1bFpyKXb169QrbFyGIQARV0fTVV18ZDzEEvLMCxuHB1aBBAwPzsKlTpwaXiixYsECqVKliKk8vvfRSMDVPeKnxOwGY0IABA0KVLIABfbGxT0AR12bTpk1NWKc1VKFChXyNdrwFXeAAvHNHf0X0ycf+2V80Yx0G++BaisXcUXQLEtCKY9u2bVtEA34BOhFl7AUpeBdyfwwePNh44TGqNOHRPXv2NMu9g894xfKGDRuG8nP/+3kNRjJ7PBzDJZdcYtb3K0fXEOXkV35+Rp+IquSRQj2VSqVSuVKop1KpVKpkVEpCvYJ0zTXXmJFlXT344INy8sknB+fC1apVKxMuiehfDW8hr+GhZUW/aaecckpwLg/cFFTGQAfyUFn45JNPfPdRo0YNkxfABETCHnnkEeNNZufHjRtnKh12fsmSJWYdgAbbj8VUKpWqrEuhnkqlUqlcKdRTqVQqVTKqUFBvaIMGMujHHyXX4+VW2oSXjfecmWcEUa8YBdRdZvs785r7kp88eXII6jFqKaCNbfAXS0tLM8tc0V/aZ599ZqYJw/Pbh/Ugw5MLkIcRpkjfaHb+5ptvNqGidv7RRx816zC67m233WamrciLl5SrWK8FlUqlSmUp1FOpVCqVK4V6KpVKpUpGFQrqVd17b6kayLvTA4JKiwBnnGtBRngdImSS+fHjx4d54kUTQM3dFiDNnbdmRYORPtfsCJqFefmS95lnnjEvbSs66qfvMa8s1LvqqqvMj47RJxh9rtl51nWPTaVSqcqqFOqpVCqVypVCPZVKpVIlo2A5/4gV5FTbZ59SDfWs6J/Le87AOPrOckWH/TZ8lfz0e9WhQwdf69Spk8mH6DstUvjtrFmzwvaNVx+DEqD//ve/pp+0jh07+u4Ds32HjRkzxmynRYsWZp5prwExrSzUo78/+g/ELMiz8zQKWU+lUqnKuhTqqVQqlcqVQj2VSqVSJaPKJNSz/de58oN6VhdeeKHx3sNb77HHHgvZfffdZ7bD9H/+859g7vA+9YBoLizzQj0rBikgndBg+slz90P6448/bkJp3coE27bb4q878ABehocffrhZhizUY/t4BmKsY6ePPfZYk89uT6VSqcqyFOqpVCqVypVCPZVKpVIlo1IS6tG4od8/tzFGGv3iYevXrzfwys5jhKIyAIWdt2KACvL6vcQXLVrkC8GGDRsWCsM955xzzLZtPj+o161bN5PmHTXVimVug82Gybqj3Hq32bdv34hQz9oRRxxhPPTsvOtRqIqPKNMRI0YUCQwAmUePHh2ciy6uMUbR9RPXItddKun77783D6+SBi5s396/Jb0vVXJJoZ5KpVKpXCnUU6lUKlUyKiWh3qennirVAsfZu3btYIqYkWBp+GDWS83OY955dNppp8m5555rCikWqAcUZB4jjNY2BumTj7QqVarkg3o2jLZ58+YxQz3ES5rz6N69u5m327TwEojnB/WOOeYYOfroo40BKxhkg2nWnzp1atixqYovfg+/3y8W8Xvsv//+MUEFwr9taLZXXCepBvXq1q0rRx55ZIkDlxUrVoSgnt8AN6rUlUI9lUqlUrlSqKdSqVSqZFShoF6VvfeWyoG8yQ71PjvttHxQz9Xdd98tNWrUCM7lyS/8Njs72/yNFeoh+utzw2/R+++/LxUrVjQNrwoVKoQgj20sMk0/eoWBemjVqlUyZ84cM22PAy/Ek08+2UDFAQMGmDRkoZ4r66mHaMCuXLky3/moYhO/T7Vq1eTiiy+We+65x4BV0t5++21Tpvy14re48sorze/BaMhWXCf8ns8//7zJzyAoACV33UiqU6dOaCRjrmOut1tvvdWMmLzPPvsYqIdnp7strt+PP/44OFe65IV69H1Jud9www0yaNAgk4aA5Y0aNTL9UTIYDfcf92isYh+MEn3ooYcawJ/sgEcVPynUU6lUKpUrhXoqlUqlSkYVCurtCjQasGRXNKhnB8kghNVVtD71CgP1kBfqkWfhwoWmcYjnD/OLFy828M2qKFCPgTx++uknM+13HEDJm266yUxHgnr0E4gnl/UI89uOqmAdd9xxxguS3/Gss84yMM6Feu+8847Jd8EFF5j51q1by1tvvWWm7cjKwLfy5cubtEqVKoWgXs2aNc3yaCIf4bf8htYTlQFY+IsB9TIzM02+evXqmXW45u+66y4zXdrkQr2ZM2ea8wK+UW6cL9CeZfRDyXkyIvRnn31m8gHoWFaQ+P3Iz2A2PXv2NNNaOS47UqinUqlUKlcK9VQqlUqVjCoU1POKxo4FfWEWpRHkmz9g0eSXH4ukSFCPF9vBBx8sl112WTBlt+IJ9Qi3tVAPUEfj0IqyYR28h/DIsios1GPfQAb6wkPk8Xog2YE2EFAP6GFHusXee+8949nnphX1Wijroty6dOkSnBMzsAnXE7+b+/tdc801Ie9KxAjFDRo0MNNAPYCgVWHCb7kWgHqM0My0e70wb8NvLUhkkBeu+WQHFpHkQj3u6Ycffjh0Low+zTkzb6GeXTZw4MDQsoKEl5+bl2n6qlSVDSnUU6lUKpUrhXoqlUqlSkYVC+q9d8wxJhzXa62eeSaYI1w7Ai9Cv/zYkvHjg7nCtTAtzTc/FkmRoB7n+e9//zs4F67CQL2nnnpKzj77bJPuetuhE0880YCY6667Ttq0aWP26X2h0o8d6fTBZ+WFegCaM88804T8kdfbYCtXrpw0btw4OCdy/PHHm3yAB4xpDMCBgHocF7AxmrGOqvCqWrWqKbtDDjnEhHdPmzbNpHuhHoAAAMX1A9BjmQv1mjZtaqZRUaAenoDWO9PKht9ace2w36ysrGBK6ZML9Th3YCijVGPWG5JlQL3TTz89VIbTp083+WMp08MOO8zAkoceesgY2wQgxrKuqvRLoZ5KpVKpXCnUU6lUKlUyqnhQ7+ijDTzzWuvnngvmCBdQj4E2/NZZlJ4ezBWuhYF0v/xsJ5L8BspAhB9GEoAtUuON9dxl9JdG/3OYdx2WuXAw0svfCxDpD40+8qzYrt2H3wAIeOoVRhyX7SMwmubPnx+cUhVW/E4MXEJ/htxTeOS5UM9O0+/e3LlzzW8OJHKhXrNmzcw0KirUu/7664OpeWKZhXp4djLPcXzyyScmrTTKC/X69etn7gnXEFAPgGrLMFaox/1Jvmeffdb0T4hROabcSkuFXlU8KdRTqVQqlSuFeiqVSqVKRhUL6gVaO6bB47Vo8suPRZNvfiyCQnlUqj0gQBn30KZNm4IpeV6hbdu2DYN6tj9FC2mpaAGO4gn12rdvb/Zhw7Lt6K0W6tH3HzCMfZLP27dkaZE3/JZBMGw5devWLQTuigr1CFv35mOaNMLWC1pfVfqlUE+lUqlUrhTqqVQqlSoZVTyop1KpjGz484svvihHH310CN5ZqGfvMcAdoO7+++83aYTrAg/o29AL9fDSBCIRLlsQWCAfUI98NPDZ9u23327+EloO1GvRooWZt9tiv7FsOxn1/fffh6Ae58b5cz54QXKOLVu2NPmKCvXIwyAn3nyEw5fWMlMVTgr1VCqVSuVKoZ5KpVKpklEK9VSqOGnAgAHy/vvvGw89FwQw0vHQoUPNNIOZAJwYhIGQaCqHNMpJJ8ybNFcZGRmSlpYWnIss1rWNev4C8BjlduPGjabvPLa/ZMmSsH708OZz1ytNwivSPRfmGzZsKL/++quBm1aE1bveiIDWaGH4iN+OPNbb0RWDySxdujQ4p0plKdRTqVQqlSuFeiqVSqVKRinUU6lKgfC2w3vMzxYsWBDMpYpVnTp1ilim1gNQVbalUE+lUqlUrhTqqVQqlSoZpVBPpVKpVCqPFOqpVCqVypVCPZVKpVIloxTqqVQqlUrlkUI9lUqlUrlSqKdSqVSqZJRCPZUqyfXggw/Ka6+9FpxTxUOE2WqIrSqaFOqpVCqVypVCPZVKpVIloxTqqVRJroceekgqVaoUnFPFQwr1VAVJoZ5KpVKpXCnUU6lUKlUySqGeSpXkUqgXfynUUxUkhXoqlUqlcqVQT6VSqVTJKIV6KlWSS6Fe/KVQT1WQFOqpVCqVypVCPZVKpVIloxTqqVRJLoV68ZdCPVVBUqinUqlUKlcK9VQqlUqVjFKop1IluRTqxV8K9VQFSaGeSqVSqVwp1FOpVCpVMkqhnkqV5FKoF38p1FMVJIV6KpVKpXKlUE+lUqlUySiFeipVkkuhXvylUE9VkBTqqVQqlcqVQj2VSqVSJaMU6qlUSS6FevGXQj1VQVKop1KpVCpXCvVU8RT1i6efflq2bdtmpm+//XYZPXp02Pv8zz//lDZt2sjOnTuDKbtVrVo1efPNN8Osdu3asmPHjmCO5NC7774rb731lsyfP19OPfVUmTt3rixbtsyc85o1a2TJkiVy3HHHyaxZs2T69OnSoUMHWbhwoVnO/VajRo185zl+/PhSWe+hzvb222+b34nz/u6770LnijIzMyUjI0O6dOli0g8//HCZMWOGZGVlmTzffvutVK5cOawsqlSpkrTPpW+++Ua2bNlipvl7zDHHmN/cimnO65lnnpFNmzaZae4HlJ2d7fvbL1q0KFReqt1SqKdSJbkU6sVfCvVUBUmhnkqlUqlcKdRTxVOnnHKKqWtcfPHFcsMNNxh4U7FiRenbt6/k5OQEc4k89dRTsmrVquDcbp1xxhmydu1aA0GsXXbZZSGIkiyqUKGCfP3118aAlCNHjjRQi2sTkMM5nHnmmQZoAbKqV68u9913n7nXWJaenm7OyZ7jxo0bpVevXiHQedNNN8nmzZvNdLLr1VdfNecE5Dz66KMNyDzssMNkw4YNZjllAPQcNGiQ+c2BYE2bNpWlS5ea+ug555xj0t3f/OqrrzZlMmLECDniiCPMc4prKdH1QgDtoYceas6B3+v888+XlStXmuueMkCcz/r16+XZZ5811wLlQL0WMD1lyhRTHlwH9lxt+WidN78U6qlUSS6FevGXQj1VQVKop1KpVCpXCvVU8RR1ewBW+/btDZT67bff5Oeff5bvv/8+zNuO5Y8++qiBGq6OPPJI+eKLL4w3lLXGjRv7evUlUk888YSBO+3atZMLL7xQzjvvPDnppJOMp9q0adNk9erVcscdd5jr9eGHH5by5cuHQT08EuvUqRN2nhZanXzyybLvvvsaqFUaBNSj3rZixQoDYM8++2wDu6666ioDtSiH448/Xh544AFTFnfffbfccsstxqMTsAkE+/zzz8PKAu89rg3g4Lp160y+K6+8MuFlwu+DBx5QF/Bar149+eWXXwyk/fHHH80xn3vuuQZSPvfcc+bYuRbwUrRQ79NPP8332+PBp224/FKop1IlmT755JPgVJ78oB4PRlVs4iWJy78rL9Rbvny5cW1XqaxSEer9MvDEgJ2gpqampuZY06EXSE5uwfBLoZ4qngJ0nXjiiSbEEAgD6CLcEs899zojHdjj9Ua76KKL5I033pA777zThO5i77zzTtL95kA9vLVatWolN998s1x33XUG7uF9Rv0b0NWpUydp0qSJAZoXXHCBXHrppeZ8ybNgwQK55557QueI4QVm6z2XX355qfLUe+WVV0Igk7LArr/+etNeITSX+ucJJ5xgvO7w2MPGjh1rvDePPfZYU++79957Q2UB+HPPn200aNAg4dcBIdY8gzhmjgkgB7ieOHFiKJwY0NuyZUtTBvz+TM+bN8/8tsA/oO6DDz4Y9tuXFoC7p6VQT6VKMvGg45604M6Fel999ZVZhuuxKjbx0uBr5oEHHhh6wVmox9dMKlAHHXRQTFBEVXaUilDvf4NPlz/H3B6w28qctRx5rTQecpbvMrWStTZjbpX/DTkzMH1rvmWl1f4Yfqn8NvTcwHRqnFPe73NLvvSyYG1G3yLNhl+mUE+1x0X9omrVqsZjiXooHmp77713GNQDXtGnHr8j3k42nXWBOYAfGvPUZa3ZUM5kEVAPCIXHFufJfUS9BU89YObBBx9s4A4eaNdcc40BN2eddZYBVcOGDTP1HMCQe56nn356CGSVNqiHZxoea0BdygID6nEOwE/aKPylPHD0AN4Storw4uM3d39vbPbs2WZ9vPWAgG74dqLENYrhZYpnHueLJ6qFelz3aWlppi1mw28R54jXHtf9Y489JkcddVTYbw/0TbZrPBmkUE+lSkLxUOa+xOhUFvdkO89LP9lBQ7KJTmd5SVJ+p512mvnLS8GWKR0Tq1SuUhXqtU27I2C3lzlrNeo6+W3I2b7L1ErW/kzLg0ZtA3/9lpdGazbiMmky9LzAdGqcU97vc2u+9LJggFmFeqpECG8sgNbvv/9uoBUfoPfZZ58Q1MPTiX7zbB95hNr26NHDABv6IaOfMqZpzAN0yAsMSTYRRkqdCihJfYX+86ZOnSpjxowxYI9+0vBEe/755w3469ixo4F5nDeht5QFIZd48XE9A7lciFfaoB73Jf0L9uzZ05wr/QwCKfFAI9SW6wCox7VB6DUwjDyEpOKVCfwihJn8DLRBv3zUAemjD6cPvB/xBEx0/ZXflPPiOieM9v7775dGjRrJhAkTQlAPbzyuYRfqkZ/rmHIC3tEHY+/evc3yF198MZRPFS6FeipVEmry5Mkh4OQ1byipKjbR54ZfeZKukFTllUK91DKFeokzhXrJb2Ud6v026CIZOKif6Wg+2rNUoZ4q3sJTj9/o9ddfN/2lTZo0Sa699loDRPj47IVVhG4ChIA7XIt4MQG18IArV66c+fCfbIALTz2OiX7iAFSMbgvEBN4QWsygGYTZci7cY4Qk09cc8IYyAV5RJwMGshxPLrZp78Xu3bsnXT+CkQTUA1YyMMrMmTONxx4h1J07dzagtnnz5mYZZYCDB/U7fmscPP744w8Dw+hvkGsErzWWA3Pw5MOzjfUxYGGyjIKMp94PP/wgc+bMMcfVtWvXENTD65DrFscL/mK0zRgV97bbbjN/OT/6TuTaZpCNzz77rNQ8h/ekFOqpVEkq61nmGl9hFEAVTbi7+5UpHbGqVF4p1EstU6iXOFOol/xW5qHe4Itk0OD+MmrUKIV6qj0q63UEuAJy8LcgQEW9JBKwSRaQ44pzsnUp7i/m3fvMnbb5KAsUqSzs8tImfm+3Xsk8wNNNc0Nn7XlG+11jqf8lUvzePDfteeJ9556vV7aMUu23L2kp1FOpklSMjOSFUHzlUBVdxx13XFh58sUw2V+GqsRIoV5qmUK9xJlCveQ3hXoK9VQqlUpVeqVQT6VKYtGnggVQuNYnO2BIdi1cuDAMlNIBsUrlJ4V6qWUK9RJnCvWS3xTqKdRTqVQqVemVQj2VKonlDvBAR6iq4gvvPMqTfhsUkqoiSaFeaplCvcSZQr3kN4V6CvVUKpVKVXqlUE+lSnLhoUdHogqg4iM6kwWUMhiJShVJCvVSyxTqJc4U6iW/KdRTqKdSqVSq0iuFeipVkovRbge1by+Lxo7NZzlROtP1y49F0qJx43zzLxk/Ppgjv/zyY9sjjLyVs2OHb34skpbPmOGbf8nEicEc+bUoLc13nY0rVpjlDLHuwpqiHJcqtaVQL7VMoV7iTKFe8ptCPYV6KpVKpSq9UqinUpUCVd1rL6kWuE+9tnn16mCO/KoWYR2JACmqlyvnm//dQw6JuE6kfWROmhTMEa712dm+61QJWKR9NHzggXz5sQ+POy4icKkc4bhGNW4czBGuTatWyVs+61QNmHpIlk0p1MPulG4Tn5KuE54ITCcnDGwXOEbMb5lr0aHebdI+/a585p+35C3S/vPS/50vPRks7zfwv0bKOtT7c0z+66tdesHX7G7bvT5l6ZfHLi8oLZIVFerxu0faB+fdadxDAXvQTPvlSQZTqKdSJViBetbWtWtkYZ+eMurdmjLktZdkSKVXZNKP38vaObMlt4DRgFNNuTnbZMuKNMkcVFHmtD1N5rQ5Ueb/dbmsnvqT7Ni0JFBeBdf3VGVPCvVUqlKgdw45RN45+OB8Fg3qRVonEjx77/DDffN/dOyxEdeJtI+sKVOCOcIF1PNb5+2ARdrH/ypUyJcf++zMMyOuUzPCcY35/fdgjnBtCpQj8NKbn+NSqFc2VZahHuBg5cb8g8hkrRsnbcf4rxMvo4GduXZMYG955U75/53xpm9ebFewcuu3zLVoUA/gsGtXjtmOVyvWT5W26QWX2YIV/WTJ6uExwZrN25ebbbcZc3O+ZZR9bu4Os3zz9pWB7eVBPMCJPcY9Afbap98rO3J2w4tVm2ZFPLcx8783v0PW2rGh43WtrEO9LhMqSO4u/0bptKw/C7xmuD5zd+VdE35wrMekimb7uyQ38LvdHUq36+RB+fB1vFZUqLdle573+6i5X+aD621G32SuZa6NWMB7okyhnkqVGAHrJnz/jQx55QXJ7NBONqePkW0TxoXZ2kEDJOO7OjLoxWdl7exZgedJ6tbJN2cNldltTpJl/f8r2+d0DVS6xgZsXMhyl4ySTZN/kbmtT5KlA5+UnB3rg2uqVAr1VCqVSqXKp7IM9RasGhjIvcuc++pNs2TVxpl5Gwho3PwGYXlpEOdZOGwA5BgLpHuX56W5+W2+22Tg9OoGAmDbdqwN7lXCwEde3jwAEW+ot27zAlm3ZaFs2b469NGgx+RnwvL6ne+OnZtM3nYeryW//C7Us8tD+QNlYaEe6jzu/0x6JKiXt22f8jfbzUuz27e/iU3bvTz8GPlrIdS2netlZ+42M71yw/TAcvd3yFtHoZ5/HmsW6lFGXFvY1h3rTJmiDun3hfJ6fwubVjqh3s2ycuOMPCBslrnXX/7zzDObzrHkP9fdy9w01nG3m3+9aMb2FOqpVHtWmUMGy8gqr8sWH5AXyRa1aSkDn6so2zekFszK3blFZrU6STZO/Fl2ZaaFgbxItitrosxvf76sn9Nadjl1BlXZlUI9lUqlUqk8KqtQjwaxBWWE3tr0oTM/APOZ8rDbWLN5nsmHtu/cJH2mvmrSAQtAsTWb5sjGrZlmvR05m6VfRmXTgN66Y62BRbaBP3jGu7J15zpZv3mxZK+jD89d0n3if82y7HUTzPz4BT+b/Y6a+5XsyN1qjmPhykFmGSJvNIsV6rUZc0sofc2muSZt0Ix3AvN3SP9p1WTbjnXmfHIClejMNWkm3/J1k0JlhnfdX+MfCaTfJotWDTRghWWbt6+SziZ9N9QbNL2m7MzJa3Cv3DjT7IMycaHezpxtgbQ78kE98i1aNTS035zAdtLm15V2bGPM7YEyXmOOBdBGGXVMvzfwm6yS9VsWG6jEett2bpAOY++TTduWBeZ3mfwcQ6vR1xtItH3nZgNj+M1ygoDIgps1G2cHtpobOL4tMnFxY7M9hXr+ZqEev2W7tN3ls37LEvPbTFnSzEDrvOtrgynnnTlbZcy874PlX3o99bbsWGnud5ZNXPg/81yYuqSFbN+xMe+a27YikDdvPe49wDHXEsvWBp4vu0N77wjMzw+k5wTOKyew3srAM+Jpk7560+zAtbxOBk6vEXjObAmU23dhHwEKMoV6KtWe1ci3q8uKXj1k6/ixvvAumrHOyLcqy5qZM2RXDPWeZNfGRd1kUZcbJXfxCF94V5BtmdFKFnS9VnJ35H1YVJVdKdRTqVQqlcqjsgr1Oo97yDSqUbsoYacACkT57HQg1J9pt0iHsfeGtsFyO43Y/86deY3i/tOqmPnN25aZ+V6TXjDeazYsFRi0fssis2zsvPqB9FsD28oDW7bhb+U9Pq/FCvWWr58iyzdMlS3bV5p59tEuDVCSl4d5A/aC+168epis3jgrUP556wMv/xr/mGSvy4Np7vkz3SawLwv1EF5wdlvjFv5kjsdCPQs0R8/7xsAaF+pt3LrUTLMuAAjQiACrQEDAh6uOY+8LpXnLzp1ftn68AXPu79Au7S6zLvsAzrj7dn9bhXr+5kI9gCvw6s8x/EZ53pCdxj4Y+H0eDM1vz9kU+j0GT3/HhLyXVqjnht9OXdoiMJ3/GjTL0+8KebvmLdt9P7HMeu3m5lKOec8PpoF+G7dlBeZ2X88GhirUU6inSjpxz/er+B/ZPGaUL7ArjI378L28cNxSDPa2LB8tK4dVkV1LR+eDdYUx1p/V6hjJ3a7huGVZCvVUKpVKpfKorEK9npNfMHAARWsYW5jzZxAEZK1LD8ztkmXrJknHsfcHG+a5BmBgFnqxTTzz2MfazQsC6+72DHQhIg3tOct7BFLzyp9tAM/QvBV9DSQAYNl17XqRrKh96m3fuVHap99joMvCVQNlZnbnwDp3yNgFP5tz2LRteeC4/x0Wfutur0OgLP4MHDveSjm526XbpKdlcxCEZCxtbc5j3vI+gW3tkvnL+5r++yzUy4OjttzuFgvl8MazAMh6Mo2c+4UpCzy92gaOx+YdMftTA1fIt3v9Ow14ZNu5gXU4n15TnjfzQBQ3vLfzuIdDEGXByn4mze4brzNA68atQJVA20Khnq9F61NvZnbHQJndKcvXTw7M7TKeqISt9p9W1ayzcWu2KedUgnrrNi8058QgGhwjz9iOYx8weblGOY5Wo6433r+Ie4guARauGmTupd5TXjHni1yot3z9BLOca9I9joJMoZ5KtWeU/sWnsmn0CF9IVxQb83Z12bZmDbQwuIfSox2bM2VJz8CzfUnRPPS8lrNomCzp/6Tk7twc3IOqrEmhnkqV5Prxuuvkh4Cp9rzqX3+91AuUfU4ZG3lLVZY99f4vcM75IRtmvbdokJMnz4smryFPqC5pQLCO4/Kgngm7Cy53oR7HwHLK1u4PGGihAI1stmNFiCjpbA91n/QfM4+xLrLzkSxWqNdq1A3SevTNxvJggZgwYo551YaZof1Z+UE916uubfD82YextN2eetYTrl/G62a7C1cN9kC9+2XE7M/MMsISLeDMg3o5Jp/9PTlu0ow3XRDqsV674Dl6oR7eYRwj4bNAvC4T8iCfC/WGzvoo9Ltt3JJl9tV69I1hQIV8Y+Z9a/alUM/f3D71VqyfIis3TjPTVlwzhEXb39cVYd55npLRoN5/87ZfSqDezGWdzHXCsVqo13PSc6Hj9YplI+d8ZcrCKxfqDZj+VmA/0Z9vfqZQT6UqeW3KzJSl7f+UrePSfQFdUW3AcxUlp5Tck65mtzxSchcP8wV0RbW1oz+S7evmBB6HkZ9hqtSVQj2VKslVda+9pAr3aCn8ElXa9Vag7KsFyl6hXtlTWYV6NIotcLCDNGAj53xhgNGWHWtMY9zmseBv7IKfzPJNW7McqLcmsNwP6u3ur46O9GmQAyZIx/PPbpv++AhXJB0zg1cE1Gfqa3l5HRhn80SyovSpNy2rrTkn+v0aPOM9c1zAxq4THg9BMT+oRx9hdnssA2qNW9hQJi1uajySIkG9RauG5IN6HBvhvq4s1LPTbINjYp8GAgX2aaBfwNoHy7uwUG/U3G/MMaERcz4N7ceFehbiTFzcxOQtaagHfMHcabZtzG9ZEID5LSvusRS3Tz08yizE4n5as5n7ATBVXTqP/z/pNO5B48nGX84jGtTL83izv0keaKVM7Dp4W3rX8dqehXp4J4ZDPY6RaZ4Zf41/NFAGeefOubUObMcCveGzage2e4vxekUu1Osz5ZXAfqM/3/yM60GhnkpVshrw3H9lc9poXzBXHFvVp6esGDe2VIXhrp3WWLbO6SKSGT66bTxsTqujJVdHxS2TUqinUiW5FOolTgr1yq7KKtQDUmwwHfjzyNklM7I6yJxl3ZkzaSNmfW7yWeAzdWlL+TvjjUCDPA8YDZ/1ieBZx/JoUK/nZMI987bBXyAE6YS3si/SstdPCNh4YyPnfmWOBcjGvgZMryrrtiww66O8Y49ssUK9tZvmmQ76AXnsC01d0lJmL+tq5petnyitRt8Q6uNrUyCfC/X+nvqG0G/ejqCn4YysjoG0N835UJ6EBhYG6rG8f0YVs9wKUJcTHJF28eoR0mfKq6H9z87uZrwDiwP12hqIlPfMW75+aug34Pcwxxdcxr7yYGfedksS6jH4CP0P7ggYx7thW5Y5nwHTqkvrUTeaZcxzbnbZoMCxEbbMsjyPtzvN4C4c/7DAdVoUry5rxYZ6gfVcqDd2foNg+W8J5H9CsteOM9cbx+uG35pBZhxbsnq4gVKh5dvXBO7Bj2X7zt2NOnfE4khWXKjHdeMeF2aOK0aox+9kwd2wwPH/PbWSKTPE78QytsM9M8lA5LxrTqFeZCnUUyWLVkwYLxtHDs8H5OJlA194plR56838/bi4e+lZ2zz1d9m6IjAdfEaqyo4U6qlUSS6FeomTQr2yq7IL9Wjk3hJoKGcH19qtxauHh0BI30Cjm3A/V8AwoJ0dKCMa1GMfFlQtXTvGNPqBa9sjfGGetrSVgU1uWK4re+yRrKh96jFYBXnap+/u3w4xgizivCjTlRsyAnN510rXiU9It4n/ybfN9Pk/mPIrLNTDtm5fZdIQUIt+/rzbp2wAOH8G8gO1sKJAvV70qxjM61X7tLuk3zQg5e7lm7blDSpSklCvy4RHDeTBQ4vj3RQcXAXPNqDebgB0Z+jaHTzzvUBewBGhr3nAb60Bwbtk+Oza5rfw21csVlyoh1kQN3ZhA/ObEeZtryGUBynz+mi0eb1avn6iKY8B02uYfXjVY+IzgX0VfJ7FhXp+YtAcC+MKgnpcn/0y8voRdMXIytwTjG5rZa9jxAAwCvX8pVBPlSwaWvn1EvHSszazQT3Zvr50eKdt35wpmzJ+l12ZaWEwLp42v9MVkrvDv66kSl0p1FOpklwK9RInhXplV2UZ6mGAGAa86DX5eWNAJOtNt9vukJ6TnzHLO417IDDvLmc/7r688wWleW13nu4T/yM9JgEr3Py7l/tZNKiXZ+6+XAvP03PysyY8MO9cw/N0CJQR8Mmbv9fk5wy0cNPzzFte3uV2PnI6YcuUP1DOTfffhjct2ryd9lpeXiDN7rLw29ZuiwfUyzN3H979FXVZ0awwUC/P/PYbnpZ3zz1grpduE58MpYfn9bPdeXpMetpcD3nh7O6y6FZUqBd+HF7Lf4+ET7vr757vPvEpc23ZUGJrlAmDguxex67n3UbhTKGeSlVyog7FgBZb0sf4Arl42JZx6bK4b2/ZlZM8dfUVK1b43nvL096XXZn+MC5eNr/dWZK7Y0Nwj6qyIoV6ZVy89Hv27Gls9uzZwdQ82XTMlZvuVn7c9ClTpgRTRXbu3Bm2zFWk9EGDBoXSx44dG0wV2bZtWyi9Rw9GRtwt5u0yV6NHjw6lU2GzomJm02Pd1sSJE0PpbNfKPa7u3QlV2y3m7TLyWU2bNi2UHrG8evWSqoH700I9d1tbtmwJriEyZsyYUHp6OqNQ7pZNj3aOmzfvHi2J8rbpw4YNC6bmyaZH25Z7XJMmTQqlc625sumYq16Bc7bpO3bs9k6YOXOm7zpUGPzSkZuek7P76/7ChQtD6X379g2m4nWTG7ZONQfquWW/3vkimJ2dHUpPdgCkil1lHeqlmhUM9dRKyuIH9ZLHCg/1ktuKDvVKvynUU6lKTju2bJZ5v/8W9wEywmzieBlWuZLkOG2sZNARRxwhDz74oKxcuTJUl5zb8WrJXTLcwLeSspVDqwXKYk1gb9omKUtSqFfG9fDDD8sdd9xhrE2bNsHUPNl0zJWb7oKSf//736H0+vXrB1PFACObTh5XNh1z9dxzz4XSP/roo2CqyOrVqyOuEyn93XffDaVXrVo1mCrmIWvTb7vttmBqnm6//fbQMlffffddKL169erBVJF169aF0m+99dZgap7Ytl22dm1eP0wIYGDT69WrF0zNg402/Y5Aeb0euD9fC0I9tm2XcfxW77//fii9du3awdQ82XTOyZV7XIApqw8//DCUXrly5WBqnu68887QMhd2uL/98uV5oWXo22+/DaU/9hjhXbvXibStu+++O5TuwrPff/89lO6uQwU80rbcdBeoAuhs+gMPPBBaB6DqrkPZY0A9t7zmzCFMKk/Dhw836/AcjQWsqEqHFOqllinUS5wp1Et+U6inUE+lKgltC9TjV/TqLlvHj/UHcnGywS8+l3T96g0ZMkQOPPBA0z64/vrrTXt47p8nl1h/etY2TvpJdm6mXZfc9VdVfKVQT6VSqeIggKAqdaRQL7VMoV7iTKFe8ptCPYV6KlVxhNMFkT4DBgyQX3/9Vb7//nt56aWX5Larr5al3buUONTr9vgjcvZpp8m5556bVLb33nsbqGct7ecDSxzqbc5oIuNGD5CcJApHVpW8FOqpVCqVSuWRQr3UMoV6iTOFeslvCvUU6qlUxRXd53CPuBDr4P3Kydw2rUsc6nV8+AE5JLDvWbNmJU29rU6dOrL//vuHlcfAb/aWnEVDfWFcvGz9+O/ktBMPkw0bSsfgIar4KCmhHiGhrtcLxJ8b9LfffgumxEe8vN2QvFjEcfDlIVW8co4//vjglEqlUqmsFOqllinUS5wp1Et+U6inUE+liofq1q1r6iQWYu23994y6ftvZOvYNF8YFw/bPmmCjHr/bSm/Xzm57777TNir2z1UIrR06VI58sgjQ+Vg7c93/yE7F5Zsn3rL+j8n69dkS61atUrN80pVfCUl1MNV1XaQz8vVHt/hhx8eNqAAuvjii+WSSy4xxvTcuXNN/r322it0A9lpr0jr2LGjjBw50nRy/80338gTTzwhp59+uuyzzz5y5plnBnPuFoCR9b766qt8huuxn+gXzB2IIJnEeapUquLrqquuigmsqEqHFOqllinUS5wp1Et+U6inUE+lKo7oX/qwww6TQw89NKwNjvV65j+yOW20L5CLh60Z2E9WZ0yViy+8UB555BGpUqWK/Pnnnwl1wGHfmZmZFrSE7OHr/yGb5g7yhXHxslnNj5Xc7evl5ptvNn2+q8qGkgrqcQPgOcfDgL+8WC3xB9Yx4MFpp51mpm1H9QwZ3aRJE3OjML1gwQI5++yzzbIKFSpI7969zbT3HCdMmGDSGGzgggsukGuvvVYuv/xyOeWUU2T69OnBXOFiW6zz+OOPy6OPPhoyYuZJdwdBsALoscy7/2SRQj2VKj7iuaVQL3WkUC+1TKFe4kyhXvKbQj2FeipVUbRq1SoDE6iL4B03fvx4KV++fFhfct/ccoNsHDPKF8jFwyZ8+rHkBq7zMWPGGJBFe/yXX36Rjz/+OKHXf82aNeWggw6SE044IQQ699/3H7Kw7yuya+loXyBXXNuVOVaW9q8guTs3m3NnMMBNmzYFj0iVykoqqPfMM8+EHgAYI1Ty97zzzjPQ7dhjjzXeekzfe++9wbXE0Hh7DkA9hpD+4osv5JxzzpGKFSuaabvcipts4MCBwbk8MX/LLbcE58KFFw7bqFatmpQrV04mT55s0hn1k3Q/oIeAfnbkm2Rs8Ddr1iw4pVKpiiOFeqklhXqpZQr1EmcK9ZLfFOop1FOpCiPuA5xhiHKz0XVWtH2Be//9739Nu/3+226TmU3+J1vHpftCueIYffWNfKeG5GzbZuprMIPrrrvORMjRrn/yyScTcs9y7xEJCOi84oorDOQEutBWmNLkcMlZXDL96i0f+KzkbCVyMK/uSggukYTJXpdVFV9JBfWsbPgt4I5jS0tLM+nVq1c34bFeeaEejbFOnToZ+Fe1alUTYuue44cffmjmvfH20aDesGHDglMiCxcuNOtjZ511VjDVX9y8bdu2lUMOOUSOO+64YKpKFbuqBK6hyly/+kDe46oWKPuqPCticOH/4IMPFOqlkBTqpZYp1EucKdRLflOop1BPlXzakbNdRs79W5oN/0Z+GfSxdB7fVLLWLQhco4ntL+6pp54yHnFbtmwJpuwWbesbbrjBhMCy/M0335S3335bej7+SImE4M5v+ptszlwaaiPhzMO+7X3K3xtvvHGPdoNFBB996lF/JGKPkYApg40bNxpOsX3jEtkw8UfZlTnGF8wV3cbLnDYnSO6ODcEjyRNRjhs2hKepUk9JC/UIxaWhctlll5mLkRBZDpZRZJju3LmzyWvhmjU3/JYwWV5qyJ7jiBEjzPTBBx9sHjyu9e/f3zyk3DTEDUmnm5UqVQrtB+DYqFEj0/BjnlDfNm3ayOLFi806aPbs2aH94gJsp1WqwqjqXntJFa4dhXp7XG8Fyr5aoOxjgXqq1JJCvdQyhXqJM4V6yW8K9RTqqZJDazatkEaDa8v/hn4hg2f3lWnLpsn05damy7jF6fLXxBbyda/KMnRWT8ndtecAX8uWLU0bPFo4J8Bv+fLlcuKJJ4bl27ltm4z/5EPZkj7GF84VxbaMTZMxH9WSnO27B71k3x06dDBRe0A0lJWVZfrJL+kwVJ4dRx99tCxatChUd2RAynr16pkuwtz65PwuV0nukhEeKFc8W/jXtbJzy4rA1sPrrTgX0e2Y5Rqq1FTSQT0ueLzbMG4KBr/o16+fCW994403zAuKaTtqLS+r1q1bG2DG9Lx588w06/PXNQSgIx83O/vy5vHa/PnzpUuXLgY0fvTRR6YPPtYjPp79Il7wffr0MSPusI4VnnkM4IG40VnGcN/JJAYIibcyejwm03pWSJjN6FMxeCTRldH9Yd/195Sx/1hUGKjnt589aVO63Bc4ioKPc9aAV33X31OW0ePRwFEUfJyJhnqjbzxORl2+d0JNdpVN78PUhXp3BgywV7ZsN9TzX65WcvZnmoVGQBT/PKXNdkO91Din3dDVf3kq259jblOop0q4qGvU6/eu9J/eTaZmTZFpyzIKNPJ926eaZCxNl9wSrKtlZGQYZxja2NHqRDjk1KhRwzi1UDfxDlSRPWqEZP3VUbaOj0MY7sTx0u8/FSTHcz/aNjrXP1F2FmRxLMccc0wI9MVb7JfRbt3uuPr27Wu666L7MK+nHPln/PEvyV08zBfQFdbWpn8mGxf3DVTZ87dX2BewEQaiSl0lFdTjZcnADRyPvemAesSkE45LKC0ecUy7L103/NYVnnrANj8B9bzEetCgQRHDbxs2bBhmeAy+9957YWl8wbDiBuKYOJ99993XGPOMrJtMKomBMqb1elxy141JiG1c2k1m/v1s8Eiia1rPR2X7mhG+2ylxWz82sP/HgkcSXYWCepR9YNu++yxh275ykEzt9mDgKAo+ztkDK0nOmpG+29kTRjnFcpyFgXpjx4419308lXZLoCLw/D9k26uJsVFXct0p1EtmFRbqNQ403sukDT4jcP6n+S9TK3FLtbLnXkqlcyrr98Zvgy9UqKdKmFZtXCY/9f9ApmRN9IV3BVn/md2l9eh6Jlw3ngJQ0W5t1apVPkDnJ7zzCHNlBFq/0Fw05eefZHG7NsXrX2/8WBn84rOyY6N/SCntc+5TIv1ciMc5APwY3COeYoRZgKF3pFnKDs/Bb7/9NuSM5Cp351aZ1+48yVk83BfUxWrr0j+X7FFvya6cyM+madOmSdOmTfV5kMJKKqhnO9q0feohoB7H57Wff/7ZLEcW6hH+WrlyZTnppJOMMfrOUUcdFZrHy87KD+pF61Pvhx9+kDp16hj7/PPPzf7sPEasPANzWDVv3tzkYZ/WGO6btGRyfy0pqCcbAg+aBNjmrF6Fgno7143x3U6J28bAi7uEoB7b9t1nCduO1cMKBfV2rUvz3c6esJKAengHxwJWCiOg3qYX/yE7KiXGFOqlHtRbvXG2rNgwtcxZRmYb+XP0zbJ8/WTf5WolZ9nrxkmz4ZfJsvWTfJeXRhs2i/6tHg1cT6lxTs1HXCFZ68b6Lkt1y1qbLk2HXKZQT5UQrdu8Wn4fWVemZk/2BXax2oSl46TR0M9kZ074oBVFEffANddcI6+//nrM13uPHj1k3Lhxpo1Ln/aRoB5a2LuXTPjkoyKF4m4YMUwG/PdJ2bk5cigt8O61116TiRMnytChQ/O1u2ECy5Yti0v9DpDH4BxeD8A//vjD9MF/zz33RO3PLzdnq8z841DZMb+vSNbYMFhXsE2QxX9dI2tnNQ9U1Qv+3QGaXvCoSh0lbZ96LtSLNlBGjRo1jLsr53D33Xebm3TKlCnG7rzzTtPvnZ2320SFhXpWPAAOO+wwueuuu4IpeWKUH0YBsqJBSDiuK9blOBnVN1nEDR5vKdSLwRTqKdSLQQr1EieFeqllCvUSZwr1kt8U6inUU+15bd2xRX4ZVFumZE3yBXWFtQlLxkrHsY1kp08IZqyqEWhX33777YXqf456Em1gQB6huvRfX5ADy45A3sGvvCALWzYzI9j6ATzXNowcLsPfeFXmdGgnuTHUyRmgEtBGV1h+IbcM5jF9+vRi1duJ0KGsvNAOqHjhhRea/Z5yyim++/dqefqHsrDz1bJj/t9SMNybKGvTP5U5rU+RnK1rglsoWDy7atasWWqeYarCqVRAPTzhaLg8+OCDpoNOpjHEcNn0e2dvSh4s1gjVpQ87N83KQj3S+ItFGijDChiHZxt53G0hSPxLL71kpnHrpUz9Ytfx5qPxn8pSqBeDFQLqZfTubSwWKdSLzWKFerbsY3npK9TLE18BeU67ZcE0z1P6WeF5ft111xlPatvYcJ/DBZlXXqA1Y8YMU5kr7m+hUC+1TKFe4kyhXvKbQj2Feqo9rx//fjtuQM9at0mtZP1W+nUrXN2FPtYZ1GHJkiWFrvfcf//9JsyU9a666qpCjTS7KTtLhlauJMMqvSxzGjWUjSOGGchHeO7KHl1l3IfvS7+nn5B5XTqHDYhRkMaMGSNTp041oLFWrVq+4a9000W//X51y4KEZ+LLL7/s+zzAwxEWgMMPferFWh/dlbNdVk36Vma1OEyW9LxTNmU0lV1LR4tkpkvOgkGyamQNmdfuDJnb4VzZtnZGoevniNBoHQk3NZVUUA/izbHQ/5y9AS666CLzgMALzzWvF5zVgQceGNFOPfXUYK7dUK9x48am8eZnl156qcn7+++/m+PCQw+qb8XAGaRjNKrUpTVPhYF69b+tacpv87Lhvsux/9WvJbLRf5nXSgrqrVo0yBxnrZrP51u2fU2a/PHrJ1K71qsysMev+Zb7WiGgXmFUGKg37O+m5pxmT+qSb9mSWX2kwXfvSNOfP5Ls+f3zLfezkoJ6lC/A7Jmn7pdd68f65sH4bTZkDfNd5rVYoV6iVVo99fgYQ6e8PMdXr15tPtTQFQIhGU8//bS0a9curNL46aefGo9rRi6PZPRNcvjhh4dVjuhv9dBDDzXL7LPYa7ECL694ByjUSx1TqJc4U6iX/KZQT6Geas9q/qqZMnrBMMlYNtUXzhXH6vSuEnP/ejjGULfCu64odaU1a9bI888/H4JmOL5EC70tSBsWLpDs0aNk5cQJsqMYo9VyLtaL7rbbbovYRn/rrbekffv2MfUZaEWXXF9++aXvvcV+iSqkDC677LJiAbScbWtk4+K/Zf38zrJlZaBtF6eRjs866ywFeymopPTUc8UQ0IW50WLVrFmzCtVYc/vjs+LG5aYozBeJsqDCQD3b8L71xst9l7drUccsly2xgaqSgnp333GdOY7yB+wflr5p1SjZe++9ZP/9y8nDD9xq8hx79L/C8vhaEkC9gw46wBzviSccI7vW707/s1lemZ9y0nFy0QVnmOmGP74ftq6flRTUe6faM+YYsEhQ7+nH7zHLl87s7bvca8kA9b755psCn0GlOfyW0AM884B6Bx10UNTKIlCPvkqjlQcNKT7GuNvBIy89Pd105kzFEuPL6QcffGD2a9OKIoV6qWUK9RJnCvWS3xTqKdRT7Vl936d63L30rA2d01cWrZodtf6CY8vVV18tTZo0KVY7++STTw6Fl3LNLV68OGnqTXSVRRsdu+OOOyK21xkI5MMPP/T15vOKqDzqXZHKDGckC8zwiktGRsC4BDNnzoyp3qgqPUp6qKcqWeFBE2/FCvVWLhhgQEytmi+Yv+6yOZO7mDRriYR6uzaON8cwe2LeMW1cOSq0rPKrT8o++wTKMDi/ITtvMJT1WUNDab6WYKi3bfUY2Wuvf0jrJp+Z481xoN5++5WTV55/JDR/xy1XyaGHHhzVSw4rCajHPoGmf/7xlfHW27g8v0fn1PQO5jrmPBIJ9QpbiWGAH84Jb+FIL9ZU6FOPEAT7+3jN9tniQr1ff/3V9IVqjXkaUV6ox8BDbNd+cIm0j6JWWhTqpZYp1EucKdRLflOop1BPtee0adsG6ZPRSTKyp/hCuXhY0+F1fAfNAOY9/PDD5too7rVMt1RcZzZ89cwzz0wqiAW4IgSXe7pKlSqmPhqpTjdgwAC59957I3oZsh6ef6NHj474jCAEGS8+7jn66V+0aFHS1iEZGdivmzBV6ZVCvTKuRI5+e+dt18i/DvunbFk1yjS+J4xsG1qWuy5d1mUNNWauzwRCvSmj2plj2BWYBsI89/QDoWU3X3+ZPHjvzaH5nMBxk3fe1O6hNF9LMNR77cVHA5XT/QLnP9bAvc6tvw8t++DtF2XZvL9D81ddfp4c8a9DEwL1ls3925T5rq0T5dB/HiSnnHxs+HFsnmBgTsakLiZfIqEe+y8sQGIdrheMioD35V8aod4bb7xhBinCqOhRqTn44IOlb9++ofPjCydptrxcqMfv2axZMwM927Zta8oIbzsX6vE1lWcXyyzUY95b/myrsL+JlUK91DKFeokzhXrJbwr1FOqVpLKzs2Xw4MFRyxbvJr/37QMPPBCTB9Xbb7+ddL8NEQMWeLnqP62jTMkMtAN8YFy87OeBH8t2Twjut99+azzJOK7iit+SQSgsxKPsGXE2lt9qT4quYKwn4ZVXXhkVOs6bNy/k3ecV5cbySHVC0u3gGIiySeYQ1yFDhph+B/2uT1XplEK9Mi4avfFWLFAPMMN1N2v8X2b+gP33k/POOTVfPsxcnwmEegeWP0Aevv9WM/1B0KvQD3Dt2jhOzjjtRAMaZNOEfMvDLIFQb9eGsbLvvntLy98+N/MnnXCMHHxQecn1nNNZZ55izhXbtHxk2DI/Kwmod8rJx8mpAaO8G9WrFSjbf0ju5t1le/xxR8lTFe6SXYHyptxLG9SbMCHvuG05YwwkYbdTGqHenDlzZNq0aaYfU+Ad4bEnnXSSGQEM+MQgSPSDV79+/VDlyAv13K+HzHuhXtOmTQ0EBQy6UM/bjyrlWdjfxEqhXmqZQr3EmUK95DeFegr1SlILFy6UDh06mHe5+07lXW/DGPkgSJdLLMdbyoIVuu8gnx9owdvfelaxHdYFKlmzigQM94Toj51+4N0RUH8ZHL8RbyNZ54nNZeuOvDJj0EjgVlZWVtzKga5O3H7q/vjjD1MfS1Q5RxKDeNioEPrIX7BgQdRj5Jzo49nWQ4Fe1D0L6jefAUY6depkrkOuVfrqS/ZnxQknnKDjAaSQSgXU+89//mOGyLaiIUwnlAWJsLZY5XVB5eGEtwhiFJuJEyeaaT8xYpAdrbe0qTidmUZSLFBvQI//mQZ357Y/BKyu3H7LVWY+xweWmeszQVBv26rRZv8Nf3jXHGfTRrXNvHdwiZ6dGxj4UK7cvrJi4cCwZb6WQKg3P6O7gWN/tf/RnFPtWq/klX2gYuvmG9K7sfxc913Zd5+95Z+HHGRgoLvca3GHepvzgBcDYHCcHVt/Z+b7dGlolv/64/vmPAxg3TzRLCsM1BsyZKgMHRrdhgTNb5nX2D9fov2WRbNy5cqZ8neNbfFFNe3m0ht+CxSjcvP++++HgF2lSpVC5+s2nAoL9eyXRfrUc6HesmXLTKMAIwyCdRXq7ZZCPYV6iTCFeslvCvUU6pWkgHp8zPvss88MpAN6HHvssfLTTz+Z9zrAi1HxGaWUj3YPPvigAWG9e/eW/fff33hPMUgifZ/Z93/Xrl1N+4w2IrCGARrYTvXq1U2oJYMush9gFvUL6gsW7uxJ2XOg3lOxYkXze/zwd80Sh3oDZvWQOQtmyoknnih9+vSJq0cW94g7OAZiQLNElG9B4rz5iGzvAzzoXMDqJ/IyEjDAiw/ShO0WJICK9cyjTktfz8lef6Se/MUXXySdd6WqaCoVUI9OOHnRWhHGxcMjmhhl8YorrjDTnJ+f2QccZJ15PEysfvzxR6lbt66ZZtQcRlm0gsa726EQAY1MM4IQ8xgNSr6OlDXFAvUOOvAAKRd44f7znweFjPIb0ue3fHlJTxTU+/jdl83+vcd51eXnm+WE5OItRlqHlt+ErRvVCgH1qu61l1ShDGJ4OcQC9c47+xTZd5998p3T5x+8ZsKeJ49ua/7a/JuXjzCQaUPgr7sdr8Ub6jX/7XOzX/c4mT/t1BMMyGOa4/banbde4+tJ6dr03k/IMcccU6BVC2wPOyZQKfRbHg+LdB6AmqHXlC/1UI9RbwlZQAycwXOR83MrVV6o5y0LL9Sz8kI9Qh9cY12FerulUE+hXiJMoV7ym0I9hXolKaBemzZtTLurWrVqJvyTj3d0sYFXPe9xPPVIK1++fJjDgZ0HmBDeac+nZcuWBgyOGzfObJcuPyxUOv/88027je4/KleubNqNgL7CDpLo6qmnnjJgkgiBwppbn6HO90a9CjK5hMNvh875Wy6/9mLZtDn+oI26mAvwqOsR/pwM15qf3BBcrheAMMccTVxz/HaxeLLhBORes0SnFAQOk0VXXXWVeuuliJIa6kGOZ8yYYRq+DDcNKX/vvffkoYceMg9WprHMzMzgGnniSxANQyteEn7mPtjT0tLMw5abkhcDwz1jjJaD6zRx+Exb0fEmDwW+ulixvvslhJeKQr38tm3NGFNWM8Z3Dks/7ZTj5fDD/xmWhpnrM0FQD/D40P27+8zDvvzkjcBL+R+SG5iu+3V184LeEagMu3kKtERBvY3jzfHiWeim33rTFeae2RX0eJs0ql1o2czA70Qa/e+563gt3lDv6KP+Jeeec2oYoJsyup05lu1r0mRI/z9k6IBmeTaohUnv9GddmTquY9h2/MyUUwzH+VZgm0C9nAJe/kUVL1KOm2vcGs+7/v37m+WleaAMoBgwjuuKRhIji3GudFwMiOIrOl8ykQv1/J7VKBaoV69ePfNFFuPDDPtTqLdbiYZ667fNkuXr/ZeVtJV2qEfZ+aWXBlOoVzRbs3WGrN48XVZuzPBdHk9LJNRbt22mMb9le8IU6pW8gHoMegVIIdKK9zof3vCqf+aZZ0xdwUI9PPloiwFFCNmlzO28C/Vog+GJByy85ZZb5KabbjKgCc+jr776ykRQLV261MyzfWBOIn47Ir94R+OtRwQZZfDj32+XuKde/5nd5J//OsS0aT/55JO4RZTRrh00aFBYe7dGjRqmjJNVDRo0MMdn63NnnHFGVOgGDKbdT55LLrkkal96lMOll14agpxckwDn0hLBx73FcyIZvSxVhVNSQz2AntvYBdbRWMPdmgPHbZt0NzSWG4s0HvrcVPPnzw8uKVjciIiXAA9AGqFMX3/99dKlSxcz7Qp3Zi/U45hptGI8NJId6uGGHG8VBPU+fPvFQGM7b+AJN713p7zfc/vqcNBGWiKg3uplI8y+d+2YGr5s6yST3r9HIwMhmT7mqCPCbOG0nuHreC1BUK9Fk8/N8eZuHB+WzgiyewXSs+f1kwvPO93kefT/bpcnHrvLTN9w7cWyyxkh18/iCfU2mdF595LViwaFpVvo2Kh+rbD0ooTfJgPUo98OytcafX24Kq1Qr3nz5ub3oM+VL7/80gyfT9itW8nhWc5oY8iFepEUC9Tj48zYsWNDZoFiUaRQL742a+GIwG+0tyxblxioVpqh3tqtMw0Ez1oz0Xd5sptCvcLb+x9VMc803gs8S9Mm9Qrsa4pv3nhYoqDev444PPT+O+ywf8rSVeN985WkKdQreQH18LjDWeKcc84x7S3mGS0VaEKoLXUFRuSkSyPaJrzXcNrAk88P6tG+Ij/RXHzEu/XWW82AHGyXNiL1BfbDNIMc8NslAlwAKfktXAjWeNiXMiVrsi+Mi5d1GN9UrrrmSnnyySdNuXAcfDAuap0IUR+ibWvby1Z4TCYzFOKefeSRR8x1hLiuGIzND7zBFK655prQOXLORAdyDfvVB+kqx+2rkDDyZB4gw0/U1ZMZyqpiU1JDPato4bccuwv1XnrpJfMXLz+WzZ071wxB7WfW8w4iz82KWfFlhwYd8obfsk08BXnhUOlimq9NfH3i4ena+PHjg2slpzj+eKsgqPfNV9Wl2W+f5UvfGahY1f7odZk5IW/wDGMbx5k0PMzcvJEsnlCvZ6cG8lntN32XffrJm9KwXi1zbH62dslg3/VCliCo1+DH96Te9+/4LuO4B/QMXPOB6Y/efUnOOfNkufWmK6VV0y/y5fWzeEK9aeM6muPxW/bDt2/nXxa4Pj4NpG3MHhaeHsFKAurRn0thKkuEn9BY4/kR6TlRGqEez2OeK1TwCEEg7OHjjz82z1O+WLdo0cL8bdSokanEUxEC6lEWPLOjGd0buGUM1Fu8eLF59rL+Y489JhUqVDDGNGmPP/54kRphCvXiYxOm95OXX3s69Psq1CucvV3r9UAj9QBTdgr1ksdKEuotWpYu5fYrJ3/1/N2AvGdeqGCeqUtXTfDNHw9LBNS7+trLpPyBB0jW6omSvXayHFB+f/OsyFqzZ68ThXqqklIk0DV0VneZtHS8L4yLl9UfUEuWZC6Wiy++OASdhg0bZrpEmTJlSpHgHs4uAEK3XsS8HSAimQVLcL3zgMleb71u3bqZAS78+pijXsmHaBfOAgXp7sv9nQvyAkxW0WVZaTxu1W6VGqg3evRo8xD65ptvpHXr1sadGHHsfoNY8OK1Q2v36NEjZMS988WbaetFR8OTEWDYFmSehx99J9CgYxpPPRpOTLvC84QONBHUn+Pw2qRJk8zyZFUioF5JWrzDb0vMEgT1StLiPlBGCVpJQD2gRWEqSXyhLuj5UBqhHiEu1gMP8dz85Zdf5M033zQfXV555RX573//awzvayqHfDGli4VoAI2yZR03D6HKdPRLRTWSMRhJUSqvCvXiY527N5Xrb7xSLrnsfHOPKNSL3QA6N958tSk/yk6hXvJYSUK9Dz7J89KzEI8Q3P32KyeLlpUcdEsE1Nt///3klyZ1Qs+Emu+/ZurVS1buWW89hXqqPa0dO7dJ10ktZWr2FF8gV3ybJi1H15OduTtMXfOCCy4IealRp8FxhbZ1YT3KcIix27EifNrruZeMIpIDpxx7fwPkGOzD3s8NGzaUDz74IOqgEXAFPkxbDz+6A3NBGO1+dx+lSdR36fe6NB67Kk9JD/UIY6VPO46xdu3axm2b6XfeeccsZ5pBKqzoj8GOrujnSsogF/Rr4BVfGFinc+fOoRBe3LWZpqNMXMaZppGIuOipdOEizlcQvlLce++9xlj33//+d2g+mUUIc7ylUC8GU6hX5qFeLCrNfeqVdinUi6+NHNvNhEMr1Cu8rds6Q8Nvk8xKEuqdcOJxcv+Dd4R5rB1wwP7SpmPDwP1TMiG4exrqrQ1c00C9KbMGBsowL23kuG4GXi5eMS5f/pI0hXqqRKgkR8DtldFRVm7MCtRyd0mlSpVMW4+IEPfapm7zwgsvGA+0aCDLij4QvUAP0QYuDVAPASXdY+XciZrhY3P37t1j8jbEsYg+G4nQY3AQt+zw2ivN3m6M+Gv7sVaVPiU11KNjS/pGANKNGDEimJo3bDbHDFVnGZ4hVixjOHT6DvCDevSLFw3qIR50TNvGnDf8FrFfOmfFc4QHHV6EVqzLQ6KsSqFeDFYIqLcr8BLGYpFCvdgsVqhnyz4WsFOrVi2FeikkhXrxNYV6RTeFeslnJQn1AFsvvPyUZK/dve0DDzxAan9R3YSpunnjZXsa6jEICFCPUGObNm3ukDyPxOUK9eIhhXrJrRUbsmTIrL6SkR249n3AXHGsbt8asiMn73enPQqIsn0MegWoY2BHIuH8+phDkydPNnUNL/RiNOEhQ4aEhaQWVdS1N69cKQt795KM//0qM1s0kxUTxsv2OEIy+l10oRvnS9/WnF9h6u8DBw40Xee4AIz16e7FD3wWRTu3rZWNi/vI8jHvStawSrJ6Sn3Zvn5+idbJGYeAiEZ9ZpROlbo+9bhpOF4eTDRkzj33XAP8eHm5Dxu864oK9fDQu//++8008kI9CD1hX3TmCtRDuDCzvtcYQr2sSaFeDFYIqFcYKdSLzWKFeomWQr3ESaFefE2hXtFNoV7yWUlCvTPPOkUefPjfYZ56+x+wn3Tt3Sywv9Tw1FuzZbqBehlzBofSRk/oaaCeeurFRwr1kl8NB38skzMD7QEfMFdUazm6gWzaFh5We/rpp5v+4+m/OBK4Y4RXBh5hMA0vpKOLKj8gSHu5OANkUL/KGjlcBj5fUSZ99oks6/aXbJ88UXZMmWRs06jhMu+3/8mwV1+S8XW+ks3Ll7NScO3Ci8Esibiz53fVVVeZENxly5YVqq4HBCR68MYbbwyVC5F+QLHCwEGvtm9cKIv/flTmtT9PVo96X3YuGiCybErAphrbnPGHZPV9SGa3OFbWz20bqJ4X7FlYWBERqYNmlE6VOqhHv0t8bUDcgLgO0x8TYbDcrFaFhXq4JVMOxJN7y8ML9dgGENCFeoiHBMb6uOUyXZybe0+IQUfiLYV6MZhCPYV6MUihXuKkUC++plCv6KZQL/msJKHem1Wfl33L7StLQ33qTTOwqyQHkNjTUG/lxgwD9Zo0rxt6Jnz02Vty9LFHhc57T5lCPVWilJubI9/1eStuYbiDZ/WWkXP6Su6ucCjH4A/r1q2TBx98sMDrd9CgQXLiiSea/oqp/9DPHG1ab12IebqaKur9sG7uHBnw7H9kTf+/Zdv4sbJtwriotnVcusyo972M+bCW5BTjmsYpB0ccztGeFzCzMGGzdtCNtWvXGmDKNF2FFWfU24Vdr5dVI96S3CUjRbICbZWoNl62zekus1scLVtWTY1rPR12ArAsLc851W4lNdTjRgOMcQPyouVrAMdKJ5RWDKBx9dVX5wNxXqjHtjBchb1Qj9ETWb9+/frmL51psi8uaGLlWc6Nikute5G7UI/js8Y2evfuHZpPZulAGQr14mVlHepNmzbNPGPiKYV6iZNCvfiaQr2im0K95LOShHqZqyYYiNezX0szffoZJ8sBB+xXorArEQNlnH/h2YHz3FcWZKdJxtzB5pzrfP9+iYUYRzKFeqpEatvOrfLTwA+KDfZGzB0k3SY1kxwf7y2u6erVq5s2LRFusYSIAgIZIfaGG27wveb79etn+qkvSh1p0o/fy/ymvxlQ5wfwotnW8WNl4LNPy9Y1Revm6tlnn5VDDjnEADmrrl27mra/9eCLJqDn8OHDQ3m5v4499lj56KOPinSvbd+cKXPanCC5i4f5wLuCbcXwqpI9orLs2hmfsF/Ec8MtH1XpUFJDPb4ScGwYNwoUnOG0XfGgAkwdfvjhwZQ8efvUYzRbu63rrrsumJonbm47WiN949Hp54EHHhjK71rdunVNPkSnmmwXXXPNNREtmVVSUG9W/+cTYjP/fqZQUG9W/+fybWNPWUlBPb997RHr92yhoN6sfgks+14VAkcRX1hTUgNlpF/7Dxl7XWJMoZ5CvXjZiPSuCvWKaAr1ks9KEuphb7//eqB+tneo7pkxZ5BvvnhZIqAeocRHH3Nk6BwvvuQ8yVq9Z730MIV6qkRry/ZN8nWvyjJx6ThfYFeQdRrfVPpMbesL9KyIaCNUtFu3bjJp0qSY6gz0GX/LLbcYIOi9jlhWlNDbUe+/I6v69o7JOy+aDXvtZdlayDBRPOrwsqtatWq+wUEIMY7FW++kk07Kl++NN94wYwDALQqjnVtXycIuN0nOkhG+wC5W2zKtuSzq+W/J3Vn0UGhXhGhff/31MZWHKnlUKsJvVSUnOvqMt3ZsXS07t61JqMWiHT7r7UmjnOItv/3sSYv1nHZsW+e7/p60eKskoN72VdkJt7IqhXqpZaUZ6pV2U6hXNKPfuXXbZvoui7clAupZWxs4R0bD9Vu2J0yhnipZ1HHs/+T34d/JlBj72UtbOFK+6vWGrN2yKrB29LoKdQXrWWcBXzTRb1yTJk1Md1PkPeWUU0x3V8yzDTzeYhk119XMVs1l/dDBvpCuKDbkxWdlZ4wDUzBgyBVXXGHOhfP3Aiu68GIAzEh9DqLPP//cbMetFzLNIJ1sD9CZnZ0dU71xV852mdv29CJ76Hlt2+yOsnLiV4HtFu43iaQ6deoUu49A1Z6VQj2VKsnV6rnnjKn2vFo//7y0DpR9rjMITyQR1q8vv9SRQr3UMoV6iTOFeslviYR6iTaFeqpkEv3sdZ3YXOr2e1s6Tfhdxi0abQbTmJw1SSYtnSCDZvaSxkO/lB/+flvmr5wRcx2FcNEnn3zSgLisrCz5+OOPI14bbJNRYb3gLyMjQ44//ngzUq7tcy9WbVu3TqbX/0G2jE3zBXRFteFVXpecAuAiobV33313KOy4Q4cOpgy8x08YbaR+8YCZV155ZT7vRLro4l6zsJOQ5fT09ALrZHPbnym5i4f7ArqiWla/x2XHhiX8gMG9FF2cC30NuiP8qpJbCvVUqiRX1b32kirco3F4SKsKp7cCZV8tUPY5MUA9VWpJoV5qmUK9xJlCveQ3hXoK9VTJqaVr58vIuX/L4JldZcrSMbJ9Z9E9sS644IIQ2KJvPQbP8FOjRo1k4cKFEes/RHnR3z1ea7Gq39NPyOYxo3zBXHEss2M7WTdntuyKcN8OHTpUXn311bD7Fm+81157Ld+9jLcdHmp+9wxA1Oulh4CFXtBXoUIFM8Cm20efu68tK8bK5mnNZFdmmi+cK7qNl9ktD5fcHfEBcXRNRh+CAEtV8kuhnkqV5FKolzgp1Cu7UqiXWqZQL3GmUC/5TaGeQj1V6gvQNGHCBHONA5wuv/zyfINmkH7zzTdHHEwD8EUYKtdV5cqV5a677soHtb7//vuwMNb18+bKyr69zSAXfmCuuDa00suSsy3/fYlH4S+//OIbUhupT8DbbrstX2gu3o2vv/56vnufcqTvfL/tfPfdd1KvXj1TTsDAr776KhSuPLPZMXELu/XauvTPZPuG+YE2Y8F1wlik3nqlRwr1yrj47Rmxh74ErOhHgTTsnXfeCabmiaHN7TJXPLxsOu7ZVsTj2/T33nsvmJonBj2xy9yvGe62xo0LPKSCYiQem16rVq1gap7cbblfFHiI2vTBgwcHU/Nk0zFXbrpbufvkk09C6XQ0a8VD3l3HVaT0H3/8MZROHw5WuH3bdDsoDFAPsPTRxx+Hlrn6/fffQ+n0f2HFFzib7i0v5u0yVx07dgyls10rXlg2/f333w+m5ol5u8x1W2cEaJvepUuXYGreFzKb7j0ud1vuF8QWLVqE0lu1ahVMzRMhBKRzbboAxr1W3a+JrVu3DqU3bNgwmJonuy3Knm1ZqOdeX+5xde7cOZT+5ZdfJj0AUsUuhXqpZQr1EmcK9ZLfFOop1FOVDQGzLLBr2bJlvhFszznnnKj97XkHmeB+OfXUU81ouTadfcyaNSu03ZHv1JQt6WN8gVw8bOo3X+XrWw/POga0dNuXrkaMGCGzZ8/Od78zf9lll4WBurPOOisf6EM9evSQBQsWRHxm0L57++23Ddzj2UEbaefWtbJ+XB3ZlTkmH5CLj42XRb3ujNugGbS9AaPub65KTinUK+N6/vnnjU2cODGYIjJmzJhQesWKFYOpeXruuedCy1zVqFEjlD5+/Phgal7Hozb9mWeeCabmyd2W+0BklCWbPmzYsGCqyMqVK0PpdNDqyqZjLtRjRCKb7oI45K7jyk13j+vFF18MpQOZrHg52vQXXnghmJonm465Al7Z9J9++imYmgfibDrlg4B6VQP3qE3HXDEis03/+uuvg6l5D2Kb7i0v5u0yV02bNg2lf/vtt8HUvC9zNt37OzJvl7lfc9q3bx9Kb968eTA1b/h3yol0jsOtTLjH5YK4H374IZTeoEGDYGqe7LYoL3db7vW1YsWKYKpI/fr1Q+l8bXTX8W7LQr3nnW25xwX4tOl8sXS3pSrdUqiXWqZQL3GmUC/5TaGeQj1V2RDhoi60O+SQQ0IAizZb48aNI4ZbUh86/fTTfaHf0qVLzciygC5GkmXEdtoOrDOi6puyJW20L5CLh20YMVSWjRklu3JyzP44R5xCCqoXEY7s52VHnd72Gch50bbyu48AoH6wD9E2ZP1+/frJwQcfbJxogIirJtWVXZljfWBc/Gx2qxMld4d/34BF0XXXXRfxPFXJI4V6KlWSS8NvEycNvy27UqiXWqZQL3GmUC/5TaGeQj1V2RCQqm/fviEPNmANkSZE0TAqrB/kssLxoFOnTlH7WMNJpHz58gZiXX311bJh7VqZ07iRbI3zABlhNmmCjHirihkwg3DRRYsWxVR34/6IFGZsgR+A0m/wDDzXiGaL5MGGFyTPC8rBGiMIT2lxseQuGekL4+JlK4a8ITnb/ftLLIq4VvzCklXJJYV6KlWSq3rgpfDW/vsr1EuAagbKvkag7BXqlT0p1EstU6iXOFOol/ymUE+hnqpsiDoNHmYuzLrlllvM4Bhz5syJWud56qmnIkI/1qObonLlyoWBrD7du0tml84l1p+etYEvPCunHH+8rFmzJnhEBQtvPOCbX597zZo1k65du5oQXj+ISTTTqlWropYXUUpesDe56VGSu6Rk+tOztmHij7Jzy7LAEcSv/or3IkA42evEZVkK9VQqlUql8kihXmqZQr3EmUK95DeFegr1VGVHdK3kepgB+I444oiofemhk046KWIeYB9d3QAG09PTTRgvXdrcf+utktmjW4lDve6PPyJHBOpthLoWxvbee2856KCDfJfttddeRVrmGvlcqDfm5wNLbJAMa5szmsi3X9UK/Mbxe1bxXKSvRD+vRVVySKGeSqVSqVQeKdRLLVOolzhTqJf8plBPoZ6q7Igwyt9++y3kgXb77beb/r3p8y1SnWf69OmSlpYW9f4gHNXrqXfwfuVkfts2JQ71ulZ4RA7Yd1/Jzs4uVL2N0GM/70M89dq2bWv6Y/d66i1evNgMguHn4eeKwQu9nnqDv9tXchYP9YVx8TI89ZZnzpSzzjpTevXqFTVcujDq0KFD1IFBVImVQj2VSqVSqTxSqJdaplAvcaZQL/lNoZ5CPVXZ0qGHHmq87gBT3333nfl7/PHHR/TEu+mmmyL2P+eKAQ5dkHVQoH4ypd4PJdun3sTxMqJ6FTnpuOPkxBNPlKysrJjrbpz3e++9l69vPLdPPW9fco888kjEMGQrAOiBBx4YKgdrHWv9Q3YuKllPveWDKknO1nWmDIYMGWJG73UH+Suq2B7giL4VVcknhXoqlUqlUnmUqlBv9NxvZOScr8qc9Zv6hvwx/DIZMedL3+VqJWcjZn8qTYeeF/j7he/y0mhdx1eQVqNuDFxPqXFOTYeeL8MDv5PfslS34bNqS5MhFyvUU5UpMaIroIe6jgVUGRkZ0r59+3yeXdwTDJQQDerRPx0DbWBuyCnb7//KCyU8+u0wyR4xXJYsXiQff/yxXHnllcazMJZ6EQJmumGlr7/+eggM4pXXsGHD0H3ENm+44YYCoR5lCyg8++yzw8qj80/3yY7FY3xhXLxsTpv8o9/SH+Kbb75ZYIh1QcKbs127dgV6Kar2vBTqqVQqlUrlUapCvaEza8ngGe+WOes56Xn5fdglgel38i1TK1kbNL2GNBlyjgya8bbv8tJoHcc+IC1HXhM4p9S4npoMPU8GBn4nv2WpbgOnVVeopypzAspceumlJpzSrefQb5oX3vXv319mzpzpe2+Qdu2115pBMlgP2HXeeeeZegl84ZhjjpH+lSvJlvQxvkAuHjb1m69lZxBWXXfddcaT7MUXX5TWrVvHFHrar18/mTVrljkX7hfOx4V2l1xySWie0X1Hjx4dGj04mn7++Wf5/PPPDWjcf//9TXmMHDFI1qR/LbsySw7sLe75b8ndmR86Ui4MkkK5FAfKnX/++eqtl4RSqKdSqVQqlUcafptapuG3iTMNv01+0/BbDb9VlS0BpQgP9YaWcv3Tx557nZ9yyin5PNPIV7VqVQPRvMseffRR6dixo/EGvPrqqyV7ymRZ9XefEulXj20Ofe0lyQkeL8dSqVIlc/zff/+96QeuILBHPe++++4zUPKOO+7Idz4AsCpVqphtEpbrLTM//fjjj6afQu6/ChUqyIcffmjKm2fM9KZHl9hgGevHfiHb188NnFTk5xihwQx6UpgwZVcAvcqVK8cUjq3ac1Kop1IluSrvtZe8yT2a5HAhFVU1UPZVAmWfE6dOZlWlRwr1UssU6iXOFOolvynUU6inSj7t2LldVm7IkqlL02T8wmEyd8U0Wb9ljewK/Cuurr/+ejOQw5o1ge156jnAqCVLlph07gfvaLnUOwB9y5Yty7cu+Qk5tWGeAC3umX5PPyGbx4zyBXPFscxO7WXNrJmyy7lvn3zyyRBwYkALgJy3zzyvCKlduXKl8azzy/vYY4+Z5ffff3+BIayvvPKKdO7c2cBEjgPISDljCxculA2L/5bN05rJrsx0XzBXdBsvs1sdK7k71gePJLo4rscffzwmSOnVgw8+GBdvvQ2btsvsxWtl5JRMSZuWLUuWb5Ct27TNVRQp1FOpklwWLCnU2/N6K1D21RTqlUkp1EstU6iXOFOol/ymUE+hnio5tDNnh3RIbySfd39Vuk9uI+kLR8n0ZRkyc8UsmZw5UYbPGSCNBn8u3/Z5SxavnlukOgrA7oMPPjDXMh5qftf0kUceaeBV06ZNQ9AnMzNTDj/8cJk2bVrE/X700Uf5QnrRjk2bZEaDerIlzgNmDKvyuuT4QLgzzzwzLGT2lltuiQrjgG1HH310RMAFoKPvPcBeNF122WUyY8aM0HPktNNO893mnLanSe7i4T5gruiW1e9x2bkpK7D12K8JACYDabRq1arQIbl4dBYFCC5btVk+bDxSvmwxTvpPXCUZS7bJ/FW7ZO6KHJm0cLN0G71UqtQfIj+2HS8btujzK1Yp1FOpklwK9RInhXplVwr1UssU6iXOFOolvynUU6inSqyoa3Sb2FyajfxBJi0dL9OWZRRoQ+b0lbp9a8qGLWuDW4lN7ii3jBbrB7sAYS1atDCjvzLoA2Gnv/32W4GhrPfee2/Ee2Ra0yayftgQXzhXFBv6yguyc4s/qKtbt26onzy0dOnSqANc0GcgZRENUjEICPDPr15IGn0UusuBn506dfIts9ycrTK33dlxA3vb5vwlK8d+JLtyonskRtLIkSPNbz1v3ryY672ffvqpAb2x5t+weZuBeX3Sl8nMrJ0ye1lOVJuRuUN+6zFD/tdlimzbUXAfhmVdCvVUqiSXQr3ESaFe2ZVCvdQyhXqJM4V6yW8K9RTqqRKnHTnb5cuer8uUrIn5wF0s1nJUfRk2u6fk5BZcV+W6SE9PD13nU6dONeZ33Z9++ulyyCGHmBDNgsJXEQMoFBSaOrxaZVk3ZJAvpCuMDXnxOdmC11yEOhp1t5NPPjkM0jF98MEHy/r14eGp5AWIPPPMMxGh3qpVq6RevXpy7LHH5svD+tQZ164Nh6tAMu++XO3cukIW97hNcpaM8AV1sdqOeb1kQffrfQfHKKxq1qwpd999d9howNFEecQShjt8cqb82nWaTF+6wxfgRbedUv3nobJ+U9GAZVmRQj2VKsmlUC9xUqhXdqVQL7VMoV7iTKFe8ptCPYV6qsRo8/aN0nDgJzIla5IvsIvV+s/sJt0ntYgK9vAYY/RT7wAHN910U77rmkEugATRPO9cjR07NqZBKdCk+j/I3CaNZeu4dF9gF802p4+RIS89J5uzswtsF/Xu3VsyMjLC7mngJLCS/u2sunXrZu594BTeiH5hqK+//rrxWOzbt68MHz48NPot2zv33HPzgb5hw4bFNEru1lVTZF7bc2TnosG+wK4gWz3qPcka8ors2hm/QSsoh1tvvdUM9lHQ84My5lkT7XfvMXKe9E7Pjsk7L5p92XKcrFi7WZvDEaRQLwW1ffNmqXPhhb4WSe0DDyu//J8FLJK+8OS1NmvgwGCO/PLLj7kdnLrq+eGHvvm/DFgkfXPppb7rjGjcOJgjXDTa/fJjkSp349q29c1f5+KLgznyi2P2W6dTlSrBHPlV56KLpGrg/iwtUO/7W27xPcfeX3wRzJFfXwfO0W+dDbywfTQj8EKlXLz5vwpYpDJqeNdd+fJjf1SsGHEd9gHQU6hXNqVQL7VMoV7iTKFe8ptCPYV6qsSoTu/KMrmIHnpeGzCrp6TPHyy5u/xB0kMPPeQbfsqIr/a6Bs7hzZYdqIPjacYop8CsgupC9B0XKbTVT5uWLJIBzz4tm0aP9IV3fjb16y9kaOVKsqMQo65Sl/MCN+7xI444IpRO2C2eaZwj5+znrXfeeeeZ8yOP7SePe4t++Py88Y466qiYvd3Y5tz2F8jKYW/KrqWj84E7P9uVmSazmh8hW1dPDWyg4PpfUUTIMn0oci1E+/0py0jeenjoDc1YLTOziwf0jAW2Uet/I2WLDqThK4V6KahtgQeNhRFei6T/3X+/b/5XAxZJb3jyWpvctWswR3755cdyI3zJaPPcc775zWiwEVS9XDnfdfp++WUwR7h4UPnlxyId1/Bff/XNX22ffYI58quyX/6ANQlUuiKpWtBTrG8UKJZMejvwcvOeH9b29dcjwjM8Ef3WWRt4mfhpYocOoXJxjfKN9NKpfcop+fJj315/fcR12AdA9e/PP494HahSVwr1UssU6iXOFOolvynUU6in2vP6ZdDHMjVrii+gK6rRJ9+mbfmhFOGj77zzju/1QH9y1CUAVN27dzfeZYSSNmvWzHhg0QdfNGD3ZaB95fWIi1WL/u4jA575j2R8/42s7tdXNo8eaQbT2JI+RjaOGiFL/mwtI6q8LqM/fF92xAjJXC1evNich5/3Hf0EvvXWW2Gj+H7zzTf5oN7y5cvDvNEAn9QPr732Wt9wY/rzK0xfc1Y7t6yQhd1vlgUdLpP14+vKzoUDJXfJKNm1dIzkLB4u22Z1luUDn5dZLf4la6b/KrtyCzewRVFFmQB+gbt+oh/BP/74I9+1tWNnrvzSZZpMW7rdH9IVwWYt2ym1m47WEXJ9pFAvBbUzcFMNrl/f1yJpUpcuvvn7ByySBnryWlsxZ04wR3755ccivQim9+3rm599R9KQBg1811mQlhbMES4eun75sUjHtWTyZN/8g3/6KZgjvyKV19Ru3YI58svmKS0aGnjJuedmbUYU781BPvmxrT5fytDyWbN880e7Jkb9/rvvOunt2wdz5NegwG/JsQUukGCKqixJoV5qmUK9xJlCveQ3hXoK9VR7Vis2ZsnAWb0kI3uqL5wrqrG97/pWN/30uQLYRQJzwK1y5cqFLSfs1gKrSZMmSdu2bX1DLLm+7rzzznwhvYVVTmA7G5YukaVDBsu8vzrJgp7dZfn4cbIdkFfMetiFF17o633HvY5X4oQJE0L3PX85HxfWXXHFFWFlQ72rfPnyET3xGGk3GgSNRTlb18jGxX1l9dQGsmriN7JuZnPZtnaG5O6M3mdhSQko+uCDD8p7773n+wy86qqrQh6Lzz33nCm/9xqNkIwlW33hXHFsxLQ1MmfpusBvpe0zVwr1VCqVSqXySKFeaplCvcSZQr3kN4V6CvVUe1Z1/65Z7H70IlnPKe1l5cYs2RX4hxjFlv7d3Gubus2bb75pQA0ABhDjgqizzz47DGxFGgTjuuuu8wVmyST6z6tSpUq+wT6eeuopWblypTz22GPSpUuXELQEgNpzoswuueSSUNl07NhRatWqZbz3AFzebd5zzz35BsxIJWVlZckpp5wiY8aMCesv8JNPPjHX0pw5c8zgGctWrJJW/efK9MyiDIxRsNVsOFzDcD1SqKdSqVQqlUcK9eJnywOWNrGnTJoxINDQyPDNU9JWWqHeyk0ZMnF6P0mb1Ctw7FN88yS7KdQruk2bN0QWLS952JYoqMfzYOzUPjI+o2/Cng0K9Yon+t2yZYbnUkEDA3hl8xMeyvs2Wof7CG+gSO9llnl/P34vPxiFOF48kFhe0H7jqZzcHOk84Q+Zmh3f0NvdNk3+HNNAdubuMOWBp5nrSdekSRMzMixgypYlcKpp06amHGbPnp0PAlKOjIrqXv/z5s2TRo0a+Ya2JpvwvnPhI8dcoUKFULkQYvrTTz+ZdEJ2x40bZ67NQYMGyYIFC0xZfPzxx6ZeaM+X8nCvLbb1/PPPF9trMdnFNdOuXTu5+OKLDTClPJ588knTN+H+++8v++67r/zcbrTMyCoZoIf9OWi+bFaoFyaFeiqVKi7q9O670iVgm1P4C5Wq7EihXnxsxoJhss8+e8tRRx8h5csfQIVDstZM9M1bklYaod6ydZMDleN95IAD9pejjznSlB1g1C9vMptCvaIZkOvgQw6UPzv9GrgWShboJgLqLchOM8+uww77pxx88EHm+l6QOcY3b0maQr3i6aCDDjINeTy58OA57LDDjGeTBSEcw3333ReyffbZJwx6MBorZfr222+b9xmQkPfuihUrjLfYI488IieddJLpt+uNN94wXkCsX7t2balevboxC1l+//33kEdVzZo15eWXX5bXXnvNhJYCW5hndFNg3i+//CI///yzvPTSS/LVV1+Z42Wf9p3Pvq+88koTVogxYEBhYU2ka2XY7F4yaekEHxgXP6s/oJYJwWXUVlumI0eOlGOOOUbS0tJ8r3M72MVdd93lGz5K+eOpxbYwtuWXL1n16KOPhn5DQKc3fLZVq1bG4wzAecMNNxhgx3UADHzmmWfyje7LvXXjjTeGyoByS3avxXiKawjPxOOOO0722msv8wy3VuX7PpKxJH596Xlt7opc6T1qgem3rzAC1Mb64eHDDz/0veeXLFkSU517T0uhnkqlioveDA5esXbx4mCKSlV6pVAvPrbffvvK7XfeYAAVXmc0/p55voKZ98tfUlYaod69998WKK/9JHtt3jHfeddNBpAmAooWxxTqFd5OPOk481tTP09VqHfQwQfJKaeeIJmrJ8rKjVPlkH8eLLfdcb2Z98tfUqZQr+ii43wGGgDi3XzzzQbqATmAZF7PN0DJkUceGTaAACOE0qcZBng75JBDzDQDL5AP75+hQ4cacDBx4kSpVq1aCOpZr8Bzzz1XLr30UjnwwAPNNujrjOV4ogFl2Bf7tiAKI+yUwR8AkPQnRwgpfcYxwqn9fX/99dewcwDqeEMtYxH7aN68edi2mgz7Mu4DZHitw7gmsm3HFnnhhRfMQBCA0U6dOkUFGoBSRjEFaPnBDO6N008/3ZRrvXr1DNywv2VpENcq3olATrwVLQx2xfV26623mj4FucaAwQDA6dOn+z4b8PADBlNun3/+eZGukdIugDj3rgV62A9t0kos9Nba1y3SZev2wnnrcb3yAYKPCH7XuCueT3giegU880tPtBTqpZi4WLdv2iTbStGXE1VqSKGeKpWkUK/4tnTVeAMmMuYMDqXde//tgcZX+RCo2lNWGqHeQQeXl9fefDYEQEeN72G8XBTqJd5KGuoRbj1mYk8pV27flIR6eCECrP/q+Xvo3Jo0/96EbS1eMS5f/pI0hXrFE6NiEnbnGiCE/QJNrNk+2+w8omEMUAOKPP7443LGGWeYUTTtckAhkITtUe41atQIQb327dubkVqPOOIIM3orv5vrqQfEOuuss0xeIA3bOfTQQ818z5495YsvvjDwkEEUuO7wsCK80u77xRdflJYtW0qbNm2MMdJpUX57wlN5R9PW7tq1q4FqP5Rgf3rW+s3oJiederxcc801UrVq1ZiuA8qO3wmAGuk+oMzT09Pl+uuvLxCKJKOAuXhdRvOo4xo488wzDaAGRLuj43rF7wnU3nvvvfN5/qW6uEa+/vpr81y0MA8rt/8B8mf/mTIja6cvjIuX1frfyCL1qzd8+HDz8YBjBcq6IdSuLNSjj0XgOB8O8HalfdCgQQPTpyLex3i4EqbN85bnEc/Ehx9+2KzLc4g+G/H6ZZr+Frn2AOd2YJF4SaFeimnD8uUGrLypv6lqD0uhniqVpFCv+DZj/lAD9ZaumhBK+7nRl7JfoDGvnnrRbdWmaaahOWYifenlpc3PHGPCcecuGZUvfzKbQr2i2377lUtJqLd26wwD9WYtGh5KS5/c25yvQr34aE9CPcIagXLWAGLs99lnnzUNWgzYRyitnWc571jrwUbjmmnCOwFwNH6feOIJk48GNX/pw4znooVJbK93794GQhFO27hx4xDUoyGO19WMGTNMY5yGNAMjsO1Zs2aZUEsa6PQfhxcW6w8ZMiT0+3/00UcydWrgPRZYH8MjECNcuLAG8LHAg/f1O78/K5MzJ/rCuHjZkDl/y4mnH1dojyI8C20ZRhJeWaV1MIjPPvvMeBlaeBtJDKAB+HE9SyMJz1TqYl7v1FQX9ySejwyOQUg3ELxSpUpy0cWXSJdh82VmCUO9mj8PlQsuutT3nivI+EBq70kM0O/9/SzU46MBg81wPTAPuLN/CcnmGYQ3J/022usF72EGDrHh6vTRyD7q169vwtjjDfSQQr0Uk0I9VaKkUE+VSlKoV3ybMnug7L3P3mFeee27NjYNd4V60c1CvenzhobSFi1LN1Bv9uKRYXmT3RTqFd1SFeqt2zbTQL0FWWmhNDx6FerFT3sC6lFWAwcONN52vC8ZaAFPuv79++cL87Tee1bANSDZqaeeap519MlF+C7zhNmSF8+2zp07m37xaDwzQimjj9pt04jl/Qfke/fdd80xWCCFhxWeU/QpR594PXr0CPUtR4Oahj0NcDxtOBbrAWhVp04d0yDHixCjLMlXWFE+dDtBWxsIyTb2hKfewJk95IhjDzN1mREjRsRUR6BcL7/88qgga9q0aQZM8HsWpTwSLfoBBFxG89SjHLh+8OgD5BBaG0mUE33KAYnKmqceEAyY5UJrrNz+5aXdgFklDvXeb1Q0Tz0GeOG+4FjxDub+9hNQD7BfsWJF89ty7QCzXaiHFyfPKp4t3N928BmgHs8WC9X5SMCziW4BeB7Y9HhKoV6KSaGeKlFSqKdKJSnUK77NyxxtPPUWZKWH0t798E05oPz+kr12zwKe0gb18sITy0nH7r8FjjkP6MxaNMJAvSV7GHoU1xTqFd1SFeqt2TLdQL1xU/uGru9BIzpJOYV6cdOegHp4uOHBwmAZvC8JfwVwMO2OrIq8UA+x/NtvvzXHibcd/dvhIWUFNMAIYaXc7TwCAALdXDgDVKThTDgdndzT5x9AhgY5IXIck/XQon81+uDDy6hXr14G4tGHnz1GYCAeOJQjRghvUX57wBD98bkhfr8OqV3iUK/zhOYyasxIAzMxPCXnzp0btU5DP3NACn4Pv3NlXcJXORf6JYwGu5JRXJcMuILX1IABA/KBZ5SdnW28PAlDBv7WqlXLzEcCP926dTP3AUaYdkEegKmo8ePHh8JZje21t/zcYVyJ96n3RbO0Qvephy677DLzIcL7jPIKaMdIyDxr+DAA5KNfSj4A1K1b11wbeCqTj2vqoYceCoN6jOjN/cL+6K+SewpvYz5AcA/xTOEaO+GEEwzkIy/rFFUK9VJMCvVUidJrgcpuZb4+LFoUTFGpSq8U6hXfVm3KMFCvU4+moYb76WedIjfefLV66sVgxx53tFx+1cUhAFqv4afmi7j2qZd4U6hXfAPqffT5W6Hr+8GH75TzLjhLMp1w/T1hCvWKJ0CcC6xowHo9uGgU0++Ym24buN6G9fvvvy+VK1c2IK9ChQrG+8Vrfl4uNKzxumG7hNQC9IAshAS6Rugt/Vm1a9fOQB28AT/44AMDYyZMmBDy5gMQWoCIXnnllUKXJcfpV4foN62DTC1hqPfzoE9kR84O43FmvRcZKZjRXCN5lAEX+C3pT84vBBdPSTz17D2CV6X72ye7uAbteQE5veWAFxaeZ+ShnPiLdxbgmLLxDgzCNAOHWLBMeZREWGWyivMnjJ0y8o5+W+2Hv0t09Nt5K3ZJ679nyvYdsY1ka8UzyL2v96R43gD+AMR+z4XiSqFeiqmwUI8OYnnZYvQn4cqmY67cdPcrB1/BbDovSCsedjadPK5sOuaKuHSbTt8cVtwIkdaJlM7XFptOZcCKrzGR1omU/s4774TS6evDispDpHXcdJfA07moTXfLC/d/dx33xueFYdM5fiu+Atp0+jNw5a4TaVu8qKz4mmrT6fck0jpuOi81m06FyIoKhE3nK0cs26JSZtPdPjv4mmvT3XWoXMRyjm5YRevWrUPLGO3MrsODPpZt4Y5tRcXZLosFrKhKhxTqxccef/IBA6Ladm4kz7/0hKn4zVy4ux+tPWWlEep17dPMhPR8+lVNqVv/E1OO79R6fY8D0eKaQr2iWypDvVofVzXX9++tfpS3369kpgcOax/6ALCnTKGeak9r49b10iejs2Rkl9QIuNOk6fCvZWfODhNKS6f+1oOMdht9C7700kth1wbpeBORNnr06NDgI1bUhagvuxCPQTMiebwlmxgsxIUpeHl+8sknIdDMedA3JG0F2q14b9ImYFRkO1AG4ZT0HWfLBfjstlNol1HWZeGeo59JQkknT54s8+fPN15neKVSxyOc/tvmw2X60pKDet1GZcrGLaWrnPGEZVTtkgpbV6iXYtoQePBUDfyeb8T4m/LgseZ9KLvLXEVK54Vh070UPNI6saS72+Kh6i5zFSk90nEVZVusb9NdF+tYt2VfJsjdVlGOy92We47ucSF3HVdueqTjiue2MFeFTef6jLQslnT3uCJtK9aydys6TJPGiyxaY0BVuqRQL3529723GiCFZw6d4fvlKWkrjVAPa92hoQnD3WfffeTdD94odUAPU6hXdDvu+GOkU/fdnq4lZYmAeljVGi+aEX6xdn/9LyHXt0I9VSL0XZ+3SiwEd+S8wbJw5cxA/SXvWmbkXq/nHdc53meE5lJXZyRg13PNG25MmKHftU/IoJ9XXzKJ477pppvyeRXiaMI5//nnnyYc28IWRim13nfUAW+55ZbQugza0qdPH3NfPfDAA/m2ef7550f0hEwFUR6MKt2wYcOwZwuDP3DujAJLuPLizBXSJz27xPrVq9lweJH600tlJSXU88b84wWF4j3STlFfzIsWLUr6hp5KpVKpii6FeqllpRXqpYIp1Et+SxTUSwZTqKdKhOYsmyyj5w+TjGVTfcFccezrXlVkR87u3x1ARdif37VLX2BALDrvdwHV1VdfHZrHqw3o5/3Qj+gDsUaNGnG5znYE9rcxK1PWzJwh6+bNla0rV8iuGOo2BQkPO7/+/4CRV155pYlUc8+NAVxcUEkoroV8iL7USIvEJYgQc6ODiqJdu3Jkx6bFsmXlONm8bKRsWztTcrYR2pu4OikDpAB73bKwwsvRwkzC28lTvcFQmbp4my+UK46Nm7dZ0qcvl5wcZTGukhLq8UXfvbnwgKFhRcPFS7+bN29uOmnFmF6wYIF5MHmNdb3ivH/66afgXJ6IhWdoaig0oy15hesu6ynUU6lUqtSVQr3UMoV6iTOFeslvCvUU6qn2vOqWwCi4XSe1krWbVsouD/zBw4wugPzqNLRta9asaTysbH+FtKeHDh1qIlsYICCaN96DDz5Y5A7+AXnDq1eVARWfkoUtm8uaAf1k0+gRsmH4UFnRs7tM+ry29HroPpnRornkOlFNhREjj/qFPN57773Gi9GFmfAEAKBbToSXTpo0KfRsoLzogunll1/2fR7Q/6Jfv4+xaFnauzKt8YGS/ffjsnlaM9m54G/JWTREts3pKuvGfSWzmv1T5rY/W3J35AdrJSVCbQ899FAzaqzf9QObIZTZloXNs3XbTukwZKHMiPOAGTV+Hiabt+YHzGVdSQ/1cHGlwYJrMJAN91+mMUS/ANdff70BbUzj5QeQ48Ki/zRGpWHae47AO9IYrYbYb/bBKEi8sHk40Zmq90XIDco65cuXDzPWJ50RdawYQYk019h+enp6MEdyiLJWqVQqVbgU6qWWKdRLnCnUS35TqKdQT7XntX3nVmkw6OO4gb2xi8bIXxN+l5zc/PCLugwDRfh5kD377LMG2nHtE0Z5++23m3YyA2Y0a9bMDC4S7b5g25dffnmhvNN2BPY3+JUXZN4fTWTruDTZNmFcVNs8ZpSMqPKGzO3QTnJ8PAYjCS9Er0MQxwvMA9QBLfFKtNDSHfjClZvHDrjB8+Lmm2/OF4ILoyAU1W87kbRi3KeysMtVsnPhAJGscVFtV+ZYWTPmQ5nd+oRAOdK/esnUUzkvBr6hLzg/L00rBheJ5LXYtv9MSZ+zQWZl+wO6wlrddpNl1fqtgd8wuANVSEkF9SpWrBgGwTp37mygmZtmjc4YrYiFJw3xZQGoB5HnZQbUY9out+JmcwdNQAMHDjRx836iA022QePp4osvDjX0eCCQzohArgCMFC43BAYQ5EsHeZOpkUjHxCqVqvjSPvVSSwr1UssU6iXOFOolvynUU6inSoxWbsySlqPry9Tsyb6gLlabsGSc1B/wfljYrVeEmfp1IUW4qQvkADiEpR533HFm8LpYYB11EQZNiKUusmTwQEl7r6ZsSR/jC/Ci2bohg6T/s09LTgz3ITCS+8DbZzznxAAithy++OILM2Ag90okrz4bwsvIyh06dAg5FzF6MwMBej0ZGRBh8eLFBdYhdwV+r5nNjpJtc7uLZI3NB/Ci2a7McbKw81Wybs6fsis3vp5r7777rhmduqD+AQnNrlevnm+ZWX3VIk0mzN/kC+kKY7/1nCkLstZLbpLXyxOlpPXU46HQvn17A8HGjg1c5AHVqFEjbMRRKy/UY32GWKdRRiegTLvniLcc896bPBrUozNMHgDo9ddfN+sfe+yx5gXvjhxqBdRjeHVXPAxYzz4IkkEK9VTx0qt77WUGaFkTqDCURSnUSy0p1EstU6iXOFOol/ymUE+hnipxyl6/WOr3f18mZ070BXYF2aBZvaTV6PqyMwawQ4it61mG00n//v3ztYkR4alc8ziu+C33KpZBM6b99j9Z3K6NbB2X7gvtYjXCdbevp485f1F3O/HEE8OgFPcCbXP6AXRFXjz6PvvsM9OPv1+9DxjaqVMns74XdOGRBxPw9ttHv3vRoFjuzi0yt+2ZkrN4eD5gVxgjLHfF2NqyK6f4o6oOGTJEzjnnnJiAJPI7bz816TZV/h67rMgDZ3zVcpwsyFqnQC+Kkjr8lkYyXw9q1Khh+r4DuEHXmSa+HTGaDRcf58A0UI+bCFWoUEF69+5tpu052rBbrDBQj7zc6IT/Em7LsfHw4i+egVOnTg1zTbVQz4YKQ7CZp8CTqZFYEi/7bTtyEm6xyG+9PWuxwd0dO/3W3bMWi94M3AvVAvfV2sCLoCD57WNPW7ylUC+1pFAvtUyhXuJMoV7ym0I9hXqqxGpnzg75aUAt6TPtL8nIjm3wDLz7fuj3jsxbMSPmukpGRob06tUr1AbG8cUbPopoLzMiLFFmI0eONPAGJ5Zo+wFgVa5cOaLX1tKhQyS7SyfZOn6sL6grjAEFBzwT2WOPUVgHDx4cOk+OG3AXKUy0Z8+ept4XLWSWshg9erTvM4L7jOUu4Orbt69MmzYt4jNlVrN/Sc7iob6grrC2YUJd2TD/L9nlE3odi7gGCLdmNORoobau2rVrZ66nWNs+Mxetlo+ajJJJC7b4gjs/6z9xhdRqPFLWbyo+sEx1JS3Ug65zMxDqivsn8f7nnXeenHzyyWaacFjECDSPPfaYgXS4zAL7WP+UU04xf4888kizjj1H+r2jfwAAGzc46dGM/C+++KKZ5mZ/+umnzYMOaNevXz+zTcg+w2LzsicfYrm7HWt16tQxy0tK2zZtkgE//CD9ApYovfnDIKneYFhC7K36Q0wHmrHo9e8Hyls/DfXdTsnbUHm97sDgkURX465TpGq9IT7b2DNW+cfBwSOJrsJAvQ9/G+m7rz1lbwSu0SRnNaoES6FeaplCvcSZQr3kN4V6CvVUyaHVG5dJ/f7vye8jv5eR84fI1KxJIcg3NXuKTM6cIH2mdpQ6vapIryltfPvPK0innnqqgTjUb3CM8QuvJdKNPAyAYKHfD4G25aWXXmoGiohUNyJM1W95zvZtkv7Bu0UKuY1k2ydNkLSPPzTb9uqYY44JATqOB64QDdjhuAMUiZSH54IX2vkJh59ly5aFzp8QZj9vvQVdr5HczDG+gK6otrDTVbJzC16IsddbgZ7VqlWT//73v75wN5ouvPDCqJ6IkdRjxDzTVu84dJFMXrTV8d7bKTOydpg++Br3mCnv/jJc5qt3XsxKKqjHQ8bCL4AZNwRQLy0tzSyvXr16geG3rMPNi/Eyw1WWaWLeXQH1uJC5Oa3x5YJhmN00bmK/B9dhhx1mXv5e2cqAX/gtrrscZ0kOlrEhcJ6AlTeD5ZEIAfW8pH1P2YjpawsF9aZnbvfdTknb3BW5hYJ6jXvM8N3OnrAq9YYEjyS6Cgv14j0aUmFMoZ6qICnUSy1TqJc4U6iX/KZQT6GeKrmUm5sjKzdky+h5/aXrxD+k49j/yd/TOsiMrImyZXv0ENeCBHR65513TNgtfaJ56zm0h+1or3jdAfbsdUT0Gd54wDs/GIiX1zXXXBNaxn5Yt1/Fp2Rz2ihfOFccm/NbI9lEN1jOOeDwY2ETA2jSti8oLJh7BUee1q1b+3qqMTow3XDhWFRQH4MMHEHfe5QrZV23bl2zDuUAC9i6eoasG1dHdsUZ6u0K2DwzMm5soI1zJQJy6dKlha7rUh6wleLUkRkdN2PBauk6bK783nOqtOg9TfqmLZQlyzfIzqCHpSp2JRXUGz9+vLmRbPgtAupxfF6jA0orC/W4gQm/pQ8+jFDZBg0ahObdvuws1HMVLfwWt2OoP0Z/BOzPzmNsz4b9Ij+oh1iPB1xJqbBQj68O8ZZCvYJNoZ5CPVVyS6FeaplCvcSZQr3kN4V6CvVUZUtEsdHG9npnUeehWyk3nbaiNx/XFV5+dInlvcYeffRRE5Y5dOhQ0zXWmqwsWdjij2L3o+dnhPKOerem5ARDfjkW2v8c74QJE+Thhx8uEMJxznggAv4YSNMLAHkm2G1G8rzz6tZbbzVcg3Uvuugi+fnnn005jhs3Tma0OFZyFwfaqh4oFw9bNuDZQFmsCR6Fv3Ba4jwIJfaykFjEM/C2226L6vmo2vNK2vBbF+pxA6AaNWrIk08+aaat+MLw0ksvGVjGoA8Mu0zHnhgnxxDbdt6Noy8s1HNFuG+5cuWCc3mCyHPTWvlBPTtS7sSJE4Mp8VdhoV5JDJShUK9gU6iXelCPbgJiASuq0iGFeqllCvUSZwr1kt8U6inUU5Ut4YHHCLde4EV7edWqVcG5PP3xxx8R+9ObN2+egVV0mWXb1YRlHnzwwabNSxjv0A/ej2vYrdcmfPJBqG+9F154wYTS/v7776ZPwGijslrRPicqkOPn3PFEdO/zBx980IAwBCugH/1Y6lzsv1u3bqb8ypcvb8pj5MjhsnxoZdm1dHQ+IBcP25WZLpkDn5LcnflDafn9iHisVKlSgaAzmu66666IfROqEqdSAfV4yXLxcXMA1Ji2FyM3CbDPj5q7A2V4VRSoxw3Olw0aUN4HG/3qPfLII8E5MfCRcvVaLNCwOFKop1Av3hYr1JvSs6dkBGx7DC+KVIR6OlBGakmhXmqZQr3EmUK95DeFegr1VGVL1B0qVqwY5m1FOCVtbe81Q3uZvNEAGV5f9GNPu9Jt9x566GHS57n/yua00b5ALh62ZmA/WT11qmzcsMFwAqBVhw4dwiL0ookQVJcjXHvttab/fITXHn3r2/uesoAvFATFyAf4Ovzww8PKo2vj52THopG+QC5eNqv5UZK7PXxk4DZt2hiGYc+rqOIaYHyA0vIcLEtKKqg3bNgwMxgGx2OBG1CPxjKgz7X999/fLPeKxo011mOkWjtPJ5lWFur98ssvJp819m2ncStGY8aMCQ22wRcA28hjwA0GznjggQfMMo7fChddbmZrEP498WItLNT79ttvg1PxU0FQb+6KHHm1yjth9tEXP0rG4s2++Wcs3eab7mfxhnqvv1Ur7DirvfOpjJi8OF++aUu2ysgpmTIzKzZQFW+o933DFmHHibX+a2C+fDMC55s+Y3ngOGOHmbFCvcIoFqhX88Mvw86ncs2Ppe+Iab55sSHjF8Rc/gr1VAUpVaFe06Hnl0n7bcg50mjwab7L1Erazgtce6f6pJdeazz4zJS6n/5Xpu+N8+S3wRcq1FOVKR1yyCEG6NlBMxBt3UghlYySG4t3F8CHOgntYuygwD0z4ZuvZevYNF8gFw9jwIzRH74nl154oYmUY+RbyxEKEnU8P0hH9A3lctVVV+VzHCK01pZZJNHup3suyxastX33H7JzYcmE3lrL7k8Ibh68W7lypRn1d8iQITGXSTTheVlcMKgqGSWlp54rhksuCRfP559/vlCNtc6dOwendgtazZcJhqtOFm1Ytkwq77OPVCoBD7xYVRDUW7gm1zzYjjvhZDn51DPkhBPzRiombfzsZWF5p2duNenzVoZvI5LFG+rxMC5f/kBznCefcrqUP/BAczwvvl49mGenHBBYTtpee+Wdw/0PPxm2DT+LN9S7+Y57zL7NcQbsyKOOMfMHBI53VnbeqEJnnJUHzO1xnnrGOYF0O+JQZEsU1Dvm2ONln33LmfM5KVD2Bx18iDnu+/7vydA5WWve8W/zWw2ftCgsPZKVBNSjfwmFeqmjVIV66zcvkdWb5pQ5m57VUf4cfYus2jjLd7laydmKDRnGU2/lxpm+y0ujDZ/9mXQe/1jgekqNc8JTb/mGqb7LUt2Wr5+innqqMiU82KxHXuPGjWX+/Pnm2o8GfohmI6w1Wp2I7rJsmKm1g/crJ3PbtJKt4+Pfn55r3Z96XA7Yd1+ZOXNmoepteLD5ndf7779vQot//PHHfPcQ50lf/QVBstq1a4cBTmzgN3tLzqKhvjAuXrZ+/LeyffMyuf3226Rq1apxe2bRRyF9JWpbJzmV9FBPVfoUK9QbNjEcwJD26JPPm+lRGZly5jnnhx6CiYR69zzwWFjapVdcK+XK7Wemv/j+18Dx7SVzlu8MWK506jPKHO+s7OjbLQmot88++4bBrr/+HmOOZeqizdJv1AxznONmrTTH2SW4bNqSLWHb8bNEQr3Tzzwn7Jze+fgbcx5u2uT5683vxPkkEuqpUksafptapuG3iTMNv01+0/BbhXqqsiO6rXKvi+OPP14OO+ywqN5n1IWieevhzYaHXPfu3U0UGJFshLGed/LJsqRbFzOghR+Mi5d1f/wROef0081AFxxnrMY97bcOaTicEEHoXUafgUQM+i1zjXzWacXamJ8PLLFBMqxtzmgijz54u6xdG33AjMKI358wZdu3oCr5pFBPFXcVB+pVe+8zMz15wXpp0LS9/NSknUlPJqh3xdU3yP6BlwDT515wiZx2Jh5vecuATRxvz8ETQ2l+tiegXpd+Y82xkFbzgy/luONPktnB5QsCvwHnlj59eSh/JEsmqFfr07ryj8Bxu2kHHXSwfPLVTyZdoZ4qXlKol1qmUC9xplAv+U2hnkI9VdkRfd+5AO+VV16Rrl27Fuh5xuCTkaAe9w2hvPYju7WP331Xlnb9q8Sh3oAXnpWj//UvEz5MvS0Wo7+8L774wkTeeZeNGDFCXnvtNRONR7l4l9PPHmXhTXeNbrkODEZ4WZvY+F8lDvU2TfpJdm7JDvwq8au/Nm3a1AwoEo8QXlXJSKFeGVciBsqwUO+Ka26QG265U66+/hYzv/8B5cXPw41liYR6hx9xlDlO7LDDzQ0jQ8bNNcvxepu9DMvL/9m3v+Qd76rdaX5WMuG3e4WO85zzLzbH8cX3jcLyTV6wQT76op4ceujhcsyxJ4QgXzRLJNQ74IADQ+d0dGCec+rSLy2U5/8q/FeOPuZ4U578VomEekuXLg1OqVJBCvVSyxTqJc4U6iW/KdRTqKcqG2J01xYtWoQGkeAvXVLR1zyQK5oWL15sQFU0sAMc5D6hvk7/a+tWrpR5fzSRreNKMPx24ngZ9mYl2RY4/mOPPTbf6L2RhMdipC6+6IcOQBipn0H6lWvQoEHE+6t58+ahcrAGTJ30x7mSu2S4L4yLl60a9pbkbMNLLz71V56JjDPgNyipKnlUKqBe//79TUePVmvWrDFDRBekWBo5kcTgGMTLI0bQzcrKMtOppkRCvfdqfyff/PS7fPXjb/LkM6+YtAce+U++/KQnEupdcNHl5jixmh98ZY6n/IEHheXj+I497gSzrHHrbmHL/KwkoB7Hao/z469/kn8dcaQ5noxFuwcgGTdrlVx65bUmHc++KQs3hW3HzxIJ9Y446pjA+TSVOvWbyruffBs47r1k33LljKden+EZ5pxnZG4LlP+uhEM99l+cZ44quaRQL7VMoV7iTKFe8ptCPYV6qrIhvM9ceHf00Ucbrz3SPvzww6jXC/Whiy66KGKY7s0332z6ojvuuONMnZhQTe6nMW9Xly3pY/yBXByMbS/q21t25ew0+zvttNMKBJQoUr5ff/3V9DPI+dKPXJ8+fXxH0rXgz0/000c5TZ48WQ466CDT7gKIZo95V3ZlTvCFcfGyuW3PlNwd8QNwDCQS6TxVyaNSAfWg5Lxorfr27Stnn312cM5fjEzLySFGp/Uz++J+/PHHjXvsjh07zDyiY8y6deuaaTrAHzlypJlG3KTvvvuunHnmmVKuXDlzo06dOtX89VqPHj2CayWnEgn1vOG3jVt1M+nzVoZ7ueWl7Z6PZnsi/HbBml3mmCbMyTTzdX763cyfe/7FYQAtmu2J8Ns5y3PMIB+P/Sevn0LXrGfbc69WzbfMa7FCvTcD22Pk5bWLFwdTIquo4bdcGxx3/9Ezzd+rr7tZXnq9hrz85tvmNwAOf12vadh2/EyhnqogKdRLLVOolzhTqJf8plBPoZ6qbOj0008PQTkcWNLS0kLX/A033FCgN5bfSLFff/216T/P9rdGX3KdOnUKefQNffM12Zw22hfIxcNmNagn2z3HTZ92M2bMiFiHW7RoUURYd+KJJ4ZBLO+8VcOGDaMOHgIbuPrqq6VWrVqmDz7KdsempbIpo6nsykzzBXLFt/Eyv/PlkrsjPhCOa+XNN9+MGHatSh6VGqjHgwfhsde2bVvzUGIac2Ecgq5zTtxoqFevXr7mvrjffvtt05kl2+JF+Oqrr5o+BgCIfJWoV6+embZ677335Pvvv5cnn3wymCJmn65LMp1ssp+ypqJCPfrQIz3Zod7CtXlQb/ycTOnYO29gjD7Dp4blKcj2DNTLDVRAy8sjTz4rp51xtpx97oWB9N3L99//AHnhNTuKb2RLJqg3f1Ue1Os3arrcfs9D8u/7HjZ21/2PmN/hhpvvkOqmX8bd6/iZQj1VQVKol1qmUC9xplAv+U2hnkI9VeprwYIFZiAL20ec11ONa+Xee++Neo3T1QzADhjGiLh4+gHI3LoS/c3RT53VsrHpsqkEod6AZ/4jOZ5j5njuu+8+A9b87ukbb7zR10vvhRdeyAfwiBCEA3jvJcrg/vvv9/VcxMPvP//5j1lGtB9MwZbrzObHlVi/elunt5Aty8YEzj8+fd9deumlOjhGKVFSQz0IO8dm7fPPPzcwD7fefffd10yTPnHixOAaYjzjSCNkNzMzM+yhUpA+/fRT8xdQx0UMzGP6qKOOkttvvz0M4CHCcitWrBicy4N63LzctBij4uxpqLchO1sqBY7j5YAlSrFCvQ8+/0G+b9jC2POvVjNpd97zUL78pCcS6l148eWh43zr3c/NgAzlDzzQLGfwiX8eelhoubWJ89bl25ZrJQH1gNJ2/wwccfKpZ5iymzR/g7T+a5CZ/q11DxmdsUSqvvupmR+YNst3e64lEuodefSxgfNpbs6p5odfB455Lym3335hoA9LhvBbVWpJoV5qmUK9xJlCveQ3hXoK9VTJqY1b18vyDZmB5+cSWbNphezMDXdkKYxuuumm0PWLc8rcuXPz1XH++9//GoeZaHWfgw8+2PSX17lz55gHThjwfMUS8dZb3a+PLE8bI7siHAeQji67XI887vFbb701H4yDGTz77LO+9/gVV1xh4J5XOPB4vRvbtGkjVapUCdsO69oyXT21nmyb01Ukc2w+KFdcm93yKMndsd7sp7ji+qhTp06hWIoqcUp6Tz0eFsSsE/5qX7Ru+C3H7kI9XGQXLlxopgF/wL2ePXv6WjTg9t1330n9+vXNtDf8ds6cOWbbQASM6eXLl5tj8Rr72ZPaEDgOwMqbAUuUCoJ6jLzqLaejjz1OGjRply/vnGV5eRMJ9dzj3G+//aXau7VlZlbeeu4y1walz8m3LdfiDfVu/fd9+Y4B77WJ89aG8lSq+l7Y8k59R4dtI5IlEuq5x1uu3H4mXHjG0q358u6GeovzLfMzhXqqgqRQL7VMoV7iTKFe8ptCPYV6quTR5CWj5cd+NeWXQZ9I74wOMmxuPxk5b5AMnNlL2o5tJF/2eF1aj6kvO3Pzh45GE+G1hFECuKJ55OGU4ud9xr1BaO1jjz1W6D7W1s2dLYvbtIr7gBmDnntGcgoIDf3555/lo48+Ct0LQ4cONW15772OQ0+kgTPw6sPzzhuGOmXKFMMh7LYqVaokTZo0yRdF6Ip65axWx8TdW29t2qeydXVGYAcF1wdj0SmnnGIGBFGVDpWqPvUgxUuWLJH27dvLddddZ5Zx7C7Us2KUlssuu8zcnMSzW7vkkktM459puw0aRPQtx7a4KXnYcVOyH6ah+cOHDw+j/Ih94HaLWMbx+dmeVGGhXiL61CtJizfUKymLN9QrSUsU1CtJU6inKkgK9VLLFOolzhTqJb8p1FOop0qsqGvMzJogP/z9joxdNFqmLcso0NqlNZJfB9eWrTsK7u+MvvNsKCpgLlofaR06dAjz4qON+9JLL5k2L9c/6QyIUdhrK/2zT2TjqBG+cK4oNqpaZcmJsZ1N/3mVK1c27fKzzjorX+gtXXaxPNr9/dRTT+WDmZQFobykv/zyy5Kenh5TfWzn5mxZ0useyV0ywhfQFdZyAttZ8vejkrvTfxCTwmrQoEFmwNBYPTFViVepgHq4+B5//PFmyG2OlSGhufGQH9TDs450PzdZoCCdVXrFRcs6jRs3Nn8jmet5Z9N++OEH+fjjj8PyubYnpVBPoV68TaFebOJjQSwvclXpkEK91DKFeokzhXrJbwr1FOqpEquf+r8vQ2b3lYzsqb4AL5JlZE+Rev3ek/krIw8KgeiyCpCFh9qff/6Zz1HFFduhqyu89Vq0aGGcWOjSym6fv7TL/bz5oiqw3t9PPxEXsDf1m69l9ZQpsqsQ9W7ub7wMH3744XxQE+9Evz72vMIpyJsPr0dA6YgRIwoFwTYu+VtWjXpHdi0d7QvqYrWcxcNlVvNjJHd7/Ea8pb9F9dIrXUpqqEe8vwVjHTt2DKbmPZhIW7VqlQl9HTcucFEHdcQRR5j4doaP9oN6dPDpB/V4uNly4GHFtH0RAgl5ELiC8vOVgr4Hypcvb75+WLGuHaRjT0uhnkK9eFusUK8wUqinSnYp1IufjRjXTS686By5/c4bZeGydN88JW2lFeotzE6X2+64Ts6/4CxJm9QrcPz++ZLZFOoV3patmyzPv/yknHPuGfJH6x/NvF++eFkiod7KjRly8aXnS+aqCb7LS9oU6qkSqZzcHPmmdxWZkjXJF9rFan9NaCGzsicH6iz5r1/qMQ899JABWccee2xMMO7333+XQw45RGbNmuVbDwL2RRv5NZqGvPayrB8yyBfWFWRbx4+VYa+/IuvnzinSvmvXrm2AletxB+ikf8BooNOqWbNmps9/+5zg7xlnnFEgKI2kjUv6yKIu1xbZY2/7vB6yoFP8RrtF1apVM4wl2eu/qnAlNdTj4cPNYsNvERcYx0snlPylv73Ro0eHXrLcaIhOPIsK9Rh6mhveytunHt565OUvUI8LnwckHZBiLCO0l+kGDRoE19ozKizUi6UhWFgp1CvYFOop1FMltxTqxceatfrRDOJT8bnH5Kpr8rq/mLd0tG/ekrTSCPXmZ42RfffdRy674kJ59oUKgXLcS7754UNZtm6Kb/5kNYV6hbeDDz7QfJyuVuNl2WefveXiS86VzNUTffPGwxIF9VZunCqvvlHRnOOSleN985S0KdRTJVLf960ukzIn+IK6wlqH8U0C7YupgXpL+DX8zTffmMEv3n77bdMOjlavAdThPEPdgpFtI3mv0Wfcq6++WuRupuZ36Sxp79aUTaNH+sI7P1sWWGfwKy/I9o1F90g75phjzGi0gDh7bkQExtpHIM+Hc8891+SHHcAhKFuiCL0DZsSqnO0bZHar42TztOYxD56Ru2S0LOpyvayZ/qvsyo3fPc7zDbZRaC9MVcJVqvrUQ9B0GgiIm4fhqhme+9RTT5XBgwebdFRYqMdLj3IgftxbHl6oN2DAANNXn4V6VvQ/gLE+Q1kzvWLFiuDSPaOt69dLu5dfljYBS5QU6hVsCvW0Tz1VckuhXvFt1aZpprH+9vtvyPL1eSDqX/86VG697boS9zzyWmmEehddfK4cddS/JGtNHjiqXO0FU//JXlu64JhCvcJZh66NTRTK0qDn2tptMwP3eLnAdZBaUG/U+O5SLnBe1JkxhXrxlUK95Ffb9J9lavZkX0BXVPtpwAeydUf4NQrAot16++23R7x+uU5o777yyiuhawZY9eWXX0Yc9IEQ3FhCVqNp7JefypCXX5Dl3f6SLWPTjSeehXhMA/1m/9JA+j7+iKyaMrlQ4bZeMahl69atQ+eD1yL95/sNmhFNLVu2lDFjxsjhhx8eAnkffPBB2Ai3RdGG+Z1lxu//klXDq8nORcNllwP4dmWOk9zA/ObpLWROm5NlUe+74tZ/nqt77rnHlFOy131V+VUqoB4U3EI9jrVdu3ZmGnXq1EmefvppE0bqXoCFhXp4DxBPz5DVXtL+9ddfG/djr7xQz4pj9Nt3WRFQD2iVCBs1o3BQb2b2dt/tlLTNX7WrUFDvtx4zfLezJ6ykoN6s7J2++9sTxjWq7ytVNCnUK77Nz04zUG/2opGhtFcqPS3lyx8g2WsV6kUzQhIPOGA/+eHn2iHPvIy5g43n3uIVpavvM4V6hbPrb7xSLrjo7DDPPKDe4JGdQnA83pYIqMe5APfXbpkeqJfvp1AvzlKol9zauHW9dJvcWqZmT/GFc0U1tvfL4E9kZ04euMKj7McffzTed5G80einHicZP0+zO++8M+I1zzXmhqIWR5uXL5O5f3WUsV98KiNqVpNR770tkxrUk+VpY2THlvjAK0avdcsAuAcvKKwDDv3zs966deuCKXlQlLDVeDwfcnZslPULOkvWkNdkfpcbZF7ny2VR7wdkxYQvZfu6ORKv0W294vevWbNm1EFUVMmrpIZ6s2fPNoAMW7ZsmRx66KEG8LmyA1x4z8Hbpx4j2Np8bMcVDaIqVaqY6eeeey6Uz88qVqxo8qEePXoYoIj88lpLZpVEn3rAsjfqDkqYvfXT0OCRRNdr3w7wXX9P2WvfDQgeSXQ16jLZd/09afFWrf+N8N3PnrJKgWtUoZ4qmhTqFd8y5gyWvffZO+RphjVrU1/KldtXPfUKsNWbphlvramzB4fS6I8QqDdr4YiwvMluCvUKZwC8Z55/TLKd+wYQXqfuByV23ySyT73122Yq1CsBKdRLbjEwRnH70YtkbdMbhUbE/e6776RXr16mD7z/b+88wKQotjb8G1FB0YsCopjALChmDGBWgphRUAwkQUSRYFaMqJgTXMUEiqJeA4qgogTJSUGiIDkrWUBEoH7ecmqs7e3ZxOxuz8z3Ps95tru6urq6d7eq6+tTp/yYb7zbfP/999bbLJHY53Cr3obB+DpVRKDjjz8+i2fho48+aubOnWtn++U2LdlBfjwamY33zjvvZPFirFy5cqgwmirwHLQ4RuoSeU89Vttx/4CJvN9c7D0fpsj6/2i4ELOgRnClXCjocs24MjMvP5UpDFFPiEzk+uuvT8rXShENJOptu03+dZAV9XyPo54fvWLrK1EvZ2PqMqLeT1P6x9OcqPfr/OFZ8kbdJOrlz0qW3NU0aHRZNlGv6xtPStQrBJOoJ4qazVs2m7eHPZP0qbfOJm21z39622za/LddxZY4cn6MtClTppg999zT9OvXL09j4BtvvNF6s4W9D51++ukpEX9t3rx52VanZSVbV/cLL7zQTqnN6f+fMF9uwRGoUqVKFpHws88+s3pD1N8bwxgyZIjp27dvgRb7ENEgJabfisJDop5IFq/UqmW6XnSRWVPEcSSjghbKSC8k6m27zXbTb+f9O/220Q1XavptHsxNv33u5Y5maWz67eSZg62ot2BZ8YgfBTWJevmzmmdXt6tFB6ff/jjpm63XS5/pt84k6hUOEvWiy8iZ35uf5o8OFeSSZc99e6fZuOkvc+qpp1oRz73LHHjggTaMVX4cWvifYAHJMPFu8uTJ1mkm6u+/bnELx/nnn58tHuAdd9xh4/SHCVssfPniiy9m+X9C3LvmmmviIh/PGJFzW+MMFgd46fnTiUXqIVEvw6EBEyIZtNpuO7vy8sp582IpmYVEvfRCot62G8IUol6He1rGxYg99ihl6je4WJ56ebCTT6lmypXfJz59ueH1l5ntd9iuUBdMKAyTqJc/6/NtD7PjTv8ulDFx+gCz0047xfcLwyTqSdQThQNi2KxZs7K8S7wz9GkzcVFyY+kF7f1RXc35F55nTjnlFDsl9IorrjCNGzcu8Gq13bp1MzNnzgx9J0IojLK3HiLdGWecEa8jU0zvuuuu0Gfx9NNP2xiE/v8NY+WePXuGin2E5fJnEhKfP9Wm4L7xxhtm9uzZGsOkOBL1hBBJIdNFvQsuuEAdYhohUS859t6HL9sVW6uffoIV9HjfKA5RKhVFvdmx6bYVD9jX7FO2jH12g0d+WmjeWoVlEvXybyV22XmrlTDVqh1jPxjVb1gvS2zKZJtEPYl6onBo06aNDaXAFFjiw/NO8fy3HQotnp6zb6Z8ZkrtWdJ0eqKTjSW3rV5Y1Jv4e2FeaKyYGuX/i08++cSGy3LvcyeddFKOwlv//v1tSB3u6aqrrrLtQiLPRoRBYg46wXDx4sVm0KBBBQ7tVRwcddRRKR0LUPyDRL00Y83SpVZYaaXfqShiMl3UE+mFRL3k2bCxX5hLLr/QtO1ws1lSxNNunaWiqIfNXTLGNG52jbnuhitsjMKwPFE3iXr5N7xc73vwdlOr7jmm73c9C13ILU5Rj3stTrFaop7IC3feeae5+OKLTd26dfNthDpirI1VqFDB3P9Bs0IX9QbP+MZUPKSCmTN3TtLeY3755Re7SGRQsMLz7amnnsoSyz5K8Mzd1FuEVRYPye3/YtKkSaZs2bJm2rRpuT4/vP78qb3HHHNMrouPRAW8N5ctWxb5d12ROxL10oz8inqaPy+ShUQ9kU5I1EsvS1VRLx1Mol70rThFveI2iXoiLyBkFcTGjBlj/24Ya5cuXdrMmTPHPPN120IX9Qb88pX5rM//zP777x/3ENxWKOOQQw4JnWpbqVKlyE7Bbd++fXyqLQuH5EVwO+CAA6ywhxdbbvl5LpTrvN2aNm2aEqvI0tY1atQo0lOnRd6RqJdm5FfU43ePff7557EUY9577714evBvI1E6X0FcOm7OjgEDBiQ8x0+n43PwZcSlv/nmm7FUYztC/xwfP92PkVCiRIl4OkuX+/jn+Pjpfr2YQubS+bLhoOH2z/FJlH700UfH05m26cA93D/H74SZghOWXqtWrXg6LuWO+fPnJzwnUTorXLl0gr26Y6zmlFtZd2w1X9Rr165dPH/z5s3j5xBQNi/1YqUqxznnnBNPv/zyyxOekyidOCAOnrdLr169ep7K8n/3fr0aNGgQTy9fvnyWc0RqI1EvvUyiXvGZRL3om0Q9iXpRhfdwpkDybk9cOH4yNRIh4p577rHxzOgHiQkWxf567733tu+Hfv1e/v6+Qhf1ek94z/y58R+xpkWLFnZ112RMsVywYIF5+OGHs/1dEYtu5cqVsb3o0LJly7hoxbRaVrj1x3ZBuC/EV3cvPLMyZcrkKtJ9/fXX8Wm6jJmCi2pEEcaiUfydiYIhUS/NyK+ox9cbzBfCeGFx6ZhPonQaMJfuv/DQoCU6x0/3O2K/LLeiENBQ+uf4+Ol+WUu3Pg+XHowD4Z/j46f7ZfnpfuPOC6B/zCdROq7OLt1vUPN6jz6c79L9YK0FKYv7cul+WXm5x6bbbWdabP27WzFnjk2nI3TH/OfFM3XpmI+f7ne61MWlBzsg/xwfP90vy39ey5cvj6X+g3+Oj5/ul4Wnq0tnuX+RPkjUSy+TqFd8JlEv+iZRT6JeVKEP5l3e/8n7Fr8n3uF4J8OTKopTP6mnq7PPVz/3NJMWF+5CGV0GPmz++vvfsR1/B0wFbtKkyTb/TRx77LFZxmfA+3CnTp0i9/e2++67xz3tWLQkJ687/obwOAzm4W8MT7zgmMGH3zFejO5cYihGOU7d9OnT7SrIUZ0yLfKPRL00QzH1hBBi25Gol14mUa/4TKJe9E2inkQ9UXT8tmah+WHGN2bS4omhglwy7NWBHc3fm7ILNohOTC3FsyxsNde8wHtRvXr1sv0v4JEYtpBGcYFX4ZAhQ6wo16NHDzvjK9E7HQLsQQcdlFD0o11gKrO/4EaQKVOmmIEDB9rrsVowTipRfYfcb7/9FIIrzZCol2ZI1BNCiG1Hol56mUS94jOJetE3iXoS9UTR0rlfm0KbgjtqznAzccFos3lL4r/lsWPHWmGHuHEFec/p0KFDlhk98Oqrr0bKO+26666zU2/5nz7iiCMSCo54rRGaJy+x5VhJeOrUqQnbCYRN9wyY9hzF9mLYsGE2PFZBRV0RTSTqCSGEEAEk6qWXSdQrPpOoF32TqCdRTxQto2cNNGPnjwwV5bbVHu3T0mzclLff+wcffGA998KmCecEefFcCwphYR58eYUyN209d+PateZvxLhtEJ34P65WrZqt380335xNgHT069fP3HTTTfmqM6sgjxgxIks4HgfXZTVcwlpVrlw511h8ObFl6+9w01+rzKYNK7c+C55zct5HEX+2pV4imkjUE0IIIQJI1Esvk6hXfCZRL/omUU+inihaeLcojFVwv5/2pZn9+7St5ef+TuBAnGrdurVdiC4YKy8nXn75ZTN+/Pgs/zPErcuLx5tj89Zr//JeD/Pd9Q3N6DvbmRldXzHz3u1u5nR/y0x++kkzqMkNZliHtmbFtKlmS4iIlohZs2aZQYMGWW80FloJu6+uXbuaRx55pED/I7fffrt5++23Q2PSsbgfU1uZ4swCKXl5P3OsXzzMzP7sRDOjZ0Wz+LtGZtWojmbV2CfM8qHtzLzPzzC/vFPaLBnZ3myOLYKSX/CwJDZg1N9tRf6RqCeEEEIEkKiXXiZRr/hMol70TaKeRD1R9Kxet9x0H/Gimbh4QqhAl29bPNG8Nujh0Fh6eeXwww83zz33XJ7/bljd149DN3To0GxCXxi8W428724z6s625s9xY8yGH8fmaMu+/sp8feWlZtWM6Xl6LytVqpStF/cTFievVatW5v3339+mKahdunQxHTt2zLLYJPDszjrrLDvdt2rVqgnj9Pms/22cmfZ2abN+2vvGLBxtzKKxiW3JRDPnkxPNnC/ONJs25l62A/H20ksvjVTcQ5E8JOoJIYQQASTqpZdJ1Cs+k6gXfZOoJ1FPFA/Tl/xsek/oaSZu42q4nP/U17fnedptTixcuNCu9vrJJ5+ETjH1+emnn+x7iBPHyM/fXU7/JyumTjGDWzQ1a0cODxXwcrIFvXqaYe3bmE0BIS3I+eefb731nn/++Wz/A6wCnNv/el6hnIYNG2bzBGzfvr1ZtmyZOemkk3IV0WZ+XMWsGf+S2bJwVLiIl8A2LxhpZrx7oFn/+xhj8uCZiQfhypUrY3si3ZCoJ4RICi2328603tqWrJw7N5YiROoiUS+9TKJe8ZlEveibRD2JeqL4mLhgpHl72LMF9thjFd2n+rUxGzYm929z4sSJZq+99sp18YsKFSpkEa5OO+20hNN4l4webSY9/aRZP2ZUqGiXF/tz3Fgz4KZGNv5eGAh5eM8deeSR2eqO515OK9gWhF9//dUcddRRWTzyKP/kk0+2K/DiERg2TZc8097ey/w9Z3CoaJdXW9DnIrN2Qf+t5SUWYHkeLNyRn+nVIrWQqCeESAqtttvOrry8ct68WIoQqUu6inor/phpfl8zJeNs8sIPrKj32+pJocdlhWdLVv1kRb2lqyeGHk9F++GXB62o91ua3BOi3uJVP4YeS3dbvHKcRD1R7KxZv8J62o2cPcRMXjIxm3CXyN4Z/rz5/Ke3zKbNhbeS6cMPP2yqV6+ecLEJxKw2bdrEp6GOHDnSrrAa9PJb/esMM+X5Z7ZJ0HNGGYNbNDObNmT/f2QBj8mTJ5vu3btnEdMqVapklixZUijvdcQRrFKlShZh75VXXjFz5swxBx10UOgU3Gndy5pNcwaFCnX5tUV965k/V0xO6LF32GGHRWplYpF8JOqlGX+uXm16NWtmem41IYoSiXoinUhXUa/rgINkMplM5tnrA4+RqCeKHeu5tWSCeeTLm83/xr1pJi+Zkk3Em7Jkshk1e6h5ecCD5s2hT5j1G4smPhri2A033GDq16+fLYYcXH/99VmEKwQ0f8GMLVv/r4a1vsWsHzUiVKQriP0xbIiZ1OVls9kT7ljVlQU8XEw9B7H/EomSyYK2gev44lnZsmXt4hRMe/XfJ+d/d5XZNG9YqEBXUJv+7gFm81/ZV7UlxmGfPn22KX6giD4S9dKMNUuXWmGllX6nooiRqCfSiXQU9RzDh480AwcOlslkMpm1QVttoEQ9ERnWb1xnfvjlK/PGkCfM8/3vMs9+09688v0DptfoV838FTPNps15Xwk2mSCUHXPMMfb9yPeCY/pt7dq14/8fTD11U3J79eplBrRoZtaNHhkqzm2LjX/8YfPn8mUoovZaDzzwgHn11VfjU2z5+z/kkEOKzEuNa+KZxwqzgMfixx9/bF588UU79XXe1jHSX+uWm6WDWpgtC4aHinMFtc1by5v/dW2z+e+sQi/To1mNV6Q3EvXSDIl6oriQqCfSifQW9YbbAaxMJpPJ/jWJekLkjfnz59t4exMmTIj/zzRu3NiKZ8S0O/fcc81bb71lBg8ebBetGPP4w0mZdhu0P8eONuOeeNxsjv2dH3DAAaZixYpWUPz999/tVNywqa+FCe+N1GPx4sV2m0VHtts6Rjr22GPNTjvtZKb0OMBsnrdtcfQS2fzeNc1mz3vznXfeMbNnz87XO6JITSTqpRkS9URxIVFPpBMS9WQymSyzTKKeEPmjX79+VsCaPn26fV+KCQvmiCOOsO8mbN950glmzYhhoaJcMmxUh7Z20YyZM2eamjVrWsFx0qRJpk6dOsW6MMSZZ55patSoYWrVqmV23HFH+yy23+7/zPRP6pgt85M79dbZlgUjzeIhLc2WTevtdNtq1aoVuagpigeJemmGRD1RXIz58EMzbqttyGXpdiFSgXQW9QhezcueTCaTyf61YGD/IBL1hMgO8eJ22203642GphC0Ty6vZ9YlMZZe0JZ++blZM2eOqVmjhqlatapdbbZJkybF/r86aNAg+1z8Z1HjmP8za6b2NWbRmGyCXLJs2lvlbWy95s2bm99++y3y77EiOUjUSzN8UY9FM4KWiL/WrQvNjyUiLC+2KWTZbkdYfixRg7Nx/frQ/Fgi/lyzJjT/3yGBXR1h+bFE9fp760tSWH4sEWF5MZ59IsLyY4nYvPWlNCw/loiwvFhB6kUgXCHSgXQW9YQQQuQfiXpCJObaa6+Ne6Q523H77c3Yxwpn6q2zv8b/aMZ1eszstvVdqFu3buaRRx4p9r97PASPO+44s/3W+/efx1tt/89snDM0VIxLli3qd8XW8fMqc+mll2ZZrESkNxL10ow1ixebFlt/nwh7YZaI/9apE5q/+VZLxC2BvM4mfP55LEd2wvJjmxN8He15ww2h+XPyRLxjp51Cz/n6scdiObLCoD0sP5aoXkO6dAnNf/sOO8RyZOfWsPxbrdvWl65E3B6b0hq0rZWO5cjKr4MGhea3zyvBOc0TXOPlc85JeE6ieq1ZsiSWQ4jURqKeEEIIH4l6QiRm1qxZZs8998wiYpXcOiab3uMdG/suTJBLln18aV3zn913Nz179rRet8UNMf2uuuqqbCLnt522M5vmFk48PWerxz5mqlWpZNasSezQIdIPiXppyIY//jC3bf2dhlki/lu7tj3ecqtd7OVvttUSQV6Xz7ecRL2w/Fgi8ey9668PzY+gmIg2WzuQsHNyEvXC8mOJ6vVDly6h+W/LQdRDWAs75/V69WI5snPbdtuFnpOTqBeW3z6vBOc0S3CNnES9sHq13motW7SIvAgiRF6QqCeEEMJHop4Q4UydOtVcccUV5qyzzjKHHnqoXRxin332MQeWLWvm9/7U/DluTKgYlyzrfdVl5vqGDc29995r7r///kjYPffcE48riDE9ecSLu5nN834IFeOSZesmvW4+7NnNbNyo//1MQqKeyEKpUqXsVwUJMyK/ELuBtsRf4l6IVEWinhBCCB+JekLkjw2rVprf+31V6KLegMY32MUyosTEiRNNyZIl7diId8qRI0eaX97br9BFvbUTXjF/r1u8tQYay2cSEvVEnGXLltmGBxsyZEgsVYi84QLk8qVOorBIdSTqCSGE8JGoJ0T+2Lh2rZnzXvdCnn47zgxu0cRs2hCt/82KFStaUW/EiBHxd7Rfex1nNs/bOsYOEeOSZcuH32U2/bl869U0FsskJOqJOAceeGBc1NPfhMgPdevWzfK3o5dIkepI1BNCCOEjUU+I/MG7ydj77jbrR48MEeOSZD+NM9N79bSLBUYFHGWmTJmS7d1s4Q/NzJaF4WJcsmzOxyeYzRvXxK4oMgWJesKyfPnyLKIM9sYbb8SOCpEYOqzgMvZ16tSRt55IaSTqCSGE8JGoJ0T+GdD0RrNu1IhwQS4JNvON181fW8exW1/YYleMLn+tnmHWT/vImIWjQwW5ZNiM9ypL1MtAJOoJS5kyZbKIMhgDRQkzIjcaNmyY7W8Hi8LqU0IUFIl6QgghfCTqCZF/5vT7yqwfMypUkEuGDbzp+sjF08uJGe8eWmhx9f6e9Y1Z/ev7ZstmxTfPNCTqCbNkyZJsgoyz/v37x3IJkR0Ej6CXnrNatWpJFBYpi0Q9IYQQPhL1hCgYA5sUjrfe6iGDzPzvvjVbNm2KXSn6LB7aymyaMyBUlNtWm/HuvmbzxtWxK4lMQqKeMJUqVbIizPbbb2+uu+46c+SRR5oSJUrExRkhEnHttdfG/06uvPJK+9P3+ly/fn0spxCphUQ9IYQQPhL1RKrw+++/m3Llypl169ZZ540KFSrY7bVr15r99tvP7LjjjnY/r5x00knxd/ry5cubcePG2feO008/3SxcuDDXd6UFgwaa3/v2SfoquN/fcJ3ZlGJjjS1bNpuZHx6W9AUz1k183fwxt4/ZslkzpTIRiXoZjlvxtnPnzrZBHjRokKlfv7499u2339pjH330kd0XIgheegjBdOx06uzzdzRv3jy74lPjxo0jL4oIEYZEPSGEED4S9UQqwXsMwl379u3t3y7b48ePN4888oj57bff8vV+07VrV/PWW2/Z0Dq83zdq1Mhs2LDBlC5d2gqFq1evNnPnzjVr1qwJLZe07/HWS+KCGVOe7WzWbB1vpOI4Y/2SoWbZ8HZmy4IRoQJd/u1HM/PDY8zmvxRLL1ORqJfhvP3227Gtf/BFPcf3338f2xLiX3hh9PFFPcf06dNjW0KkFhL1hBBC+EjUE6lE9erV7d9r5cqVzcCBA83gwYNNkyZNrPi22267WTEur/B3VK1aNTNgwADTq1cvKyBwftWqVa1YuPvuu9vy9957bysYhsF7Sv9GDcy6UcNDRbr82Mw3XjNz+/ZJqWm3QZaO6WjWTHjZbFk4KkSky7ttWTjaTHtnH7P5r1WxkkUmIlFPZCFM1BMiL4SJekKkKhL1hBBC+EjUE6lEnz59zDvvvGNq1KhhPej4SailP/74w3rb5UfUA96L6tata8+7/PLLrcD30ksvmY0bN5rzzjvPTs+98847zZw5cxK+O23Z+q4y4KYbzB/Dh4aKdXmxKc88ZeZ+0y+lBT3H4hHtze8/tC6wxx6C4Iwe5cymDStiJYpMRaKeyIJEPVFQJOqJdEKinhBCCB+JeiLVIP4dnnWbNm2yMa9dnL2gqMdUWt53EOj4yTTb4HvF0UcfbXbddVd73rBhw2zZixcvtvnr1Klj/zfuuuuuHEU9x8j777bedn+OHR0q3IUZQuDAxtebldOnR/7dLD+sXzLc/Pp+JbNxznehwl2YbVk0zqwYca+Z8+XZZvPf+RNnRXoiUU9kQaKeKCgS9UQ6IVFPCCGEj0Q9kWowzZaFMniXadiwobn33nutcBcU9fbff3+7uMbJJ59sJk+ebDp06GC++OILKwY6Ro4caRo0aGAFQBdbz5VxwQUX2P8N4vfNnj07T+9O67deb2CTm8y4jveadaPDV8b9a/yPZsFHH5jvb7jWzPr8E7P5742xs9OLLZs3md/GPmRmvHuAWfPjc1a0yy7mjTObF4wyC/vVNTPer2g2rJpOsMJYCSLTkagnsiBRTxQUiXoinZCoJ4QQwkeinhDJh2m08wd+b4a2u8N8d2Mj822Dq0z/a682A5s3Nj92ftL8tXp1LGdm8PefK8zcby+xwt20t0qZaW/uYn7pvpeZ+fExZtXUN83mTanRBomiRaKeyIJEPVFQJOqJdEKinhBCCB+JekIIIaKIRD2RBYl6oqBI1BPphEQ9IYQQPhL1hBBCRBGJeiILEvVEQZGoJ9IJiXpCCCF8JOoJIYSIIhL1RBYk6omCIlFPpBMS9YQQQvhI1BNCCBFFJOqJLEjUEwVFop5IJyTqCSGE8JGoJ4QQIopI1BNZkKgnCopEPZFOSNQTQgjhI1FPCCFEFJGoJ7IwYMAAc9VVV8X2hMg7CxYskKgn0gaJekIIIXwk6gkhhIgiEvWEEEKIABL1hBBC+EjUE0IIEUUk6gmRhowYMcJs2rQptpcVvDHzw9KlS82GDRtie/+Q3zLGjx8f20rM2rVrrTlWrFhhFi1aFNsTomiRqCeEEMJHop4QQogoIlFPiBTkl19+MTvuuKPZYYcdrL388st2UO8EiO233z6+HRQlyO/S9txzT/uS6uyll16y6T4HH3ywuf/++2N7xgwePNiULFnSbNy40fz999/WchM+8jIt96KLLrLxHF2+u+66y+y///4Jz6NM2q6cTEKHKCgS9YQQQvhI1BNCCBFFJOoJkYJMmzbNnHfeedYbr0SJEqZt27amRo0aZp999jF77bWXFbTKlSsXN1+Y8EW93XbbLb697777mhdeeMFuO3gZdIIc1+In10PwcMa1fv/999gZ/0A+Vy7kJuohEJJn3rx51ssQGzlypBUnhw8fHk/zofFatmyZFTQfeeQRs3z5cnPqqaeaMWPG2G3Kk9AhCopEPSGEED4S9YQQQkQRiXpCpCCIeuecc46ZOXOmFfcQHvDc42fz5s1DVzBGjGPwz/87P5s2bWp23XXXuBgQJuqdf/75pl27dmb69OlWJLvgggvs+U5g69mzpznggAOyCQrPP/+8ueyyy+KCSG6iXuPGjc0hhxxievToYSpVqmS3w8wvg5fVevXqWeNa1MvtO5PQIQqKRD0hhBA+EvWEEEJEEYl6QqQgTtRDZPvuu+/M+vXrrSFAIKCVKlXK7L777tbTbdKkSbGzjPWEI83F28NTL5Got3LlSltW3759bb5hw4aZnXbayca9I/2ZZ56xQtq6detiZ/wL5Vx++eVZRD3KW7VqVdzcMbY5fscdd9h96hss86abbjILFy6M7eVt6q2zqIsyIppI1BNCCOEjUU8IIUQUkagnRAriRD1i2zHdlP9hhK5zzz3Xbi9YsMCKb8cdd5yZPHly7Cxjjj76aHv8iCOOsGJFTqLexIkT7TVuvvlmU7p0aZvfCRx471HOoYceGip6hIl65PeN6zLtlunAxx57bFzUq1WrlmnRokWWcp0o6MMzeO+996whMDLN+N13342nIXIKUVAk6gkhhPCRqCeEECKKSNQTIgVxot78+fPtQhYsVoE4xgvnMcccY6fEHnTQQXaw7zz1Vq9ebT3t8NS75pprzCmnnGLFMidahE2/BabtsgIu+bguQiKegIiGTIml/QiKH2GiXiJx5PbbbzcdOnSIi3oIksQFdPn5GXY+i3o0atTIehAGDdHy119/jeUUIv9I1BNCCOEjUU8IIUQUkaiXokR9oCkKFyfqMZBH8HKiHn8XeOO9+uqr5u233zbly5ePe+ohwLFyrVsZd9asWfFtCBP12rRpY8466yzz2muvmSeeeMJ69vXu3duKgixSAazEywId1MGRH1EPfFGPfOR3IsXPP/9spxIHz0fUQ2Dce++9sxnPQqKe2BYk6gkhhPCRqCeEECKKSNQrYvBu+vrrr3O1fv36JRxM4omEGJMX+N06sYU4alzfN/8aDz30kKlWrVps718oI6epjDfeeKNp2bJlbM/YxRfefPPN2F5WWJW0S5cuuZrIGSfqLV68OFTUu/fee+2KsPvtt58V9TZs2GDKlCljj7t84IttTtRDrEPw4++D43jq1alTJ0ucu9atW9vfM38bfsw+x7aIekD+3377zW6z6MeLL75ot30Q9apXr27at2+fzcqWLStRT2wTEvWEEEL4SNQTQggRRSTqFTEIDTxvYoYlMgQy8hBvDFjdtHLlylmM43he+WlMuwQGoQgtiDnkc9uDBg2y+775ccrq1q1runbtGtv7h2bNmtl4Z/DKK6/Ynz4MJCnHeW0Bgh51C4O6UFdWU0WUGjhwoN3mRYln456PD9egXp06dVKctBiIesTP42+DZ4hg64t6/F6//fZbK9RNnTrVnuN+Ry4fop0v8DlRj98Rq96S7v4GAWFwzZo1dnqsY8aMGebxxx+P7f3Ltop6rGb74Ycf2nP8hT18EPXuvvvuLCK1s+OPP16intgmJOoJIYTwkagnhBAiikjUK2LCRCu845je6EMeJ6gcfvjhWVb+DIO8TI0EBJD999/fVKxY0ZbDNhbs2FlYwIl6V1xxhRV4eAHAM4oyMM53QhrbiDg+DzzwgF1EAUGQ44nMgWAUdjxoDgbU7BMLjmmVbAfrkIk4Tz3gGSGa8WwQSPkdEj/vwQcftCJxECfkNWjQwIqCDifqvf/+++bKK6+03n94hVaqVCn+e8Erk/PZxhvOxdpz8DfDec8++6ypV6+e/btkn/q5bd8cTtT7448/bN1Z/IOfc+fOteeyQi77HHcg6vG/gQgeNP5WJOqJbUGinhBCCB+JekIIIaKIRL0ixol6N910k/VkwhDF8Cxy+3369LF5fFEPcYNzE9mKFSviop4P5fjiiY8v6hGDjbwMYvmJOIPnX8eOHe1x+Oijj+wxBy827OMRlgjfqwt69uxpPvjgg7gR9414aX4a1qtXL5uf6ZX8kTqI5cZ00EzHF/UQZBHQEB+cAEesORabQJjwF50AJ+ohli1ZsiSWakznzp3tuRh/g6x+e+qpp9ppvPPmzYvl+gf+Pp577jn7N4fgynRdQCTk95UXI96fq5cT9bgn7iGRsTLujz/+aAVr/m4wJ1r7Rp0on+2oizIimkjUE0II4SNRTwghRBRhbL11DC9Rr6hAgON5MyUS0QQ78sgjzf333x/fJ5YYeZyohyjHwJK0RPbVV19ZoQXwZkIkxDjmthFwmMrojGNO1HMCnbvOLbfcYn+Sz3mBORs3bpw9Z8cdd7T73333nd0nH/fnw3H3AsSg84cffshiCENnnHFGtvQhQ4bYcxis+tM7EQkp091rpsLfBvEJISja8pydxxwWfFYIxMACF0E4Nz/iAH8vTOvdVkGBOhEfMC9wTVfPvJgQBUGinhBCCB+JekIIIaKIRL0ixol6wIIYffv2NQcddJC59dZb7fbQoUPtMfI4Uc/BuW6AmdPvjPNYaAOrWrWqjXHHNi8iiHSU4cwxfvx4O2WRgSFlc4xtPw8Q5wzRDRHm4IMPtlOHnahHHLRWrVrZbeBcV5bPhRdeaD288FAMGvmZZulgf/bs2bG9fxYaIY3pmEIIUVhI1BNCCOEjUU8IIUQUkahXxPii3p577mlq165tp05iVapUsSIckCco6pHmvK5y+52xuAV5zz77bBtnzYGo5+NWGD3zzDPtNEs8CGvWrGnTmLYZZg4Gu76oh9C2zz772G3Ao49FG4Ig6l199dV2ymXQ8P4Linp+PEHi+5EmUU8IUZhI1BNCCOEjUU8IIUQUkahXxARFPV/AIvB/IlGPmGYsTODgeNB8XLwyRD133HnqOZiaSXw1wPOOPGXKlMniLbho0SI7vRLDYy54HV/UA467wSXTaoOr6QKi3hdffGGFuaDhwec/E0S+zz77LLZn7JRTrpHp02+FEIWLRD0hhBA+EvWEEEJEEYl6RUxQ1CPg/4EHHmiN6aeJRD085BC43AAzt98Z4t2cOXOsqIf3HedhnEcaCw7wy69cuXLsDGMFPI6z8iiwvWHDBrsNiG7B6wZFPeLqudVyqYN/vgNRjxeN22+/PZsFPfWoHwt2OFhtlwGsEEIUJhL1hBBC+EjUE0IIEUUk6hUxvqiHeBU0f3qtE/WId8f+o48+ag455BArlOX0O+OFg+MYohsrpTq6detm7rvvPmtPPfVULPUfTj75ZGucxwIa/MyvqMdKrIiCTOtF4AsDUQ/BDwEvaJTPc3CwcAhpxOpjMRG2iREoogF/r27hjZzgd5poIQxE4ODqukIUNxL1hBBC+EjUE0IIEUUk6hUxTtQLLhARNPIg6jFQQxzr37+/Pf+jjz6yx7Dzzz/ftGjRwtx1112mc+fO5rbbbrPeeQh3F198cXy6LHHuLr/8ciuMETfv2WeftavOdurUybRr186WSzw78gJTZlkp110naD5O1CtXrpydOluyZEn7k0EmednG8MJDuKH+xPvr2LGj3Q5aiRIlTI8ePUyvXr1iVzDm559/NkcddZSpVKmS+f7772OpIgqwGjF/n7kJH23atLGeqWH5ECX4u4m6eCIyC4l6QgghfCTqCSGEiCIS9YoYRDdEO+LZ5WQIIIh6DChvuumm2Nn/wrFhw4ZZ771rr73WLriBrVmzxk639b2neAFhpd0nn3zS3HzzzaZRo0amfv36cQNWrnXTZh277757Nk890nxOO+00W4+we/CNAeeAAQPMgw8+mCdjmq0ofnITNPIq6nE8keggUU9EEYl6QgghfCTqCSGEiCIS9YTIUFq3bh33vmRKtBMvjjzySOtJyVRvjiFCMx3bgRco6bvuuqsVi/Mi6iHSHnHEEXFx76STTrJlOOEEb06EarxKX3311dhZxi4O07hxYwl+osiRqCeEEMJHop4QQogoIlFPiAwE70/EOKZEs7Ix054RMRAw9ttvPyu49enTx3p+It6RxrGmTZvaeIgzZ860RhnkzU348KffnnnmmVaEwMvvp59+smUg6nEML03Kw0OURWOIs5hb2UIUBhL1hBBC+EjUE0IIEUUk6gmRYSBSIKT58QlZkMR53CHgnXHGGXEx4+mnnzalSpWKn0fsQ0fv3r3j5+WEE/UQHshPnEQH08edqAc0SkzHpV1iyrcQxYFEPSGEED4S9YQQQkQRiXpCZBhMc0VY4/8+aAgYiHo33nhjLLexqw37op6/Uu3SpUvzJeoh0pF/7dq1sSPGLgLjx9TjBZQ8LVu2jLygItIXiXpCCCF8JOoJIYSIIhL1hMgwNm3aZEUzVmJ2kOb2EfX8xVmCot7w4cNjR4wZNWpUvkQ9J9gtXrw4dsTYVZt9Tz3EFGLr0S7JU08UFxL1hBBC+EjUE0IIEUUk6gmRgRx11FFWtHCCxamnnmp22GEHu5+TqMfqxy42HiDQ0X7kJnz4MfU4h3h5bGNc14l6bdu2teUhUFAPVychihqJekIIIXwk6gkhhIgiEvWEyEBYiIJVbfnfx1gM4++//7bHWHG2UaNGdhu6desWnx7Lyywvte68Vq1a2Z+5CR+stMv1yMdKuiyA4cro1KmTLXP58uVW8PNj9rHfsGFDCXuiyJGoJ4QQwkeinhBCiCgiUU+IDIaXPWLs5RdEQabsFhSEkm0tQ4jCRKKeEEIIH4l6QgghoohEPSHENjNnzhzr3RdmTZs2laedSDkk6gkhhPCRqCeEECKKSNQTQgghAkjUE0II4SNRTwghRBSRqCeEEEIEkKgnhBDCR6KeEEKIKBIX9eioZDKZTCaT/bMYTKqIettvv33oPchkMpkseUa/kEqiXtg9yGQymSz9jMUl5aYnRETgH1IIIYRIZ6655hqzdOnS2J4QQgix7SC6165d26xfvz6WIkTmIFFPiIiAx40QQgiRrrDq+U477WQOPPBA8/fff8dShRBCiG3j6quvNjvuuKP5448/YilCZA4S9YSICBL1hBBCpDN46dHXMZVRAy8hhBDJYMOGDaZUqVK2b6lYsaJZu3Zt7IgQmYFEPSEigkQ9IYQQ6crGjRutlx6DLmz//fe3aUIIIcS2UK9ePbPDDjvE+5d58+ZFPi6yEMlEop4QEUGinhBCiHTF99JzNmXKFA28hBBCFBhi6TkvPWeHH364WbduXSyHEOmPRD0hIoJEPSGEEOmK76Xn7LjjjlNsPSGEEAXmoosuyuKl52zZsmWxHEKkPxL1hIgIEvWEEEKkI0yNYoX34KALW7NmTSyXEEIIkXf4KBT00nNWoUIFxdYTGYNEPSEigkQ9IYQQ6QYBzJ2X3imnnGIHWvfcc4/ZZZddbFrZsmUVW08IIUS+cbH0GEN16tTJlChRwpx//vlxz70lS5YoxIPICCTqCRERJOoJIYRIN1q3bm3KlCljVq5cafcrVapkBg0aZDZv3mxGjBhhdtxxRzvwEkIIIfLK+vXrrZfeZ599Zj32Vq1aZfdZWZ0PRfQ11apVU2w9kRFI1BMiIvBVSQghhEgnnJjncKKe7z0xYcIEeVMIIYTIM9OnT7cfhxy+qOdgEQ0/jxDpikQ9ISKCRD0hhBDpTpioJ4QQQmwLYaKeEJmCRD0hIoJEPSGEEOmORD0hhBDJRqKeyGQk6gkRESTqCSGESHck6gkhhEg2EvVEJiNRT4iIQLBwIYQQIp2RqCeEECLZSNQTmYxEPSEigkQ9IYQQ6Y5EPSGEEMlGop7IZCTqCRERJOoJIYRIdyTqCSGESDYS9UQmI1FPiIggUU8IIUS6I1FPCCFEspGoJzIZiXpCRASJekIIIdIdiXpCCCGSjUQ9kclI1BMiIkjUE0IIke5I1BNCCJFsJOqJTEainhARYaeddoptJWbWrFmmatWq8cHQt99+a8qUKWP3X3zxRbPXXntlGSgtX77cLFu2LJutWbMmlsOY999/37Ru3Tq29w+1atUyn376qS1r+vTpoeZIlCfYqe6zzz7m9ttvj+39w3bbbWc+++yz2N4/HHjggeb//u//styH46OPPjK33nqr2bRpk/n7778TWhDK2n333e25bG/cuNGWEWThwoVm3Lhx5rrrrrMvBr///ruZPXu2zctAdNq0abGcQgghCoJEPSGEEMlGop7IZCTqCRER8iLqTZ061QphDIbKli1rSpcubQUwBLOSJUvGt08++WSbv1y5cjYtaE2aNDG77LKLufTSS03z5s1tmhtgbd682V6jdu3aVsxiO3g+XoUu/7p160LzfP755+aFF14wZ511ls1LnhtuuMFuH3zwwebmm2+2+d555x1bzkMPPWQ6dOhg9txzT5vOdrt27eLX4ef2229v7/PBBx/Mcq2guXNgwoQJ9to777yzWb9+vT3mntv48eNjuf7h3XffNTvssIMV9fjJs0RERQiljCVLlsRyCiGEKAgS9YQQQiQbiXoik5GoJ0REyE3Uw7tuzJgxVoxauXKl9Xq75JJL7H6bNm3MaaedFt9+7LHH7DkMmi6++GKzxx57xMW677//Pi6Q1a1bN5uo995779l9vNlIwzgPjzq3XbNmzXh+J+r99ddfWfIj6t10003xsklzoh7Xdtd98803bd3Kly9v85CGsY2567hj1AvbsGFD3Dj22muv2e0///zT5ofOnTtnKTPM8FR0DBkyxHTt2tWcf/759lirVq3M4MGDzYABA7KV8+OPP8bOEkIIkVck6gkhhEg2EvVEJiNRT4iIkJuod9hhh2URlRDZrr32Wivm3Xjjjeaaa64x1atXt9sOtitWrGjLdgLbhRdeaJo1a2ZFqjBRj3S89P773//adAQ00oYOHRo//tZbb9ltcKIeU1URGzH2cxL12CbdGWIa52OVK1e2XnK//fab3ad86kk+psd269bNXhfxzgl4wTo58KzjPj744APTo0cPm48pvJRLPY477jjz+uuv27zs472I4Ojqtdtuu9k0niP7TzzxhPXy43exePFie54QQoi8I1FPCCFEspGoJzIZiXpCRASmh+ZGvXr1rLiE0MbUVsS6tm3bxg0xjuNusBQUz5whVHEsKOqdeOKJdpty+Yn4h3BG3ttuuy0+DZXpt9SXc3KafpuTqPfLL7/Yn2+//bad9hpWBvbwww/bWILcc5cuXeLnEj/w9NNPj5cXFPWOOeaY0PLC7IILLrDlICRSFsIi6YiLTPV1dSMPoh7Pmm0hhBD5Q6KeEEKIZCNRT2QyEvWEiAh5EfUQmRCXELQQ9ZwoFTQ3WOInghQefMA202+BablPPfWUadq0afyc4cOHmwYNGti4dQh7xNTDq43zSENce/nll02JEiXsghbuOky9ReiiHKbAss+U2saNG8fLpgxEvbFjx8YFQdKIqcfiFs7zDvv555/t9GJi4LkFLRYtWmTzH3744fbc//znP+aMM86Il8OzodwjjzzSpq1evdqsWLHCLiDCcRbKQPhDbGRhEOr19NNP2zy8AKxdu9bmQxglph4ee/fff78ZMWKETSc/LwxsU4YQQoj8I1FPCCFEspGoJzIZiXpCRITcRL033njDCksYnna77rqrFZiIn+fs6quvjoto4DzvpkyZYvfJ70Q9YuftvffeVrwi3Z3z3Xff2f05c+bYDtLtU87cuXPjsfl69+5t8xMLj8UtqD952MYQCxN56jlIY7EO4tpxP9wX5soibdiwYWbUqFHxOkyaNMmeGxT1iINHPMFHH33UpuF9R34Mb0SEOrZZoOP666+3YqIr86STTrLnIGoiIiIQMiXYwYIZCKmXX365zY8QKIQQIv9I1BNCCJFsJOqJTEainhARITdRDwHq2WeftaISQhfiXI0aNcyZZ54ZF6bYx3y6d+8e2zKmT58+5vjjjzcLFiywnmkNGza0cfmIVQdMb6Us31i9lp94+yFs4cnHvhuQIZJRDp59ePOxzXG89MJEPTzomEZMvDqOYV9//bW58847rd19992mfv36Np1txMWRI0eaI444wqYlEvWC028R8iiHGIKcRx7EQQaU7OMxiEh3yy23mE6dOsXFSo4FjWvg1eiOazAqhBAFQ6KeECLV4EO2i8fs4D2c2M3JbMuI15zM8njfnzBhgn3HdUydOtWMGzcuSxpjAmJnu9kxQX744YeEx3KCj+AsLOdfKwyOU/7o0aPt7B0MWCBw+fLleXomxPRmNg/3IkSmIVFPiIiQm6iHiIXHHcISIhj5nSE0+dB0zAUAAEQPSURBVPsHH3yw7QCZOrr//vvHbb/99rN5y5UrlyUdrzagIyReHkIYwqFbWZZFONw251955ZVZOlg6Yo61bNnSprPNFNcwUc+JZyeccII9Rkw9wGOQupD3m2++sXn8a7gy8irqOXgZ4GUEkZF8GC85TlR0LymUw7Rhjrdv397eL9OMiTvo6sEx6u3XSwghRN6RqCeESCUQppg5gmDEh+6zzz7bCkik8UG7WrVq9t2Qj+ZuAbeffvrJhn3heCIjJrXPm2++ad/hie989NFH2/dxZo74xnUdlB88zmwX3uWJQw18iCfdpRHWpmbNmjY+NNenHea9fPz48fZ+1qxZk02AYxYL5SL6HXLIIaZChQqhRnxsJ8YBH+X52M/7Nl5099xzj70GjgR++8/HfvIRZoefCJsu5A8ziig7L0IdomuVKlUk6omMRKKeEBGBjjw3+LqGsIS4h4cZhjBFGj/xkiPtvvvus/n5EsfLhzPndYdXn5/OtFUHbutMPeXlpUOHDjY/027nz58fvw6rwPq41WFdR0o+vN/ooKmzSwubfss0WJg2bZrdZ2GMZIp6vEBQNwQ66kQ8PPIjIvIi4cM0YI6RH2PbvaA4ERJjwRAhhBD5R6KeECJVoJ1CAENgK1OmjH0vJHYzH8nZ5j2U98lzzjnHGh+EAXGM2NDuXd03yuJdMijqIX4dcMABVnjj3Zhr8A7buXNn+z4eFALJT/qnn35q320JQ4P4hpjGMfIyLnCiHh+4OX7yySfHRT28DUlz77fOmCGDuMd7MmURhob8jB9YiA5z5x111FF2/8svv7QfynlvZnYPz4XjhMXhWVxxxRXxe2fmkP9RvWLFiubVV1+17+oXXXSRfcZcj+m0CIl8bGf2ziOPPGI/wIeBCMi7uv+MhMgUJOoJERHyI+rRAb7++uu2g6dz5CvioYcearfpDF1HyUIPvt177702D1NTg8f4MuavGMtUW37S8btVdzE3NdYtlOHizFEG0xNYLZb9r776ytbjiy++MIMHD7b1ZjVdfyBHmhP1gK+BTIvlax5l+HnZJj+iXtmyZe02Lwe8aJCXL5ZsY4iQDl5kfv31VxtvkHPIe+6558afkU/fvn3jK98623fffc1pp51mt4kviJcj5cycOTN2lhBCiLwiUU8IkSrwfs37Je+6xIreY4897Ids3gurVq1qmjRpYt/F+ZlIbHJMnz7deqDxPhn0VkNEQyTjAzoCF4u8IWzxARuRio/SYaLehx9+GH+fpX6kJRL1unXrZscaTmxDMEN8ZEYLH/O5/rx58+yHa7z6nKBH3jDvN0Q6V3YQd5/E2Hbv3nXq1DEtWrQwp5xyiq0Ds2Z4BsykcWKfb0y9ddd3xpgk7HqAIwNiokQ9kYlI1BMiIuRH1KMD5ifu+f5LAcIanV6jRo3sPp0tHWdeDNd7hEJeKCiTTpNOli+GvNDwkuFeWPhaxvX5infYYYfZlxvOYbBGOp04Lxmkuc6cn5TlQ5qbfutw+fla59+bKwtRj+nFBx10UEJDoHTn8Awoj58Ikoleuty0YOqOeAfEAbnrrrvsi07Pnj1tGvDl1C0UIoQQIu9I1BNCpBqIS4SIYRZL0DjGO2tOYhKL2SHKMZ00+C7M+zLv2ZTfqlUr++6N4MXHej6wUy4fszm3V69e8fdYrktefmK85zKWSCTq4VVIOu+wvPfjscc+77jOSYBtzJ3PdRH+eDdGUEM44+M2s3rCRD3i9/HRnzzOeLemfMpyaXg98pNzuc7//vc/e13qwLUph3sljXd6wg6xndMiGIQNwlsy+HyFyAQk6gkREXghiCrB+BqpBLFJNHgUQohoIFFPCJFqIDQhOCWy3EQ9wuIguIXlQdSjfPcRmmm0TON1ghjx6PDY4xocJ3YcMCWVaa0IZngSst22bdt43OigqIf3HDN2+BDvpt+y2B3xr52xeN71119vvf7cVGIWiqPuAwYMyBJ7z4l6zz33nJ06i3cfs22Ia4fY6e6HGS/cC04AiImUhWDJPnW47rrrrDjJlFzKxqOPe0IcJP8DDzxg43RzXk6iXv/+/U2tWrUk6omMRKKeEBEhyqKeEEIIkQwk6gkhUg1EMrzVmLUSNN7ffVEPUQ4xygl+OZkfh4+ZJohZrhw3hZWY0cSpa9euXfw6TI0lzA2zRkjr0qWL3cbwbAsT9YBruYUyRo0aZc978sknbaxsDOHskksuMU8//bQV6Z555hmbhlHGzz//nE3UQ5DDOE498bDD85C633nnnTYOH8+D0DgdO3a0ZXGcGH/k/+CDD+w2U4kJA8RiIPQPPO/zzjvPCposlkF4HPdswiCmH+GCJOqJTESinhARQaKeEEKIdEeinhAi1UAkIxwLAhTik2/EvmNqqBOcCJUzevToLIYXHMIX4pWfzsJ3zIZ56KGHrKCHpxxebU48w0ONdDzUiOd37LHH2hV2J06cGJ+uGrTZs2eHinq0uW56rAt1Q9nB8zFEN853wmJOop4TDOHjjz+24xnCA1F3V0cWwKNMzE3hdV6IxCNkajHCnwuDw7RjYhDybIj9RxmEGMopbiFTeKmTRD2RiUjUEyIiSNQTQgiR7kjUE0KkGghLTghDfHLGPukIXTl5keU0/Za2EBHOlYVI2LVr13h+J6xhLNzhg/ee85IjRjXnJBL1/HLc8aFDh2aJVUcevPfwoAPEuAsvvNDeX15EPR+eGYtg0N5zDve2aNEie40TTzwxLr6xYN7FF19sy2rZsqW54YYb7D2xYAcg+FFnN+04EcS+btCggRU9hcg0JOoJERHoVIUQQoh0RqKeECJVGDhwoDnrrLPM6aefbg455BArTLHCKvsYwh6r4LJNrLpEglJOoh4gxNEmIq698MILVshC2CI/HoJ41BGbLuiFhkDG4nGkE9uOa7CCLVNsqYsv6nEviHHcj4up5+LvEZOPqblBUQ9q166db1GPqcGXXXaZPY4g16xZM/PRRx/ZsY473wcPPtLxfMQj0U215ZmwTxnEzHMr/YbRo0cPG59Pop7IRCTqCVEM4E4e7NjDRD2C0gohhBDpgkQ9IUSqgCcbQpETx5hVc9VVV5lrrrnGeoWRxiqyV199tU138fGC3H333Vni5fkgcLFwhPP8c4YId+utt1pxz6Xh0eauwRRXREZi1dGe4uHHvn8NxLqg8OZi6rl8eMp98cUXVsjLSdRbuHChzcd4hWnDLEpB2Wyz4i4CoWvXGecwhZbnN3LkSDullvpTxzARkLo4jzysUaNG9j732Wcfu0/sQu5t6dKlsTOy061bN+sZKFFPZCIS9YQoJnBnL1++vO2MwYl6fIV6+OGHbSeWU+wIIYQQItWQqCeESCVYfAHxCkNU8tsuvNxGjBhhRaww3LRazHneBeFdn/EAIiECGcIa3mm0lQhZ/MQTj6mplHHRRRdZ8YptFrJg1VjERq6BFx6i1gknnBAXCX0BD4KiHjhBkPyffPJJFo84J+qxci6egO5+gkasPlcmXoNlypSJl4mXoy/6+ey33342H/VlYQ23ou8BBxxg0xEFeb4uDl+iFXBfeuklG5tQYyeRiUjUE6KYoGNzHSFfp+jA6MhcB4jbuhBCCJFOSNQTQqQSCEpDhgwJnfrJyrFBoc/nu+++M3379rVGPLy8tHusOos3G9d1C2k4fvzxR1sPymEqLMewyZMn21VvXfkzZ840gwcPNsOGDcvmPUicvFdffTWLN960adNMv379rGdd8D4/++wzK5hRDuckMv88xD0W/UDwzE1k4/kh+Pn3SVnuObh74vikSZOy5PNB0HvttdfseUJkGhL1hChGWDbeCXtBU6ckhBAi3ZCoJ4QQItnccccdpnv37lZgFCLTkKgnRDHCV68wQY+Au0IIIUS6IVFPCCFEsiF+YK9evSTqiYxEop4QxQyxOoKingY7Qggh0hGJekIIIZLN2WefbT799FOJeiIjkagnRDHDNFtf0GOFLSGEECIdqFGjRpZwEkFRj1UTX3jhhYRxkoQQQojcYHGQr776KjT2oRDpjkQ9ISIAq1U5US8Y0FYIIYRIVX744Qe7SiMrLq5evdqugoioR2D2UqVK2X5PMWSFEEJsC4cffrjp37+/RD2RkUjUEyICsDIUAxvF0hNCCJFuOPEO23nnnbPst2vXToMwIYQQ20SFChXMgAED1J+IjESinhAR4bLLLottCSGEEOkDU6Lw1nNCnm/y0hNCCLGt7LHHHmbw4MES9URGIlFPiIigoOFCCCHSlZIlS2YT9Dp27KgBmBBCiG0GD/Dhw4crPqvISCTqCSGEEEKIQmXkyJHZvPXkpSeEECIZIOqNGTNGop7ISCTqCSGEEEKIQqd06dJxQa9169by0hNCCJEUEPWmTJmimU8iI5GoJ4QQQgghCp2xY8fGvfXkpSeEECJZIOotWLBAop7ISCTqCSGEEEKIImGXXXZRLD0hhBBJBVFv0aJFEvVERiJRTwghhBBCFAlDhgyRoCeEECKpIOotXrxYop7ISCTqCSGEEEJkKGEDoPyKbpk4iFIwdiGEEEJEAYl6QgghhBARBcGMOHQPPvhgQiFpzZo15sADDzR///233SdeHed89tlnOQpuX3/9tdlhhx3M77//Hkv553o77bST2XfffePlOWbNmmUXu/DzDxs2zF5r8uTJ2a7F/kEHHZQtfh73wTWGDx+eY/3CoF7lypVLGJNvw4YNZtdddzWHH354wjzr1q0zbdu2NW3atMnR3nnnnfgzHzVqVJa6VqxY0V7nr7/+iqUIIYQQQhQ9EvWESDK89BMEPK9ce+215rHHHovt/QNllC1bVlOUhBAiwzjzzDPNdtttF18lNidzotugQYOsOLfzzjubP//809x7771m++23N4ceeqg57LDDslhQqAsKeF27drVlBUUsOP30023dEMsOOeQQK2wdcMABNo2pT+xjiIwwbtw4K/hh1MvhRL0RI0Zkucb8+fPNf/7zH7PHHnvEjXvz81SoUMHW1wl269evN7vvvruN1efMPR8/DWvXrp3tV5cvX26vX6ZMGbPPPvuEGufXr1/fPpfLLrvMPs/Ro0fH68Kzrl27tlm1apVZu3Zt3BAMhRBCCCGKCol6QiQRBgsMABgMuO077rjDDnh88zn++OPNxIkTY3v/0Lx5c3PcccfZwQMrOQkhhMgM6A8GDhxorVatWrbPoE9BaONnv3794sd9sQvvOcSz1atX25/kx5PMGWmc78SwI4880op+TvCqXLmy3XfXc/vEKHIghD3wwAM2GDmegeXLl7d5EeIQ2/Di46cT9cAJaCtXroylJBb1yFOzZk0rHjoBsXfv3nb71FNPtcZ53Mspp5xi+1hEPdI4r169ejna66+/bq/t6oTnIWJjmPFMnKhHHU866SRbH0Q8romox70Hbb/99kvoISiEEEIIkWwk6gmRJJiCg6cCxou923ZTdxwMFBxMfWIQ9NFHH9mBGiAGcj6DBmAQwQBDCCFE+rNixQrzyCOPWM+wkiVL2vYfEYsVY+vWrWv7hKOOOsqKfwhOHEdoch5jeK3RhyDGIfRhTEl99NFHbZlOcMLbDY9wJxayjbk+DG819p2od+ONN5oSJUqYJUuW2Pp899135rzzzouX6QRI56lGn+jq9ccff9j0hQsXWuNjFaLal19+abdJowzEs4YNG8a91MnDFF3fe49rUD+2OceJev703zfffNP06dMn3v/++OOP9hk4nKhHOTnZlVdeaZ+xAyHvgw8+MGeddZatB+Xw++L+ePYcb9GiRbz+QgghhBCFjUQ9IZIMgwoGA4nwRb0bbrjB5r3pppvi5+A9cdttt9ltYIDAlCk3WBFCCJGeIEI5jzo84hDQfvvtN9O+fXsbH2/p0qVm6tSpZq+99rJ5nnvuOXPLLbdYYY39c8891zz55JNxoc7Zww8/bMvzRT3HCSecYAUql96tWzd7vh8rDs87XwRDZLvvvvtseTVq1DBVqlSxaRxj+i1CGGElXD2qV69u6xqsl29M9x05cqS9/yZNmlhhjGsuW7YsVot/CJt+S77vv//e9pWkI0a6bcBT8cQTT4wLdE7UY7ovaYksTJxDpES8u+SSS2wetvE4nDZtmi2T35EQQgghRFEhUU+IJIEXAp4BX331lR2gsO08BfDGc8YxB9Ok2HdCoBP5GBzttttudtt5JTjPPSGEEOkL/QJikhP3wqxatWrxPgFhif4HLzo85ziXj0eIdRxjG8+/u+++O1TUIzZebqIetG7dOh5vD+86vAbZxmOOqbhnn322eeONN2wanmuUR72IW3faaafZ8pzhXYgA9sMPP1gPOtKcV13nzp1tGXzgQjBD1CPvL7/8YvvKoKjHNTiO2MlPpuvyYczdqxPwBg8eHP84hvBGGqIp1wh7xljwGXA+0545l3vgWXP+jBkzTNWqVe3vLHiOEEIIIURhIlFPiCRBjCG3Yh4v/G5lPV76EekmTZoUNwfTbwm0zaCEaVYzZ840Q4YMMdOnT7dpDhbT+Pzzz2N7Qggh0hkn6vGRCO8135hei6iHYOcTFPU4HwEMcQpRj/iuTujCmw4xyhe03D55/H36Myegsc1CHkxnnT17trn11lttfifS0Xex7bP33ntbUc+vLwIe+YMx9RxuKu9VV11l74epwE54DIp6xOGjrLlz55o999zTrnqLdyNpTD1+6aWXsomUc+bMsccRDKlXTubDc+Xjm0vHg5FnVKdOnWx5hRBCCCGKAol6QiSRgw8+2A5QGHT5MCBxMJhxg5GDDjrIfPrpp3bghtcD5zKViYDfvhHgWwghRGbgRD2EJyeuOUNwy4uoV6lSJeu1xjmIei1btoyLenjdXX/99TZOHmnHHnusadSokU1jMQoEtOuuu87uY1yLKaxOAMQmTJhgp9VSTyfq4bEWFOkKIuq5ulJ3xDiM/JTD1Fpf1KMM6oCHI6EsOM/lx1verWTri3rvvfeePYey/HsKMydSMlWXMn/66ad4nemfnTc93olCCCGEEEWNRD0hkggDEEDUw/MOY/Dii3oEBEfMg2effdZ6EDDoGTt2rB0oMDjo27evXTgDe//99215YQMfIYQQ6YcT9a644gorvPlGP5NI1GMKLGIe4hMx5caMGRMX9RDpnKjnGD16tL3Ozz//HO9jEk2/pR9C8KNPQuhy017xNnciGqIeQpq/KIUT9Zjm6+qck6jnRLrHH3/c1sN5wTFVl7xBTz0XQ5B9hDXKxUOvS5cuVuhjn0VCeKYOPAB5FixygbedExGZqsv+GWecYafm+qv48sENAc/dGz95tjxzwmXg/eg/WyGEEEKIokCinhBJgkEKghyDjqCnHgMOpk0RCBxB74ILLogdMeahhx6y5zEo4lxXhoOVB4lZ5Kf5gxMhhBDpBW08XmSEbggzhKRgP4DARP+B8BQ0Vs7Fq8wX9fiJ4BUU+hKJelxv6NCh8diwrAJLPj5CIbo5UY/FnRDyXJlMiSU/hogGiUS9jz/+2JaJ5yBlNmjQIItACEFRr3LlyvYeXR/q24cffmgFQqbo+uk8K1bZ5RqExKAu3BvHqBt9OGW6axO/kHNeffVVexxzz5vruuOsiuuESyGEEEKIokCinhBJgi/8DI4Q4PDQ88G74vLLL7fWuHHjLIOU448/3px00kn2XAYUDBL46QiKengikFcx9oQQIv3gw8/++++fJ8MjDRCZEK8Q3IIiGKvUshIt/YYT8L744gsrntHfEH/OJ5GoR79GfjzPn3jiCZunVKlStjwEP4SxY445xopbxLVz4hbppCGsORKJeg8++KAtIyiM4RnYrl07u4ov1+Xeua4rh0VBuH/ql5N9+eWX9plxDj/Z5zzKdGKlb+XLl7fXcdN0eSZuIQ/23eIdQBgNyjr00EOzxRUUQgghhCgsJOoJkSQ6dOhgp/Q0b97cvuyff/751jvPH7AE6dGjh81LHoKPsyIf+wwYfAtOv2XAgBcBU6aEEEKkD0xxZfpnXsxfFf3pp58O9eJu2rSpFfPoW5wISH+CsPXrr79m66MSiXqsLuvK5ydx+1weyuD6nEfsPT5yOV555ZVs9Uok6kFwH1x9uQeMMBYuvVWrVlYwZNovMWpzMj6ScW3EOuqOeIjX4/3332++/fZbu9jG2rVrbR6mLp988sk2H8Je9+7dbbpbAZh8Qfr37289B4PPTgghhBCisJCoJ0SSwAOPFXCBODzE+SHAOAOGKlWq2PhGxDrCeOkHPPB8LwkGKE7kcxDXJzj9FjiPaU3BdCGEEEIIIYQQQqQ/EvWEEEIIIYQQQgghhEgxJOoJIYQQQgghhBBCCJFiSNQTQgghhBCFAvHoghTGCrFh18krioEnhBBCiFRFop4QQgghRIpCXFUWcPAXcUCkYh+hixVZWTXd5QEWcTrvvPPMOeeck6u999578fNYaIPyJk2aFI/nevTRR9vVbcNENfKwwEWNGjXMqFGjzNixY826devsSrOUw4qx33zzjfn666/j12AhqPr165srrrgioa1evdrm9eE6Z511VlwwbNiwYXy13zBYFIPFPzBi3rrFp1zajBkzFLNWCCEiBO05q65PmzbNLnzkFj8ijf5lzpw51hYsWBBvv+mvXn/9dds/JrKwfoJFClesWBHbM3ZV9//+978J+xRWnqfvxfbaay8zceLEeFpwVXoHq90Hr09fyWrzYf0c/SNx1umLKX/ChAmhVhgfzkS0kagnRA6w2t2FF14Y2/sHBgn5edEvUaKEXTgjES+++KJdOTcne+yxx2K5/6VMmTJ29VzHbrvtlnA13B9++ME0a9YsR7vllltiuYUQQqQKs2bNsgKZWxk2N2Pw0K9fPyv+1a1bN26XXXaZueSSS7KkIXR17NgxLrjRJ3KePwBBTDvhhBNCBxEXXXSRLcO/fps2beKr8frmvOUY/Pgr3YaZW/3WMXv2bHvO8ccfb4U97LTTTrPXZjVhl0Zf51biPeKII7LVzbd99tkn4eBNCCGKClYTL1eunBVznB188MFm9OjR8bY5GXCNKVOmJBzjtG7d2opntI+sfs4CgU6sYgzBQoB8tClMaOPpg6iDa7/bt29vx1oIaaQhlNHeu9Xhf/zxR/PMM8+Yp556Kptxz5wTHKe9+eabpmLFivaD0+DBg6198skn9v7pP10avxv3vPhY5fqPMEOIdHn5mMUz23///c1rr71m+xrqeNxxx9nnSB955JFH2o9mfJRzHHrooaZJkyb2nvg74Fm458E5bt9fgV5kBhL1RCjBhqh8+fLm888/jx3NGTqYRF8kfCi3c+fOsb3s8KXcr8Pll18ef8GmfNKS2ZmFwTV+/fXX2J4x1atXz1InbMCAAbGj4dDI5iTqMfBgMHXTTTeF2sUXX2w7Fr+T5b7phPy0e++915YTBl+o6PRYMZcOAg8EvvJQBl+5li5dajuqRB25EEKIaEK7jaCGKPbKK6/YF3q+5pNGn+k89dh3wpsT9ebPn28HKv/73//sPgPFDz/80O7jBcBAyYl6DCD8vo99+pIwQREPA4Q2jjHwQ3jEm49BUL169ew7xcyZM+0g6J577okLbYng+qeccorts6hPMD8ftbgWK8vzwSuR0Ye7Z8CAiXv49NNPzRdffJHF9t57b1O2bFmJekKIYod391133dW2TYhMvXr1Mscee6wdX6xcuTKWKzFVqlQxF1xwge0XcoJxwOTJk0PHAg8++KBtw0eMGGHb43fffdf2D5SNePbkk0/a8Upu19gWaKvpMxiz0Kch3DGWqVChgv3QQxp9QJiHWxD6gWOOOcb85z//CR2jkU5/xTXoNxKZex5A3RBFqUvQEBx9Ue+JJ54wLVq0sKJi27ZtbX/o+mjEWjz1EOZcf8V5Z599tjnwwAOziHwOPl5R39z6UpG+SNQTofBSfuedd5qXX37ZPPfcc7YhIe2ll16K5UgMIhd5c4M8iUQ9XKc5fuWVV5qffvrJCop0Xry0A6IeX9ldQ1oY4L5MBwZ8GaIToU7Tp0+3AxknOgYFzIEDB5qbb745tpc3UQ/X8ERwLCjqMShiQEJnSh0SmTsHd3E6azoDniHlsU2eAw44wG7z1S2sIxdCCBFtGNjhqXbXXXeZcePGmaZNm1oxDWPq64033mi3nTecE/Xef/99O1ikr3P9BtvYww8/bMv0Rb2TTjrJDBkyxA6c2EdM45yPP/7YDrjoqynXDao4LzevO4S6nMQz7s3Vj+sE+33ul36tQYMGdgDE4BNvh6pVq2YxvAbdAAnoQ7k2HnlBo9+WqCeEiAJO1PO94GgHaX/79+8fbxOXLFliPvroI5vm2i7GLkwbRYD65Zdf4u/5CEB88Gcs4853ot6wYcNs34Bg5vIjMnXq1ClLm8hMI9rmtWvXmlWrVlnxivw4QzBW8o0+wZXFPn0FH3vyO+4gP/V0XmxBY8ps7969cxS3mKbLs7vqqqtCRUg+dDEmcmO3d955x3Tr1i2bBb0SEfX4+HTGGWdkM/ooX9TD4w5RkeeHZ+Gzzz5rfydDhw41b7zxhr0+3nzsjxkzxv6eOIfn+Mgjj9jrIwQiAHKvEvWERD0RCi/PQaEJIeiQQw6J7f3zlYOGm68SzsUZvvzyS3s+nZBrvBYtWmRj58ybN8/uA3kQ9eg0aIj46bj77rvtcR86DNKcqzNxDvjJCz/X8s0X0djmXvBIyA80tJyDuEnnwbUZFLkBCF+oaISDcJ8Mohx5EfXoLOmIEhnxftyzdB52YV9qHP4x6kqjz8DHGV4YfB3y0zDiOAghhEg96J/ob2644Qb7EzGNdh7D64A+zPXVTtSjf0Cgw0OPfoVzGGCwzzEGFr6oRxw++n68RBhkUibhHVz/xICCMnxPCfYpmz4zaNTT9amJYEDDgCisH+W6TjS89tpr7fURNhH1qKNvV199daio5+7XN56NRD0hRBRgXBMU9YgZRxqiHTCbiXaLD/V4GtO20WYyZZa2lnaSjxv0AYw52GfqJ/mY5YODAmIZxxCn3FRWnCxoZ0nnesQide29DzOLaDOpIz/Jj7kPMm+//bZtf6kf7f6+++5ry8epIL9TdqnnfvvtZ+sfNPosBMOcxC3CGjFOC7su98a4izq7PgfxEgeXoDEu9Z8Fz+2hhx6yY9ugUS9f1KM/XbZsme1/3fTbatWq2fFe0PAWdHXlJ/VjLPj000/bD3j8TiXqCYl6IhQaM77WOGiIaZjxnAMaE/IwnYXGm228wcB9uafBovE699xz7T75aMD50gCkuUadhpD9Ll262GO4cbPPVwgf9zWJLyscZ5+vT9TNGem83AMNN/sMaLgOnVRYZxSEhpfznHEdxDrgiw1pDBrCCBP1/PphPoh6LqgpnWqY+QMLOm2u74Q77ouvZD6kuXPIR6Bz304++WTbiQfTe/bsac8RQgiROjAwwLPus88+sy/1iGBnnnlm/AUfDw3SwkQ9pv7ccccdtq9iEHb77bfbuHf0SUFRj36cwSN9NvvE9WEg8sEHH9g8XC9M1MNTgfrhYeAbAxGu6/qr2267zdaLPsw3+rxgGlN46R8pn30n6jVq1Ci0DLz7/b4UUY/3FeIqEcvIN+6Pe/XzCyFEceBEPTcmcXbNNdfYNhD4eMNMKTdOYtyDWEQ77k+/pd2lzXRjCDzBaOcZRyCW1alTJ+69hkiGYwMe3oz79txzz/i1mfKKV7S7vi/qOagL9cD7mXTGR9wHYhhwHfocX+zKC9QTAYsPPkHjwxPOJa7vw4ObWLG+MQ5l/ErcWD+d84mlh2CHEOpEvdNPPz3bRyLMX4wD6Dfw8mOKdNAQ4vz7xLmC/sUX9YJQnvN+BH4PPE/CbJCfvqqpJ+rRl7rfj98Hi8xAop4IxTUKQXOdBXETfFGLzoKv28D0U/ICnQTb7ksSjTr77ieNnIOXfr7ggBtAkAejoXrhhRfiU4d8Uc/HxdyhsXPXcB6ANIqU89Zbb9n9vECH1bJly9jePx4DlEkDz3Vq164d79AcYaKeq3cYTO1lwPX444/bzi7M6LiBsslPo+46ZL7iMKBycJ90BH5HA3wNoywGMUHjnoL5hRBCpAb0EfRJTOdhEOeLevSHeNSHiXpMp+U8+oCg0R9zji/qcQ79Nv0a+5RNn0QZeM87Uc/3qmOf9wM+8DHg8o0ZAJTlBjR4RJx//vk2rzNXR7wV/HRWweVeGfQwKHWiHgNbvELo633r06dPlncG56kXdu+YRD0hRBQI89Rjii3tHu0g4xDe4fGaJkYpQhFtG44SQVGPY4wHXF/gg1g2fPjweDt54okn2nY1OM5B+GIxB66BMdYLE/VYQIn23zke4CnI+IXxDl5mGI4OTDelnnmFet533332Q1HQaNeJPehEPcJGuWs5o2+kT2I6sZ+OI4m7d/o5148xQ4z+LWjuGg7GXpTLMw4a/VyYeMkxnFOuu+46+yzcM8VcX4QXPl591Ik+mNXrqWdQ1JOnXmYjUU+EQiOCOMdXCIzpm7zA+yIcLtg0gny1J3+YqMfiDXQ6PghcNGrkYZqtgzh0XMMH4YovLqxAS36MDiNM1Hv00UdtGgs/ALEI2Pfdn/EMpGHNC3xJIi91Jf4CHZNrlIEOiC87XIOpq44wUc8f4ARBlGNQkhdcZ8AXJifqcT06SneMRp56BeH3Q8fAaktB4x6CHY0QQojUgSlHhLoAJ+rRT9F30cZjzgPDiXoMYvDKxziHARGrqB911FGmVq1a2UQ9hDjKxEuBAYwTvbgGU74YXLAdFPXc9cOMwUtO4hkf06iHq3sYvqiX6Hr0xf4HNhYCoWz6d95xEEQZ0LKNhcXvE0KIoiZM1AOm1tI2ko7QRRvNuApxD6+6MFEPMQ4hKZGo5y+U4UQ9RDlieTsPOwcx8XAMIJZfUNRjpXHqRp/kymO8g0chDhOM2ZwxhspPW0s9KTvMaOuJ75qTuJXT9FuHL+rx8YmZXkFr3rx5ln6J5+CMsTCxAxmTss9Pv5/jwxQiHvVF0GNMR7x2xEL3vPh9Ok89+i7K5KMXfZZEPRFEop4IhUYmbPEG0mkEa9asabdxzeaLDUG4w0Q9YvvQ+PrQOGHkQWhzsAqQE/XwBORLRBDOwWMvKOoR24993Mgd1Is03Kt9u/TSS2M5EkPDy7nOKN91gAwMSGPlJ3cvPvkV9RjQuIVBcjIGGQ5f1ONZcA1XD4717dvXbvvw++HFgAY/aNQheB9CCCFSB7zcEOoYeDG4cZ56rp8izAPTZdn2p986EMMIzeA8BJgSxKAjKOpxDh+SfFGPlW7pi9inHAaBGFOMMAZuXA+vcpfGPv0+4hmWyFOjIKIeITz8e+f63IsT9Vq1amX7TTw1qIdbaIT7xyuF9xiuScB4zhdCiOIiTNSjXSLOOe0YH2c47kQ3jjH2ChP1rr/+etsWOu85Vm+l/WQ/kajHeUyTJUSP304jViHqca4v6uEtTZl8OPHFOqb2Uk83fnH19L0Dc4Ippcz8wh544AFzzjnnWAcT9nFAoU9CaGSfWVqJ2u78inr+toOQFU2aNIn3SzhTICYimCK6sbAFz8yJdMR6xfvd3furr75q+yPyu+m39NGc436Pvqjn4GObRD0RhkQ9EQov9EFRj5h5pAM/eSl3ICSFiXp0FgwQXGNNY8MxGmZ+JhL1+OLPKkZBOAc3bRpRtinXlcX5PnwhId2HTu3++++P7eUMrt2svBsGjTSeCsHyIT+iHg26XwadJfuuUeYrEIOlIL6oB76ol0ig4/eDVyUdb9C4ZqLOTwghRLShL0SEwqOAfoRt4rX6L/hMeaKvYPAQJuoxIEII7NGjh52+RJ/AwMwX9egrnLHvnw/0dYhjDJYQ45hqRbn+Oc7YJ6/bD07xchRE1KOfZ2EuN9uAQRzp9LncF/GSGLA+9thj9jmQzvsKHyiZNcBzYooax3K6rhBCFDZO1MOTmrER8UFpo2hDEdZo8xHXmNXEGIl4d7SZZ599tm2TGZPQ5rGIA+0swhEfMJ544gkr8NF2kp5I1OPYrbfeastEmMO5omHDhnafhYZo7xlLOFGP8imX/oSwCRhx6ugvuAYiIyvvMtaj3v54JicQsRjH4eXGtRmHIeyxzzVor12YBjwLw7wRIRmiHrFonahH/0gePg7xu3GiGyvU8vvAQxHHDPrnYPw8X9QDxn3EtaVc+kWJeiKvZFckhNgKHQUrC/EVCKNxJg13auDl2H1dIbYex2jE6Xhwo2YfLz0aIrYJksoCE+TBgPREot748ePtcabL0tgR+JoOjTQaPl/Uc14FxG5wRqw7jlFPXvaZlkTnRL5EA4dE0HBTDoHD6TDopNxLvt/QOvIj6jGIwOvRQV179eoV2/snJiH3Fwx4GhT12Od+Gahxj2H1QtSjE+RegpboHCGEENGHfom+wvULtPW0666Nd/sYfagT9TjHGX0V5qeR3xf1iJ/H9FwGKey7gQgeIUyrcue4fpa+l3ykMYijHAf1YsDjp/kwE4DFMNz7R07iWlDUI3/QnHjHewvPg36VgOOkIz4yIOVdhbz0lwyUuLZb/VEIIYoD2lkWW2B84WzUqFFZvOYYZyDqIeQxjXP+/Pl27EQ7Rz4827p37263aZ8ZczF7CW9kJwRxDX9swewnxmOujaZctyAD10IAdOfilUecP/aDdcXISzlcn7Ek7S2e0vkdk3E+7TN9jV9X2nY/3ngY3A/e6vRfxLHLj6jn94uun8PrkX6JRSQRKhmz4cXOGBBBj3EvfQz9EzHx6FMoyx/TBUU9YHYYziPkTSTqMQ2Xvo66uP6dvoxtDE/CnPpMkX5I1BOhsAKdb0xdIVCog0aVBoUVhPjSQ0PNlxEaS+BLN8FbaYho4K+66irb4PGlx0G5ePU5Pvzwwywx9nCfpkziQhDfh+CvrmOh8eN89v16OuNrFHC8fv36Vhzka04icS0IX/ZpIGkY+erj7ovOhzoiTNKQsu06JDpIGlgaVc5l2w0uKMftY3RmQBnuGTCYoKPkKxx52KYsJ2a6jhMQ8bgXynWNOD9dR8M2RsfKIhxMx+WLGM+YwVzQOIe8YdN2hRBCRBsGDvS7rp8gjhGeFPR/zuij8CQAYs4ithHmwsWQCzP63+eff972pYhheMCHCVxMF2KAeNFFF9nBpsvDuwJ9GoOU4HmUTRgL168HYcDEyrp8OMRzwe8DgzCYw8uOPJRLvF8GeVwfw7OEdDdwwruF+mA8F/854XHiBoZh9yqEEKJ4QAhELPNFMKC9Z0zqphWHQWgnQkjg+IFolhN4ILp+AA9Jtl2fgdHHMKWWMSD7TkDDuYX+in7FGWMv+qEwGGMyrdm/H2Il4pGIc0zQ25B+nmm6XJd7TmSJrifSF4l6QoTAICO3LxyInHyxckIhHQlpeTHXmfAlxfHtt99aMZE4EHw98gcTrLbrf81yX6O4dk7GfdCZ8IUuL5bXqclCCCGEEEIIIYQoXiTqCSGEEEIIIYQQQgiRYkjUEyLC+N56QgghhBBCCJEMiPVGKIacpq0KIaKPRD0RCYjp5pbwFv/EhnABuwlALoQQQgghhBDJgviirEArUU+I1EainogEiFfBFV4zFQKY8zxYgIQ4eix+wap+QgghhBBCCJEMWF1Vot628cgjj2SJey5EcSBRT0QCiXr/TLW95ppr7Kq1/jLrrOaHazyrDWs6rhBCCCGEEGJbmTt3rtl1110l6m0Du+++u5k/f77GaKJYkagnIkGmi3osPV66dGm7hDor1oZRsWJFU6lSJXUaQgghhBBCiG1i1qxZpmTJkhL1tgGJeiIKSNQTkSCTRb3evXvb++/WrVssJTFVqlSxbvJ47wkhhBBCCCH+5dZbbzXDhg1L+JFc/MuMGTPsbCB/hpDIHxL1RBSQqCciQaaKehdeeKGNmff777/HUnKHl5Wdd97ZbNy4MZYihBBCCCGEuO2228yOO+5o7rnnHr0r58L48eNNuXLlJOptA4h6eDxK1BPFiUQ9EQkyTdRbv369FfMOPPDAWEr+uPvuuzN+yrIQQgghhBA+iHqXXXaZFVvKli0rwSoH8GhkLKJnVHD4O/v0009tKCUhiguJeiISZJJA1atXL3u/PXr0iKUUDLdK7vTp02MpQgghhBBCZC6IehdffLFdkfSCCy6w00vXrFkTOyp8vv76a3P44YdbZwNRMBD1+Bv7448/YilCFD0S9UQkyBRR78QTT7T3mqyXi5kzZ1qPP760CSGEEEIIkcn4oh5TIrt27WrD1ixevFhTJAPgYXbsscdK1NsGEPWOOOII+1PisSguJOqJSJDuot7KlSvNTjvtZEW9ZLNw4UKz/fbbb7PnnxBCCCGEEKmML+o5xo0bZ3bZZRfz+uuva5qkB2OH6tWrmz///DOWInKDZzVv3jzz/PPP27+p9u3b27+1xo0b27Ee8dK//fZbK/BJRBZFhUQ9EQnSWdTr3r27vT8a+MKCzgSPvZYtW8ZShBBCCCGEyCzCRD1Yu3at9aY644wzsh3LVLp06WLOPvvsQhH15s6dazp37mxq165tjj76aLPffvuZPffc05QuXTpljL+XkiVLWvGOxVcYz2HEavzf//6XLRbhX3/9Zb0fK1SoYMdl5N11111NqVKl7BTdsGtE1fhdsYjKcccdZ6699lrTp08fCeIRRqKeKHI2bdpkzSco6vFl47fffovtRZeclsvnHk499dRs91ZYcD06nlq1asVSsjJnzpzYlhBCCCGEEOlHIlHPccopp1ixJhMXh+jYsaN56KGHrPgETnRzoh6ruPLsCiry4cF28MEHW0GLKc/nnnuueeCBB8yAAQPMhAkT7Fhk0aJFKWNLly41y5Yts+M498zyA+PdVatW2THtkiVLQq8RRWMWGDHbx44da9577z3TsGFDU7lyZTszbLfddjPdunUr0PMQhYdEPVEslC9f3ronO3zhq2/fvtZ9ORW+ouGyHgYNOF90atasWaSu14iMe++9tznssMOyCY6XXnqpWbBgQWxPCCGEEEKI9CI3UQ9uvvlmU6JECSteZNoUSRwAEN3efvttK7g1aNDADB061JQpU8aOxxCfCvJMmjRpYsc+TOmVJ2T6gui377772r8jxrsiGkjUE8UCHQYdB1anTh37Exdwl3bllVfGckYXgspS1yAvvviiTf/qq69iKUUPrvS4TvvCHu7ffD3LtJcXIYQQQgiRGeRF1IOBAwdaYe/DDz/MNoMonSFUjz+V1LdzzjmnQF56d911l52qmYnej5nKPffcY/baay8JexFBop4oNsI6E2ep0LniUk5de/fubfcRy0444QSzww47mBUrVti04qRu3brWRXrjxo02WKuL7VAYcTOEEEIIIYQobvIq6gFeR3z0btq0acZMJyQuGuMDf9zlrKCrt+K1la6x0UViiC04cuTIjBLFo4pEPVFsEKMgrEOhI446eMC5+l5zzTX2pYDtGjVqxHJEA+JmUK+ePXvG6/vyyy/Hjorc+OCDD2QymUwmk8lkKWKE9+HDdn6mgO6///7WWEwjE6hfv751QnBjA+zGG28s0LTZxYsXW5EwU56d+Jf777/fPPPMM5puHQEk6olihZWQ/A4Fw7Ms6vDC4OqL6z4/i3O6bU6w5LqrK0a8Qk3BzRt4N7Zu3dq0adNGJpPJZDKZTJYCRkif/K7U2axZM7viJ+F10p0//vgjm7deQT3tpk6dar0dJeplHt27d7fTuTPhfybqSNQTxcqkSZOydCiXXHJJ7Eh0cbH0fDv00ENtBxkV8CTs2rVrwpgZrOYkcgdRT8u3CyGEEEKkP7w7s2rrqFGjsi04l26wmqkLzfPwww8X2Kli2rRpEvUyFES9W265RaJeBJCoJ4qdPfbYIy42pYKX3plnnhmvb9CqVatW4HgUyWLw4MHxFawSWaVKleStlwck6gkhhBBCZA6//PKLFak6deqU1u+AjLmct962CHIS9TIXiXrRQaKeKHZcfDqC1EYdP5ZemNE5Vq1a1fzvf/+LnVG8TJgwwZx++un2q2Owrun+BTIZSNQTQgghhMgsELxwOqhZs2ZaLzC39957m7feemub3nUl6mUuEvWig0Q9EQkqVKiQEqtOValSJS6K4ZV33333mTFjxqTEct5MD37//ffNkUceaevfrVu32BGRCIl6QgghhBCZyYknnmhKly4dqRA7Po8++qi59dZbTatWrQpk1113nRVlwo7lxW6++WZbBuF+mjdvHponVYx7CUsvDCMOXVFer7CMeyAWJfHbM2X16KgiUU8kBf6p8bRr0qRJsRgNSlh6sq0o7rGo7qWojGfGYhOpiEQ9IYQQQojMhHfA3Xff3RxxxBGR9Nh76KGHTN++fa3ouG7duiI3hB3CDuGpFXY8VYz6I7StXLky9HiybfLkyeaRRx4psusVpn300UdW1NMKuMWLRD2RFBD1fvrpp9B/9sI2OjLEIxqTsOOpZHQq3Asu7GHHU9HwZJSoJ4QQQgghUoXffvvNTitt0aJFZL2QoiDqsWpu2LFUMol6BTeJetFAop5IChL1kmMS9aKFRD0hhBBCiMyid+/epkSJEvYdNsoxqCXqJcck6hXcJOpFA4l6IilI1EuOSdSLFhL1hBBCCCEyh4YNG1oPvRUrVsRSootEveSYRL2Cm0S9aCBRTyQFiXrJMYl60UKinhBCCCFE+oNH3mGHHWZKlSplxxapQEFFPfIPGDDADB482I49wvLkxSTqFcwk6olkI1FPJIWCinqzZ882/fr1M5MmTQo9nhfLSdSbMmWKufzyy7OlF6WNGzfOfPXVV2bGjBmhx33Li6j3wQcf2JWqwo4VhVHHsWPHmiFDhpjly5eH5vEt1UU9t9qxTCaTyWQymSz6du655+ZLZOB9tmTJkqZBgwYptYpnQUS9CRMmmFNPPdXUqlXL1KxZ01SrVs2OwwriUCBRr2AmUU8kG4l6IikURNRr3Lix7UhOP/10c/zxx9tl48Py5WY5iXrU6YQTTtimr1DbYlybezvjjDPszwsvvDA0n7O8iHpdu3Y1derUCT1W2Ebnwz2ddNJJpnr16vaeBg4cGJrXWSqLenjpyWQymUwmk8lSw2699VZz8cUX51lk4D11l112Me+++67ZtGlTLDU1KIiod9ppp5kOHTqYVatW2f2LLrrIXHHFFXa6cTBvbhYU9ebMmWOeeeYZ8+abb+bpw39+jOssXLgwXu+g4Wzwyy+/5DiG4txFixZlKyNKot6IESPM999/b1cV9tM//vhjK77m53e9reaeeU7PRaJeNJCoJ5JCfkU9GiQEIee9RgPMPg1ZMG9ull9Rj8acTsc1ilybxsrvBGhI/QaMxn/WrFnZOiiXZ8GCBdkaWdzajz322Pi1OZd7nDt3bpZ8vhVE1CMvZXJfLi1Yf4x78NOoD/cU7NjIQz3wogzWgxclxFeX3q5dO/t8c6pvKot6QgghhBAidbjtttvyLOo9/PDDdkGMX3/91WzZsiWWmjoURNTjozwzfnj/530fbz3iCAbHDXkxX9S79957zcknn2yN8Q6OG4wzchoj5NUYZ1Fv5yyBkOSLXtzHKaecYjp16pRtXOOMmVMImpyP4ZTgnhvnR0XUY4YZ9WP1ZZfmfk8Iz0XlGcnYEscb9/tkjB72dyZRLxpI1BNJoaCiHo09+zT47DOtM5g3N6OsvIh6NPLHHXecOeaYY8zRRx9ttz/55BPz559/WvGNuBLuvCuvvNJ617FNo0vH5M7haxbplMn+ZZddZuu+bNmy+PlYs2bNzDXXXJMljevkdI+UmR9Rj7Jc3Vz9Fi9ebAU+0pcuXRo/j47spptustvcH3ndOXfddZdN5/p44eGWz/nBr0TXX399FlHvzjvvlKgnhBBCCCEiQV5FPd53y5QpY0WSVKUgot6SJUvsez4iGYJN1apVs4wX8mNO1GMsxbjpscces/tuPOE8AHF0uOCCC+yUX8Zb1Pe///2vHR/w+zrnnHPMhx9+aB0OENfwuiNP27ZtTYsWLex4qkaNGrYsxkmMPRh3DRo0yP6u77nnHjtucaJez549Tf/+/bOMY+rVq2fHTwhpzJw6++yz42M36ht1UY/68bvGMQVR9oUXXrDP7cEHH4yXc//991vxDycM53n52muvxb0xOZeyOJ/fA8+DfAhzX3zxRRbBkOd89dVX29/JpZdeaseLYX8nEvWigUQ9kRQKMv2Wr2M0WnQsNM40rmH5crO8ino0OIhZ7hgdRe3ate02YtdZZ51lt+mY6OC+/vpr2zFQR+ehRzns87XHbfN1y5WZk9133322Ljl1GJSZH1GPhp8OzB2j0XYCHZ0pnRzb1J/OjnLpNKm36+iIO8j+77//bq+PaPfiiy/Gy/SN50G5GF/EOG/69OmheZ1J1BNCCCGEEEVBbqIe76alS5e277K886cyBRH1ENe4d6ZzduvWzb7PI/IURNByoh4iHOM5PB6DYxiEJDy++L0w3uLaM2fOtI4BbDdv3tyOXxinUBbjMUQkxCYcEhAKGce4cQuCHHnnzZtnj3PuJZdcYscvTtTjnhADnbCFcb4rA4GQ81JF1OPvlGfYvXt3O+5CQOVv/IYbbrDCLGmEteIZIJYi2DZq1Mj8+OOP9jyEPcaOjEN5li4sFLEneUb8ZIwcdFDhubzxxhv2dxsUSZ1J1IsGEvVEUiiIqFelShXbqNKp4AFGA01nEJY3J8urqIfReOI+/PLLL9sG38W4Gz9+vG3c2KajYZtO6e2337bedcOGDYsbjScdEOWRj/gb/jWDRiwC7pP7HTVqVGgeZ5SZH1GP/Hjl4ULeuXNne69t2rSxxxBN6SzZ5hnzhYXtq666yjbw/j1x3qeffmrLY5t8YcZXIe6ZsnkRYJt7y6m+EvWEEEIIIURRkJOoh8C06667WkFl48aNsdTUJb+iHuIQQhgzfdy7+/Dhw+3Yho/7wfy5mRP1GEswruL5unIZU2A4PzAecYIR13/00UetcwXXRWTCwQAhivtgPIM4RYgm8jrvMMpl/MPYY+LEiXahRc5HlOI6nO9EPX733KurpzPqioDFmMifGsz5qSTq8Vx4bpyPQMc49swzz7TGTDHukXEnv9PvvvvOji35HVAuz4tzeFbu+omeF8a5jA0ZqwdFP0yiXjSQqCeSQn5FvV69etkG1RfiaIDq16+fJV9eLK+iHkIewiGN/uOPP27uuOOOuKjHcfLRsTVt2tQKVaSTj3Nw+/atY8eO9hyOEZTXv6ZvfIUiDx1XosbSN8rMj6jHKl2Uf95559n7w63diXrUi2M06HS0fLkhvW7durZhD94TnSPXd0Jg0KgTvzMab5c2f/58+9xyujeJekIIIYQQoihIJOrhcbTzzjubkSNHms2bN8dSU5tkiHp4cyGOhQk2uVlw+i3TXvHmYjyBU8S1115rrrvuOivSufIRp5588kk7NnLi1LRp0+w298H55GGc5sRAfpeM3yiH/JTTp0+fuCjI9fAmc6KeX0dnpJOHsoNiGuenmqjHc+F8hDwn6nEPOJCwzxi4S5cudgzINOVXXnnFbjtR7/3337e/O//aviHGPv300/YaxEtkvKfpt9FFop5ICvkV9ZwHnC8GEesAkcrPlxfLq6gXFKQ4x1+NlnugDuSbOnWqTaOjZN8X2ejAiDtAmTmJeiwZz3GCu4YdDzPKzKuox31TPu7n7hhTmJ2ohyFOOmHSdYKIlnRqLo/ryOhQ2c5J1KMc7t2l0aFI1BNCCCGEEFEgTNTj/R5Bjw/d6URBpt8i/vDuzgq1GMIYok0iMSwnc6Ie2zxzymVGENdgzMBqtDgAIEIx/mCchzDH2AXHhzBRj7LIQ1mMORD5mCHF+ISpw4zd+OnKZeotzgkcd6IeAiBjG3/6LTHQKdOVwVjKjY3cWCg3UQ8xjHjs1IkxJdfhb4q/Ne4Z0S0nocxZbqIe90/Zzty95iTqEUeP3yWzqRjn4ejBPZHGbCzy+Z56vqh3/vnnW8caJ7xid999txUB+RvjJ1Oiw7w5JepFA4l6IinkV9Sj0aZhoQOgYWOuP40/7tdh+XOyvIp6Rx55ZLwToPFBrKOBcw0UDSN5cVf2y6Be1JOpwTSO1Nt9heJYIlGvcuXKtpHkS5NvrCoblh+jzLyKeuQh9h8dKisUUTfuiU7LNdLffPONvSc/XiGu8dwDX8mYauziWHAsJ1EPu/HGG+25lIvrO2Wzn1N9JeoJIYQQQoiiwBf18MirWLGiKVeunH3HTTcKIuphzz33nF1kgVlSzPTJixAVZr6ohyGqMa5AZPNFQoQoPL9Id84Ob731lh0XMf5C5GOb8RXH8KbEScGJXhxDtPKNY4xFEBGJu0cMPTwFqc/tt99uPdP8OrRv3z7L+eRxoh9/G3kR9agTs7p43sQR5G+NMjifOjLV1d1DTpaTqMe9MG7y64qHHOV/++23dszHNtflXvF45PkyFuOeEbDbtWsXvzem4/KMGI+Rl7J4Fixe4uqKgMd13TnOiNOOOMh9OgE0aBL1ooFEPZEUChJTDzGNIJ6IQnyVoGEOy5eb5STqIcTRcLl8dCasCkQsB9Jo5Jh26vIjbtHIu32MrxbUk68UuJETI88do9EMuy5Gw8+1g7atoh71feKJJ+w2Ah2NN+IhMe74IsaXFBebkHJ4vkx39sugDuTjSw71dNfj+h06dMiSN2jvvfee7bD5SuQW5cjJJOoJIYQQQoiiwIl6xEzbZZddrPCUDvHzwiioqJcsC4p6qWp5FfWSZTmJeqlmEvWigUQ9kRQKIuoly3IS9fJjNOgIYGGuxUVleRH18mN0GsFpzkVtEvWEEEIIIURRgKh31FFHme22286GwtmyZUvsSPohUS85JlGv4CZRLxpI1BNJIdVFPbzVmLqK517Y8aKyZIp6TI3F8xAX+7DjRWUS9YQQQgghRFGAqLfTTjvZaYrpLOiBRL3kmES9gptEvWggUU8khVQX9Yi5UJAAscm2ZIp6xExIlsfftphEPSGEEEIIURTcf//9GSMwSNRLjknUK7hJ1IsGEvVEUkiH6bdRsGSKelExiXpCCCGEEEIkF4l6yTGJegU3iXrRQKKeSAoS9ZJjEvWEEEIIIYQQuSFRLzkmUa/gJlEvGkjUE0kBUW/8+PF2QYaiNhoUhLC//vor9HgqmRP1+Bl2PBVt7NixEvWEEEIIIYRIIoh6xBBs165dsRjjv7Zt24YeSzVr3rx5kd3LHXfcYQXRsGOpZtzHM888I1GvmPm/LUIkga2N+pZmzZoVm21tiEPTU9HS6V6ctW7dOvaXIoQQQgghhNhWFi1atGX+/PnFZtOmTdsyb9680GOpZNxDUd7L7Nmzt0ydOjUtnh22dOnSLZs3b479VYqiZ8uW/wc1Jj8K9aI+BQAAAABJRU5ErkJggg==;" vertex="1" parent="1">
          <mxGeometry x="-290" y="220" width="1269" height="394" as="geometry" />
        </mxCell>
        <mxCell id="VVaLl3PcsrBrDYRy7xKN-3" value="&lt;font size=&quot;1&quot; style=&quot;&quot;&gt;&lt;b style=&quot;font-size: 23px;&quot;&gt;Sampling&lt;/b&gt;&lt;/font&gt;" style="text;strokeColor=none;align=center;fillColor=default;html=1;verticalAlign=middle;whiteSpace=wrap;rounded=0;" vertex="1" parent="1">
          <mxGeometry x="-160" y="229" width="200" height="20" as="geometry" />
        </mxCell>
        <mxCell id="VVaLl3PcsrBrDYRy7xKN-4" value="&lt;font size=&quot;1&quot; style=&quot;&quot;&gt;&lt;b style=&quot;font-size: 18px;&quot;&gt;&lt;i&gt;start&lt;sub&gt;A&lt;/sub&gt;&lt;/i&gt;&lt;/b&gt;&lt;/font&gt;" style="text;strokeColor=none;align=center;fillColor=default;html=1;verticalAlign=middle;whiteSpace=wrap;rounded=0;" vertex="1" parent="1">
          <mxGeometry x="-105" y="253" width="90" height="30" as="geometry" />
        </mxCell>
        <mxCell id="VVaLl3PcsrBrDYRy7xKN-5" value="&lt;font size=&quot;1&quot; style=&quot;&quot;&gt;&lt;b style=&quot;font-size: 18px;&quot;&gt;&lt;i&gt;len&lt;sub&gt;A&lt;/sub&gt;&lt;/i&gt;&lt;/b&gt;&lt;/font&gt;" style="text;strokeColor=none;align=center;fillColor=default;html=1;verticalAlign=middle;whiteSpace=wrap;rounded=0;" vertex="1" parent="1">
          <mxGeometry x="-15" y="253" width="90" height="30" as="geometry" />
        </mxCell>
        <mxCell id="VVaLl3PcsrBrDYRy7xKN-6" value="&lt;span style=&quot;font-size: 18px;&quot;&gt;&lt;b&gt;&lt;i&gt;0&lt;/i&gt;&lt;/b&gt;&lt;/span&gt;" style="text;strokeColor=none;align=center;fillColor=default;html=1;verticalAlign=middle;whiteSpace=wrap;rounded=0;" vertex="1" parent="1">
          <mxGeometry x="-200" y="450" width="90" height="30" as="geometry" />
        </mxCell>
        <mxCell id="VVaLl3PcsrBrDYRy7xKN-7" value="&lt;font size=&quot;1&quot; style=&quot;&quot;&gt;&lt;b style=&quot;font-size: 18px;&quot;&gt;&lt;i&gt;end&lt;sub&gt;B&lt;/sub&gt;&lt;/i&gt;&lt;/b&gt;&lt;/font&gt;" style="text;strokeColor=none;align=center;fillColor=default;html=1;verticalAlign=middle;whiteSpace=wrap;rounded=0;" vertex="1" parent="1">
          <mxGeometry x="-60" y="454" width="90" height="30" as="geometry" />
        </mxCell>
        <mxCell id="VVaLl3PcsrBrDYRy7xKN-10" value="&lt;font style=&quot;font-size: 18px;&quot;&gt;&lt;b&gt;Concurrent&lt;br&gt;Segment&lt;/b&gt;&lt;/font&gt;" style="text;strokeColor=none;align=center;fillColor=default;html=1;verticalAlign=middle;whiteSpace=wrap;rounded=0;" vertex="1" parent="1">
          <mxGeometry x="-233" y="251" width="108" height="30" as="geometry" />
        </mxCell>
        <mxCell id="VVaLl3PcsrBrDYRy7xKN-11" value="&lt;span style=&quot;font-size: 18px;&quot;&gt;&lt;b&gt;Model A&lt;/b&gt;&lt;/span&gt;" style="text;strokeColor=none;align=center;fillColor=default;html=1;verticalAlign=middle;whiteSpace=wrap;rounded=0;" vertex="1" parent="1">
          <mxGeometry x="-270" y="320" width="90" height="30" as="geometry" />
        </mxCell>
        <mxCell id="VVaLl3PcsrBrDYRy7xKN-12" value="&lt;span style=&quot;font-size: 18px;&quot;&gt;&lt;b&gt;Model B&lt;/b&gt;&lt;/span&gt;" style="text;strokeColor=none;align=center;fillColor=default;html=1;verticalAlign=middle;whiteSpace=wrap;rounded=0;" vertex="1" parent="1">
          <mxGeometry x="-270" y="380" width="90" height="30" as="geometry" />
        </mxCell>
        <mxCell id="VVaLl3PcsrBrDYRy7xKN-13" value="&lt;span style=&quot;font-size: 18px;&quot;&gt;&lt;b&gt;Result&lt;/b&gt;&lt;/span&gt;" style="text;strokeColor=none;align=center;fillColor=default;html=1;verticalAlign=middle;whiteSpace=wrap;rounded=0;" vertex="1" parent="1">
          <mxGeometry x="109" y="320" width="50" height="30" as="geometry" />
        </mxCell>
        <mxCell id="VVaLl3PcsrBrDYRy7xKN-14" value="&lt;span style=&quot;font-size: 18px;&quot;&gt;&lt;b&gt;Operator Knowledge&lt;/b&gt;&lt;/span&gt;" style="text;strokeColor=none;align=center;fillColor=default;html=1;verticalAlign=middle;whiteSpace=wrap;rounded=0;" vertex="1" parent="1">
          <mxGeometry x="-56" y="498" width="110" height="30" as="geometry" />
        </mxCell>
        <mxCell id="VVaLl3PcsrBrDYRy7xKN-15" value="Start" style="text;strokeColor=none;align=center;fillColor=#f5f5f5;html=1;verticalAlign=middle;whiteSpace=wrap;rounded=0;" vertex="1" parent="1">
          <mxGeometry x="-106" y="595" width="40" height="16" as="geometry" />
        </mxCell>
        <mxCell id="VVaLl3PcsrBrDYRy7xKN-16" value="&lt;font style=&quot;font-size: 12px;&quot;&gt;End&lt;/font&gt;" style="text;strokeColor=none;align=center;fillColor=#f5f5f5;html=1;verticalAlign=middle;whiteSpace=wrap;rounded=0;" vertex="1" parent="1">
          <mxGeometry x="-55" y="595" width="40" height="16" as="geometry" />
        </mxCell>
        <mxCell id="VVaLl3PcsrBrDYRy7xKN-18" value="&lt;b style=&quot;&quot;&gt;&lt;font style=&quot;font-size: 13px;&quot;&gt;Start &amp;amp; Ending Position&lt;/font&gt;&lt;/b&gt;" style="text;strokeColor=none;align=center;fillColor=default;html=1;verticalAlign=middle;whiteSpace=wrap;rounded=0;" vertex="1" parent="1">
          <mxGeometry x="-100" y="540" width="100" height="30" as="geometry" />
        </mxCell>
        <mxCell id="VVaLl3PcsrBrDYRy7xKN-19" value="&lt;b style=&quot;&quot;&gt;&lt;font style=&quot;font-size: 23px;&quot;&gt;Operator Knowledge&lt;/font&gt;&lt;/b&gt;" style="text;strokeColor=none;align=center;fillColor=default;html=1;verticalAlign=middle;whiteSpace=wrap;rounded=0;" vertex="1" parent="1">
          <mxGeometry x="220" y="224" width="310" height="30" as="geometry" />
        </mxCell>
        <mxCell id="VVaLl3PcsrBrDYRy7xKN-20" value="&lt;span style=&quot;font-size: 18px;&quot;&gt;&lt;b&gt;Record&lt;/b&gt;&lt;/span&gt;" style="text;strokeColor=none;align=center;fillColor=default;html=1;verticalAlign=middle;whiteSpace=wrap;rounded=0;" vertex="1" parent="1">
          <mxGeometry x="318" y="538" width="130" height="30" as="geometry" />
        </mxCell>
        <mxCell id="VVaLl3PcsrBrDYRy7xKN-21" value="&lt;b style=&quot;&quot;&gt;&lt;font style=&quot;font-size: 23px;&quot;&gt;Predictor&lt;/font&gt;&lt;/b&gt;" style="text;strokeColor=none;align=center;fillColor=default;html=1;verticalAlign=middle;whiteSpace=wrap;rounded=0;" vertex="1" parent="1">
          <mxGeometry x="640" y="224" width="310" height="30" as="geometry" />
        </mxCell>
        <mxCell id="VVaLl3PcsrBrDYRy7xKN-22" value="&lt;span style=&quot;font-size: 18px;&quot;&gt;&lt;b&gt;Operator Knowledge&lt;/b&gt;&lt;/span&gt;" style="text;strokeColor=none;align=center;fillColor=default;html=1;verticalAlign=middle;whiteSpace=wrap;rounded=0;" vertex="1" parent="1">
          <mxGeometry x="672" y="500" width="110" height="30" as="geometry" />
        </mxCell>
        <mxCell id="VVaLl3PcsrBrDYRy7xKN-23" value="" style="text;strokeColor=none;align=center;fillColor=default;html=1;verticalAlign=middle;whiteSpace=wrap;rounded=0;" vertex="1" parent="1">
          <mxGeometry x="620" y="270" width="330" height="30" as="geometry" />
        </mxCell>
        <mxCell id="VVaLl3PcsrBrDYRy7xKN-25" value="" style="text;strokeColor=none;align=center;fillColor=default;html=1;verticalAlign=middle;whiteSpace=wrap;rounded=0;" vertex="1" parent="1">
          <mxGeometry x="610" y="309" width="90" height="130" as="geometry" />
        </mxCell>
        <mxCell id="VVaLl3PcsrBrDYRy7xKN-26" value="" style="text;strokeColor=none;align=center;fillColor=default;html=1;verticalAlign=middle;whiteSpace=wrap;rounded=0;" vertex="1" parent="1">
          <mxGeometry x="697" y="436" width="60" height="30" as="geometry" />
        </mxCell>
        <mxCell id="VVaLl3PcsrBrDYRy7xKN-27" value="" style="text;strokeColor=none;align=center;fillColor=default;html=1;verticalAlign=middle;whiteSpace=wrap;rounded=0;" vertex="1" parent="1">
          <mxGeometry x="910" y="361" width="60" height="30" as="geometry" />
        </mxCell>
        <mxCell id="VVaLl3PcsrBrDYRy7xKN-28" value="&lt;font style=&quot;font-size: 12px;&quot;&gt;Operator Features&lt;/font&gt;" style="text;strokeColor=none;align=center;fillColor=default;html=1;verticalAlign=middle;whiteSpace=wrap;rounded=0;fontStyle=1" vertex="1" parent="1">
          <mxGeometry x="771" y="547" width="99" height="21" as="geometry" />
        </mxCell>
      </root>
    </mxGraphModel>
  </diagram>
</mxfile>
